<mxfile host="app.diagrams.net" agent="Mozilla/5.0 (Windows NT 10.0; Win64; x64) AppleWebKit/537.36 (KHTML, like Gecko) Chrome/135.0.0.0 Safari/537.36" version="26.1.3">
  <diagram name="Page-1" id="km0_BRlmedaNNFOfrExa">
    <mxGraphModel dx="4097" dy="2206" grid="1" gridSize="10" guides="1" tooltips="1" connect="1" arrows="1" fold="1" page="1" pageScale="1" pageWidth="850" pageHeight="1100" math="0" shadow="0">
      <root>
        <mxCell id="0" />
        <mxCell id="1" parent="0" />
        <mxCell id="JrayNG33wRIPSkq_cNoT-1" value="Rui" style="rounded=0;whiteSpace=wrap;html=1;fontStyle=1;fontSize=32;" vertex="1" parent="1">
          <mxGeometry x="470" y="60" width="120" height="60" as="geometry" />
        </mxCell>
        <mxCell id="JrayNG33wRIPSkq_cNoT-2" value="PUPu,y" style="rounded=0;whiteSpace=wrap;html=1;fontStyle=1;fontSize=32;" vertex="1" parent="1">
          <mxGeometry x="470" y="130" width="120" height="60" as="geometry" />
        </mxCell>
        <mxCell id="JrayNG33wRIPSkq_cNoT-3" value="PIPi,y" style="rounded=0;whiteSpace=wrap;html=1;fontStyle=1;fontSize=32;" vertex="1" parent="1">
          <mxGeometry x="470" y="200" width="120" height="60" as="geometry" />
        </mxCell>
        <mxCell id="JrayNG33wRIPSkq_cNoT-4" value="&lt;font style=&quot;font-size: 21px;&quot;&gt;CUPv,k,u,y&lt;/font&gt;" style="rounded=0;whiteSpace=wrap;html=1;fontStyle=1;fontSize=32;" vertex="1" parent="1">
          <mxGeometry x="470" y="270" width="120" height="60" as="geometry" />
        </mxCell>
        <mxCell id="JrayNG33wRIPSkq_cNoT-5" value="&lt;font style=&quot;font-size: 21px;&quot;&gt;CIPj,k,i,y&lt;/font&gt;" style="rounded=0;whiteSpace=wrap;html=1;fontStyle=1;fontSize=32;" vertex="1" parent="1">
          <mxGeometry x="470" y="340" width="120" height="60" as="geometry" />
        </mxCell>
        <mxCell id="JrayNG33wRIPSkq_cNoT-6" value="&lt;strong data-start=&quot;1022&quot; data-end=&quot;1038&quot;&gt;&lt;span class=&quot;katex&quot;&gt;&lt;span class=&quot;katex-html&quot; aria-hidden=&quot;true&quot;&gt;&lt;span class=&quot;base&quot;&gt;&lt;span class=&quot;mord mathnormal&quot;&gt;p&lt;/span&gt;&lt;span class=&quot;mord mathnormal&quot;&gt;u&lt;/span&gt;&lt;span class=&quot;mord mathnormal&quot;&gt;p&lt;/span&gt;&lt;span class=&quot;mord mathnormal&quot;&gt;u&lt;/span&gt;&lt;span class=&quot;mpunct&quot;&gt;,&lt;/span&gt;&lt;span class=&quot;mspace&quot;&gt;&lt;/span&gt;&lt;span class=&quot;mord mathnormal&quot;&gt;y&lt;/span&gt;&lt;/span&gt;&lt;/span&gt;&lt;/span&gt;&lt;/strong&gt;: Probabilitas prior untuk pengguna &lt;strong data-start=&quot;1074&quot; data-end=&quot;1079&quot;&gt;u&lt;/strong&gt; dan rating &lt;strong data-start=&quot;1091&quot; data-end=&quot;1096&quot;&gt;y&lt;/strong&gt;." style="text;whiteSpace=wrap;html=1;" vertex="1" parent="1">
          <mxGeometry x="610" y="140" width="340" height="40" as="geometry" />
        </mxCell>
        <mxCell id="JrayNG33wRIPSkq_cNoT-7" value="&lt;strong data-start=&quot;1102&quot; data-end=&quot;1118&quot;&gt;&lt;span class=&quot;katex&quot;&gt;&lt;span class=&quot;katex-html&quot; aria-hidden=&quot;true&quot;&gt;&lt;span class=&quot;base&quot;&gt;&lt;span class=&quot;mord mathnormal&quot;&gt;p&lt;/span&gt;&lt;span class=&quot;mord mathnormal&quot;&gt;i&lt;/span&gt;&lt;span class=&quot;mord mathnormal&quot;&gt;p&lt;/span&gt;&lt;span class=&quot;mord mathnormal&quot;&gt;i&lt;/span&gt;&lt;span class=&quot;mpunct&quot;&gt;,&lt;/span&gt;&lt;span class=&quot;mspace&quot;&gt;&lt;/span&gt;&lt;span class=&quot;mord mathnormal&quot;&gt;y&lt;/span&gt;&lt;/span&gt;&lt;/span&gt;&lt;/span&gt;&lt;/strong&gt;: Probabilitas prior untuk item &lt;strong data-start=&quot;1150&quot; data-end=&quot;1155&quot;&gt;i&lt;/strong&gt; dan rating &lt;strong data-start=&quot;1167&quot; data-end=&quot;1172&quot;&gt;y&lt;/strong&gt;." style="text;whiteSpace=wrap;html=1;" vertex="1" parent="1">
          <mxGeometry x="610" y="210" width="300" height="40" as="geometry" />
        </mxCell>
        <mxCell id="JrayNG33wRIPSkq_cNoT-8" value="Probabilitas likelihood untuk pengguna &lt;strong data-start=&quot;1239&quot; data-end=&quot;1244&quot;&gt;v&lt;/strong&gt; yang memberikan rating &lt;strong data-start=&quot;1268&quot; data-end=&quot;1273&quot;&gt;k&lt;/strong&gt; pada item &lt;strong data-start=&quot;1284&quot; data-end=&quot;1289&quot;&gt;i&lt;/strong&gt;, dengan asumsi pengguna &lt;strong data-start=&quot;1314&quot; data-end=&quot;1319&quot;&gt;u&lt;/strong&gt; memberi rating &lt;strong data-start=&quot;1335&quot; data-end=&quot;1340&quot;&gt;y&lt;/strong&gt; pada item tersebut." style="text;whiteSpace=wrap;html=1;" vertex="1" parent="1">
          <mxGeometry x="610" y="280" width="560" height="50" as="geometry" />
        </mxCell>
        <mxCell id="JrayNG33wRIPSkq_cNoT-9" value="Probabilitas likelihood untuk item &lt;strong data-start=&quot;1422&quot; data-end=&quot;1427&quot;&gt;j&lt;/strong&gt; yang diberi rating &lt;strong data-start=&quot;1447&quot; data-end=&quot;1452&quot;&gt;k&lt;/strong&gt; oleh pengguna &lt;strong data-start=&quot;1467&quot; data-end=&quot;1472&quot;&gt;i&lt;/strong&gt;, dengan asumsi item &lt;strong data-start=&quot;1493&quot; data-end=&quot;1498&quot;&gt;i&lt;/strong&gt; diberi rating &lt;strong data-start=&quot;1513&quot; data-end=&quot;1518&quot;&gt;y&lt;/strong&gt; oleh pengguna yang sama." style="text;whiteSpace=wrap;html=1;" vertex="1" parent="1">
          <mxGeometry x="610" y="350" width="560" height="50" as="geometry" />
        </mxCell>
        <UserObject label="Matriks rating pengguna untuk item, di mana setiap &lt;strong data-start=&quot;815&quot; data-end=&quot;829&quot;&gt;&lt;span class=&quot;katex&quot;&gt;&lt;span class=&quot;katex-mathml&quot;&gt;&lt;math xmlns=&quot;http://www.w3.org/1998/Math/MathML&quot;&gt;&lt;mrow&gt;&lt;mi&gt;r&lt;/mi&gt;&lt;mi&gt;u&lt;/mi&gt;&lt;mo separator=&quot;true&quot;&gt;,&lt;/mo&gt;&lt;mi&gt;i&lt;/mi&gt;&lt;/mrow&gt;ru,i&lt;/math&gt;&lt;/span&gt;&lt;span class=&quot;katex-html&quot; aria-hidden=&quot;true&quot;&gt;&lt;span class=&quot;base&quot;&gt;&lt;span class=&quot;strut&quot;&gt;&lt;/span&gt;&lt;span class=&quot;mord mathnormal&quot;&gt;r&lt;/span&gt;&lt;span class=&quot;mord mathnormal&quot;&gt;u&lt;/span&gt;&lt;span class=&quot;mpunct&quot;&gt;,&lt;/span&gt;&lt;span class=&quot;mspace&quot;&gt;&lt;/span&gt;&lt;span class=&quot;mord mathnormal&quot;&gt;i&lt;/span&gt;&lt;/span&gt;&lt;/span&gt;&lt;/span&gt;&lt;/strong&gt; adalah rating yang diberikan oleh pengguna &lt;strong data-start=&quot;873&quot; data-end=&quot;878&quot;&gt;u&lt;/strong&gt; pada item &lt;strong data-start=&quot;889&quot; data-end=&quot;894&quot;&gt;i&lt;/strong&gt;." link="Matriks rating pengguna untuk item, di mana setiap &lt;strong data-start=&quot;815&quot; data-end=&quot;829&quot;&gt;&lt;span class=&quot;katex&quot;&gt;&lt;span class=&quot;katex-mathml&quot;&gt;&lt;math xmlns=&quot;http://www.w3.org/1998/Math/MathML&quot;&gt;&lt;mrow&gt;&lt;mi&gt;r&lt;/mi&gt;&lt;mi&gt;u&lt;/mi&gt;&lt;mo separator=&quot;true&quot;&gt;,&lt;/mo&gt;&lt;mi&gt;i&lt;/mi&gt;&lt;/mrow&gt;ru,i&lt;/math&gt;&lt;/span&gt;&lt;span class=&quot;katex-html&quot; aria-hidden=&quot;true&quot;&gt;&lt;span class=&quot;base&quot;&gt;&lt;span class=&quot;strut&quot;&gt;&lt;/span&gt;&lt;span class=&quot;mord mathnormal&quot;&gt;r&lt;/span&gt;&lt;span class=&quot;mord mathnormal&quot;&gt;u&lt;/span&gt;&lt;span class=&quot;mpunct&quot;&gt;,&lt;/span&gt;&lt;span class=&quot;mspace&quot;&gt;&lt;/span&gt;&lt;span class=&quot;mord mathnormal&quot;&gt;i&lt;/span&gt;&lt;/span&gt;&lt;/span&gt;&lt;/span&gt;&lt;/strong&gt; adalah rating yang diberikan oleh pengguna &lt;strong data-start=&quot;873&quot; data-end=&quot;878&quot;&gt;u&lt;/strong&gt; pada item &lt;strong data-start=&quot;889&quot; data-end=&quot;894&quot;&gt;i&lt;/strong&gt;." id="JrayNG33wRIPSkq_cNoT-10">
          <mxCell style="text;whiteSpace=wrap;html=1;" vertex="1" parent="1">
            <mxGeometry x="610" y="60" width="560" height="50" as="geometry" />
          </mxCell>
        </UserObject>
        <mxCell id="JrayNG33wRIPSkq_cNoT-11" value="&lt;font style=&quot;font-size: 27px;&quot;&gt;&lt;strong style=&quot;&quot; data-end=&quot;627&quot; data-start=&quot;618&quot;&gt;(ucu)&lt;/strong&gt;:&lt;/font&gt;" style="rounded=0;whiteSpace=wrap;html=1;" vertex="1" parent="1">
          <mxGeometry x="470" y="440" width="120" height="60" as="geometry" />
        </mxCell>
        <mxCell id="JrayNG33wRIPSkq_cNoT-12" value="&lt;strong data-start=&quot;660&quot; data-end=&quot;671&quot;&gt;counter&lt;/strong&gt; (penghitung) yang digunakan untuk menyimpan jumlah &lt;strong data-start=&quot;723&quot; data-end=&quot;736&quot;&gt;observasi&lt;/strong&gt; atau jumlah &lt;strong data-start=&quot;749&quot; data-end=&quot;757&quot;&gt;item&lt;/strong&gt; yang telah diberi rating oleh &lt;strong data-start=&quot;788&quot; data-end=&quot;802&quot;&gt;pengguna u&lt;/strong&gt;. Dalam konteks algoritma ini, ini mencatat berapa banyak item yang telah dinilai oleh pengguna &lt;strong data-start=&quot;898&quot; data-end=&quot;903&quot;&gt;u&lt;/strong&gt;." style="text;whiteSpace=wrap;html=1;" vertex="1" parent="1">
          <mxGeometry x="610" y="435" width="560" height="70" as="geometry" />
        </mxCell>
        <mxCell id="JrayNG33wRIPSkq_cNoT-13" value="&lt;font style=&quot;font-size: 27px;&quot;&gt;&lt;strong style=&quot;&quot; data-end=&quot;627&quot; data-start=&quot;618&quot;&gt;(ici)&lt;/strong&gt;:&lt;/font&gt;" style="rounded=0;whiteSpace=wrap;html=1;" vertex="1" parent="1">
          <mxGeometry x="470" y="510" width="120" height="60" as="geometry" />
        </mxCell>
        <mxCell id="JrayNG33wRIPSkq_cNoT-14" value="(ijcj,i,y)" style="rounded=0;whiteSpace=wrap;html=1;fontSize=23;fontStyle=1" vertex="1" parent="1">
          <mxGeometry x="470" y="580" width="120" height="60" as="geometry" />
        </mxCell>
        <mxCell id="JrayNG33wRIPSkq_cNoT-15" value="(uvcv,u,y)" style="rounded=0;whiteSpace=wrap;html=1;fontSize=23;fontStyle=1" vertex="1" parent="1">
          <mxGeometry x="470" y="650" width="120" height="60" as="geometry" />
        </mxCell>
        <mxCell id="JrayNG33wRIPSkq_cNoT-16" value="&lt;strong data-start=&quot;1086&quot; data-end=&quot;1097&quot;&gt;counter&lt;/strong&gt; yang menyimpan jumlah &lt;strong data-start=&quot;1120&quot; data-end=&quot;1133&quot;&gt;observasi&lt;/strong&gt; atau jumlah &lt;strong data-start=&quot;1146&quot; data-end=&quot;1158&quot;&gt;pengguna&lt;/strong&gt; yang telah memberikan rating pada &lt;strong data-start=&quot;1193&quot; data-end=&quot;1203&quot;&gt;item i&lt;/strong&gt;." style="text;whiteSpace=wrap;html=1;" vertex="1" parent="1">
          <mxGeometry x="610" y="510" width="560" height="50" as="geometry" />
        </mxCell>
        <mxCell id="JrayNG33wRIPSkq_cNoT-17" value="&lt;strong data-start=&quot;1376&quot; data-end=&quot;1387&quot;&gt;counter&lt;/strong&gt; yang digunakan untuk menyimpan jumlah observasi di mana item &lt;strong data-start=&quot;1449&quot; data-end=&quot;1454&quot;&gt;j&lt;/strong&gt; diberi rating &lt;strong data-start=&quot;1469&quot; data-end=&quot;1474&quot;&gt;k&lt;/strong&gt; oleh pengguna yang juga memberikan rating &lt;strong data-start=&quot;1517&quot; data-end=&quot;1522&quot;&gt;y&lt;/strong&gt; pada item &lt;strong data-start=&quot;1533&quot; data-end=&quot;1538&quot;&gt;i&lt;/strong&gt;. Dengan kata lain, ini mencatat jumlah pengguna yang memberi rating yang sama pada dua item yang berbeda (&lt;strong data-start=&quot;1645&quot; data-end=&quot;1650&quot;&gt;i&lt;/strong&gt; dan &lt;strong data-start=&quot;1655&quot; data-end=&quot;1660&quot;&gt;j&lt;/strong&gt;), dan juga memberi rating &lt;strong data-start=&quot;1687&quot; data-end=&quot;1692&quot;&gt;y&lt;/strong&gt; pada item &lt;strong data-start=&quot;1703&quot; data-end=&quot;1708&quot;&gt;i&lt;/strong&gt;." style="text;whiteSpace=wrap;html=1;" vertex="1" parent="1">
          <mxGeometry x="610" y="580" width="560" height="80" as="geometry" />
        </mxCell>
        <mxCell id="JrayNG33wRIPSkq_cNoT-18" value="&lt;strong data-start=&quot;1945&quot; data-end=&quot;1956&quot;&gt;counter&lt;/strong&gt; yang menyimpan jumlah observasi di mana &lt;strong data-start=&quot;1997&quot; data-end=&quot;2011&quot;&gt;pengguna v&lt;/strong&gt; memberi rating &lt;strong data-start=&quot;2027&quot; data-end=&quot;2032&quot;&gt;k&lt;/strong&gt; pada item &lt;strong data-start=&quot;2043&quot; data-end=&quot;2048&quot;&gt;i&lt;/strong&gt;, dengan asumsi bahwa &lt;strong data-start=&quot;2070&quot; data-end=&quot;2084&quot;&gt;pengguna u&lt;/strong&gt; memberi rating &lt;strong data-start=&quot;2100&quot; data-end=&quot;2105&quot;&gt;y&lt;/strong&gt; pada item &lt;strong data-start=&quot;2116&quot; data-end=&quot;2121&quot;&gt;i&lt;/strong&gt;." style="text;whiteSpace=wrap;html=1;" vertex="1" parent="1">
          <mxGeometry x="610" y="655" width="560" height="50" as="geometry" />
        </mxCell>
        <mxCell id="JrayNG33wRIPSkq_cNoT-19" value="&lt;font style=&quot;font-size: 23px;&quot;&gt;&lt;b&gt;#R&lt;/b&gt;&lt;/font&gt;" style="rounded=0;whiteSpace=wrap;html=1;" vertex="1" parent="1">
          <mxGeometry x="470" y="760" width="120" height="60" as="geometry" />
        </mxCell>
        <mxCell id="JrayNG33wRIPSkq_cNoT-20" value="&lt;strong data-start=&quot;3858&quot; data-end=&quot;3894&quot;&gt;jumlah nilai rating yang mungkin&lt;/strong&gt; atau &lt;strong data-start=&quot;3900&quot; data-end=&quot;3923&quot;&gt;jumlah kelas rating&lt;/strong&gt; yang dapat diberikan oleh pengguna." style="text;whiteSpace=wrap;html=1;" vertex="1" parent="1">
          <mxGeometry x="610" y="760" width="560" height="50" as="geometry" />
        </mxCell>
        <mxCell id="JrayNG33wRIPSkq_cNoT-82" style="edgeStyle=orthogonalEdgeStyle;rounded=0;orthogonalLoop=1;jettySize=auto;html=1;exitX=1;exitY=0.5;exitDx=0;exitDy=0;" edge="1" parent="1" source="JrayNG33wRIPSkq_cNoT-28">
          <mxGeometry relative="1" as="geometry">
            <mxPoint x="450" y="1019.8571428571431" as="targetPoint" />
          </mxGeometry>
        </mxCell>
        <mxCell id="JrayNG33wRIPSkq_cNoT-28" value="INPUT" style="swimlane;whiteSpace=wrap;html=1;" vertex="1" parent="1">
          <mxGeometry x="200" y="920" width="200" height="200" as="geometry">
            <mxRectangle x="100" y="920" width="140" height="30" as="alternateBounds" />
          </mxGeometry>
        </mxCell>
        <mxCell id="JrayNG33wRIPSkq_cNoT-29" value="Rui" style="rounded=0;whiteSpace=wrap;html=1;fontStyle=1;fontSize=32;" vertex="1" parent="JrayNG33wRIPSkq_cNoT-28">
          <mxGeometry x="40" y="40" width="120" height="60" as="geometry" />
        </mxCell>
        <mxCell id="JrayNG33wRIPSkq_cNoT-30" value="alpha" style="rounded=0;whiteSpace=wrap;html=1;fontStyle=1;fontSize=32;" vertex="1" parent="JrayNG33wRIPSkq_cNoT-28">
          <mxGeometry x="40" y="110" width="120" height="60" as="geometry" />
        </mxCell>
        <mxCell id="JrayNG33wRIPSkq_cNoT-31" value="Start" style="rounded=1;whiteSpace=wrap;arcSize=50;strokeWidth=2;" vertex="1" parent="1">
          <mxGeometry x="4678" y="230" width="60" height="39" as="geometry" />
        </mxCell>
        <mxCell id="JrayNG33wRIPSkq_cNoT-32" value="Initialize Variables" style="whiteSpace=wrap;strokeWidth=2;" vertex="1" parent="1">
          <mxGeometry x="4612" y="319" width="192" height="54" as="geometry" />
        </mxCell>
        <mxCell id="JrayNG33wRIPSkq_cNoT-33" value="For each user u" style="shape=parallelogram;perimeter=parallelogramPerimeter;fixedSize=1;strokeWidth=2;whiteSpace=wrap;" vertex="1" parent="1">
          <mxGeometry x="4626" y="423" width="164" height="39" as="geometry" />
        </mxCell>
        <mxCell id="JrayNG33wRIPSkq_cNoT-34" value="For each item i rated by user u" style="shape=parallelogram;perimeter=parallelogramPerimeter;fixedSize=1;strokeWidth=2;whiteSpace=wrap;" vertex="1" parent="1">
          <mxGeometry x="4142" y="572" width="278" height="63" as="geometry" />
        </mxCell>
        <mxCell id="JrayNG33wRIPSkq_cNoT-35" value="y ← r_{u,i}" style="whiteSpace=wrap;strokeWidth=2;" vertex="1" parent="1">
          <mxGeometry x="3552" y="749" width="139" height="54" as="geometry" />
        </mxCell>
        <mxCell id="JrayNG33wRIPSkq_cNoT-36" value="Update pup_{u,y} = (uc_u * pup_{u,y} + 1) / (uc_u + 1)" style="whiteSpace=wrap;strokeWidth=2;" vertex="1" parent="1">
          <mxGeometry x="3050" y="857" width="260" height="78" as="geometry" />
        </mxCell>
        <mxCell id="JrayNG33wRIPSkq_cNoT-37" value="Update uc_u = uc_u + 1" style="whiteSpace=wrap;strokeWidth=2;" vertex="1" parent="1">
          <mxGeometry x="3360" y="869" width="229" height="54" as="geometry" />
        </mxCell>
        <mxCell id="JrayNG33wRIPSkq_cNoT-38" value="Update pip_{i,y} = (ic_i * pip_{i,y} + 1) / (ic_i + 1)" style="whiteSpace=wrap;strokeWidth=2;" vertex="1" parent="1">
          <mxGeometry x="3639" y="857" width="260" height="78" as="geometry" />
        </mxCell>
        <mxCell id="JrayNG33wRIPSkq_cNoT-39" value="Update ic_i = ic_i + 1" style="whiteSpace=wrap;strokeWidth=2;" vertex="1" parent="1">
          <mxGeometry x="3949" y="869" width="212" height="54" as="geometry" />
        </mxCell>
        <mxCell id="JrayNG33wRIPSkq_cNoT-40" value="For each item j rated by user u" style="shape=parallelogram;perimeter=parallelogramPerimeter;fixedSize=1;strokeWidth=2;whiteSpace=wrap;" vertex="1" parent="1">
          <mxGeometry x="4142" y="744" width="278" height="63" as="geometry" />
        </mxCell>
        <mxCell id="JrayNG33wRIPSkq_cNoT-41" value="k ← r_{u,j}" style="whiteSpace=wrap;strokeWidth=2;" vertex="1" parent="1">
          <mxGeometry x="4210" y="869" width="141" height="54" as="geometry" />
        </mxCell>
        <mxCell id="JrayNG33wRIPSkq_cNoT-42" value="Update cip_{j,k,i,y} = (ijc_{j,i,y} * cip_{j,k,i,y} + 1) / (ijc_{j,i,y} + 1)" style="whiteSpace=wrap;strokeWidth=2;" vertex="1" parent="1">
          <mxGeometry x="3996" y="985" width="260" height="102" as="geometry" />
        </mxCell>
        <mxCell id="JrayNG33wRIPSkq_cNoT-43" value="Update ijc_{j,i,y} = ijc_{j,i,y} + 1" style="whiteSpace=wrap;strokeWidth=2;" vertex="1" parent="1">
          <mxGeometry x="4306" y="997" width="260" height="78" as="geometry" />
        </mxCell>
        <mxCell id="JrayNG33wRIPSkq_cNoT-44" value="For each user v that rated item i" style="shape=parallelogram;perimeter=parallelogramPerimeter;fixedSize=1;strokeWidth=2;whiteSpace=wrap;" vertex="1" parent="1">
          <mxGeometry x="4762" y="744" width="278" height="63" as="geometry" />
        </mxCell>
        <mxCell id="JrayNG33wRIPSkq_cNoT-45" value="k ← r_{v,i}" style="whiteSpace=wrap;strokeWidth=2;" vertex="1" parent="1">
          <mxGeometry x="4833" y="869" width="136" height="54" as="geometry" />
        </mxCell>
        <mxCell id="JrayNG33wRIPSkq_cNoT-46" value="Update cup_{v,k,u,y} = (uvc_{v,u,y} * cup_{v,k,u,y} + 1) / (uvc_{v,u,y} + 1)" style="whiteSpace=wrap;strokeWidth=2;" vertex="1" parent="1">
          <mxGeometry x="4616" y="985" width="260" height="102" as="geometry" />
        </mxCell>
        <mxCell id="JrayNG33wRIPSkq_cNoT-47" value="Update uvc_{v,u,y} = uvc_{v,u,y} + 1" style="whiteSpace=wrap;strokeWidth=2;" vertex="1" parent="1">
          <mxGeometry x="4926" y="997" width="260" height="78" as="geometry" />
        </mxCell>
        <mxCell id="JrayNG33wRIPSkq_cNoT-48" value="More users?" style="rhombus;strokeWidth=2;whiteSpace=wrap;" vertex="1" parent="1">
          <mxGeometry x="5047" y="535" width="136" height="136" as="geometry" />
        </mxCell>
        <mxCell id="JrayNG33wRIPSkq_cNoT-49" value="End" style="rounded=1;whiteSpace=wrap;arcSize=50;strokeWidth=2;" vertex="1" parent="1">
          <mxGeometry x="5090" y="756" width="51" height="39" as="geometry" />
        </mxCell>
        <mxCell id="JrayNG33wRIPSkq_cNoT-50" value="" style="curved=1;startArrow=none;endArrow=block;exitX=0.5;exitY=1;entryX=0.5;entryY=0;rounded=0;" edge="1" parent="1" source="JrayNG33wRIPSkq_cNoT-31" target="JrayNG33wRIPSkq_cNoT-32">
          <mxGeometry relative="1" as="geometry">
            <Array as="points" />
          </mxGeometry>
        </mxCell>
        <mxCell id="JrayNG33wRIPSkq_cNoT-51" value="" style="curved=1;startArrow=none;endArrow=block;exitX=0.5;exitY=1;entryX=0.5;entryY=0;rounded=0;" edge="1" parent="1" source="JrayNG33wRIPSkq_cNoT-32" target="JrayNG33wRIPSkq_cNoT-33">
          <mxGeometry relative="1" as="geometry">
            <Array as="points" />
          </mxGeometry>
        </mxCell>
        <mxCell id="JrayNG33wRIPSkq_cNoT-52" value="" style="curved=1;startArrow=none;endArrow=block;exitX=0;exitY=0.78;entryX=0.5;entryY=-0.01;rounded=0;" edge="1" parent="1" source="JrayNG33wRIPSkq_cNoT-33" target="JrayNG33wRIPSkq_cNoT-34">
          <mxGeometry relative="1" as="geometry">
            <Array as="points">
              <mxPoint x="4281" y="499" />
            </Array>
          </mxGeometry>
        </mxCell>
        <mxCell id="JrayNG33wRIPSkq_cNoT-53" value="" style="curved=1;startArrow=none;endArrow=block;exitX=0;exitY=0.84;entryX=0.5;entryY=-0.01;rounded=0;" edge="1" parent="1" source="JrayNG33wRIPSkq_cNoT-34" target="JrayNG33wRIPSkq_cNoT-35">
          <mxGeometry relative="1" as="geometry">
            <Array as="points">
              <mxPoint x="3621" y="708" />
            </Array>
          </mxGeometry>
        </mxCell>
        <mxCell id="JrayNG33wRIPSkq_cNoT-54" value="" style="curved=1;startArrow=none;endArrow=block;exitX=0;exitY=0.66;entryX=0.5;entryY=0;rounded=0;" edge="1" parent="1" source="JrayNG33wRIPSkq_cNoT-35" target="JrayNG33wRIPSkq_cNoT-36">
          <mxGeometry relative="1" as="geometry">
            <Array as="points">
              <mxPoint x="3180" y="832" />
            </Array>
          </mxGeometry>
        </mxCell>
        <mxCell id="JrayNG33wRIPSkq_cNoT-55" value="" style="curved=1;startArrow=none;endArrow=block;exitX=0;exitY=0.99;entryX=0.5;entryY=0;rounded=0;" edge="1" parent="1" source="JrayNG33wRIPSkq_cNoT-35" target="JrayNG33wRIPSkq_cNoT-37">
          <mxGeometry relative="1" as="geometry">
            <Array as="points">
              <mxPoint x="3474" y="832" />
            </Array>
          </mxGeometry>
        </mxCell>
        <mxCell id="JrayNG33wRIPSkq_cNoT-56" value="" style="curved=1;startArrow=none;endArrow=block;exitX=1;exitY=0.99;entryX=0.5;entryY=0;rounded=0;" edge="1" parent="1" source="JrayNG33wRIPSkq_cNoT-35" target="JrayNG33wRIPSkq_cNoT-38">
          <mxGeometry relative="1" as="geometry">
            <Array as="points">
              <mxPoint x="3769" y="832" />
            </Array>
          </mxGeometry>
        </mxCell>
        <mxCell id="JrayNG33wRIPSkq_cNoT-57" value="" style="curved=1;startArrow=none;endArrow=block;exitX=1;exitY=0.66;entryX=0.5;entryY=0;rounded=0;" edge="1" parent="1" source="JrayNG33wRIPSkq_cNoT-35" target="JrayNG33wRIPSkq_cNoT-39">
          <mxGeometry relative="1" as="geometry">
            <Array as="points">
              <mxPoint x="4054" y="832" />
            </Array>
          </mxGeometry>
        </mxCell>
        <mxCell id="JrayNG33wRIPSkq_cNoT-58" value="" style="curved=1;startArrow=none;endArrow=block;exitX=0.5;exitY=0.99;entryX=0.5;entryY=0;rounded=0;" edge="1" parent="1" source="JrayNG33wRIPSkq_cNoT-34" target="JrayNG33wRIPSkq_cNoT-40">
          <mxGeometry relative="1" as="geometry">
            <Array as="points" />
          </mxGeometry>
        </mxCell>
        <mxCell id="JrayNG33wRIPSkq_cNoT-59" value="" style="curved=1;startArrow=none;endArrow=block;exitX=0.5;exitY=1;entryX=0.5;entryY=0;rounded=0;" edge="1" parent="1" source="JrayNG33wRIPSkq_cNoT-40" target="JrayNG33wRIPSkq_cNoT-41">
          <mxGeometry relative="1" as="geometry">
            <Array as="points" />
          </mxGeometry>
        </mxCell>
        <mxCell id="JrayNG33wRIPSkq_cNoT-60" value="" style="curved=1;startArrow=none;endArrow=block;exitX=0.04;exitY=1;entryX=0.5;entryY=0;rounded=0;" edge="1" parent="1" source="JrayNG33wRIPSkq_cNoT-41" target="JrayNG33wRIPSkq_cNoT-42">
          <mxGeometry relative="1" as="geometry">
            <Array as="points">
              <mxPoint x="4126" y="960" />
            </Array>
          </mxGeometry>
        </mxCell>
        <mxCell id="JrayNG33wRIPSkq_cNoT-61" value="" style="curved=1;startArrow=none;endArrow=block;exitX=0.96;exitY=1;entryX=0.5;entryY=0;rounded=0;" edge="1" parent="1" source="JrayNG33wRIPSkq_cNoT-41" target="JrayNG33wRIPSkq_cNoT-43">
          <mxGeometry relative="1" as="geometry">
            <Array as="points">
              <mxPoint x="4436" y="960" />
            </Array>
          </mxGeometry>
        </mxCell>
        <mxCell id="JrayNG33wRIPSkq_cNoT-62" value="" style="curved=1;startArrow=none;endArrow=block;exitX=1;exitY=0.87;entryX=0.5;entryY=0;rounded=0;" edge="1" parent="1" source="JrayNG33wRIPSkq_cNoT-34" target="JrayNG33wRIPSkq_cNoT-44">
          <mxGeometry relative="1" as="geometry">
            <Array as="points">
              <mxPoint x="4901" y="708" />
            </Array>
          </mxGeometry>
        </mxCell>
        <mxCell id="JrayNG33wRIPSkq_cNoT-63" value="" style="curved=1;startArrow=none;endArrow=block;exitX=0.5;exitY=1;entryX=0.5;entryY=0;rounded=0;" edge="1" parent="1" source="JrayNG33wRIPSkq_cNoT-44" target="JrayNG33wRIPSkq_cNoT-45">
          <mxGeometry relative="1" as="geometry">
            <Array as="points" />
          </mxGeometry>
        </mxCell>
        <mxCell id="JrayNG33wRIPSkq_cNoT-64" value="" style="curved=1;startArrow=none;endArrow=block;exitX=0.02;exitY=1;entryX=0.5;entryY=0;rounded=0;" edge="1" parent="1" source="JrayNG33wRIPSkq_cNoT-45" target="JrayNG33wRIPSkq_cNoT-46">
          <mxGeometry relative="1" as="geometry">
            <Array as="points">
              <mxPoint x="4746" y="960" />
            </Array>
          </mxGeometry>
        </mxCell>
        <mxCell id="JrayNG33wRIPSkq_cNoT-65" value="" style="curved=1;startArrow=none;endArrow=block;exitX=0.98;exitY=1;entryX=0.5;entryY=0;rounded=0;" edge="1" parent="1" source="JrayNG33wRIPSkq_cNoT-45" target="JrayNG33wRIPSkq_cNoT-47">
          <mxGeometry relative="1" as="geometry">
            <Array as="points">
              <mxPoint x="5056" y="960" />
            </Array>
          </mxGeometry>
        </mxCell>
        <mxCell id="JrayNG33wRIPSkq_cNoT-66" value="" style="curved=1;startArrow=none;endArrow=block;exitX=1;exitY=0.91;entryX=0;entryY=0.06;rounded=0;" edge="1" parent="1" source="JrayNG33wRIPSkq_cNoT-33" target="JrayNG33wRIPSkq_cNoT-48">
          <mxGeometry relative="1" as="geometry">
            <Array as="points">
              <mxPoint x="4997" y="499" />
            </Array>
          </mxGeometry>
        </mxCell>
        <mxCell id="JrayNG33wRIPSkq_cNoT-67" value="Yes" style="curved=1;startArrow=none;endArrow=block;exitX=0.58;exitY=0;entryX=1;entryY=0.78;rounded=0;" edge="1" parent="1" source="JrayNG33wRIPSkq_cNoT-48" target="JrayNG33wRIPSkq_cNoT-33">
          <mxGeometry relative="1" as="geometry">
            <Array as="points">
              <mxPoint x="5132" y="499" />
            </Array>
          </mxGeometry>
        </mxCell>
        <mxCell id="JrayNG33wRIPSkq_cNoT-68" value="No" style="curved=1;startArrow=none;endArrow=block;exitX=0.5;exitY=1;entryX=0.49;entryY=0.01;rounded=0;" edge="1" parent="1" source="JrayNG33wRIPSkq_cNoT-48" target="JrayNG33wRIPSkq_cNoT-49">
          <mxGeometry relative="1" as="geometry">
            <Array as="points" />
          </mxGeometry>
        </mxCell>
        <mxCell id="JrayNG33wRIPSkq_cNoT-119" style="edgeStyle=orthogonalEdgeStyle;rounded=0;orthogonalLoop=1;jettySize=auto;html=1;exitX=1;exitY=0.5;exitDx=0;exitDy=0;entryX=0;entryY=0.5;entryDx=0;entryDy=0;" edge="1" parent="1" source="JrayNG33wRIPSkq_cNoT-69" target="JrayNG33wRIPSkq_cNoT-113">
          <mxGeometry relative="1" as="geometry" />
        </mxCell>
        <mxCell id="JrayNG33wRIPSkq_cNoT-69" value="PROCESS" style="swimlane;whiteSpace=wrap;html=1;" vertex="1" parent="1">
          <mxGeometry x="450" y="923" width="1275.15" height="1270" as="geometry" />
        </mxCell>
        <mxCell id="JrayNG33wRIPSkq_cNoT-71" value="Initialize variable" style="swimlane;whiteSpace=wrap;html=1;" vertex="1" parent="JrayNG33wRIPSkq_cNoT-69">
          <mxGeometry x="30" y="47" width="270" height="383" as="geometry">
            <mxRectangle x="30" y="47" width="130" height="30" as="alternateBounds" />
          </mxGeometry>
        </mxCell>
        <mxCell id="JrayNG33wRIPSkq_cNoT-72" value="PUPu,y" style="rounded=0;whiteSpace=wrap;html=1;fontStyle=1;fontSize=32;" vertex="1" parent="JrayNG33wRIPSkq_cNoT-71">
          <mxGeometry x="10" y="27" width="120" height="60" as="geometry" />
        </mxCell>
        <mxCell id="JrayNG33wRIPSkq_cNoT-73" value="PIPi,y" style="rounded=0;whiteSpace=wrap;html=1;fontStyle=1;fontSize=32;" vertex="1" parent="JrayNG33wRIPSkq_cNoT-71">
          <mxGeometry x="10" y="97" width="120" height="60" as="geometry" />
        </mxCell>
        <mxCell id="JrayNG33wRIPSkq_cNoT-74" value="&lt;font style=&quot;font-size: 21px;&quot;&gt;CUPv,k,u,y&lt;/font&gt;" style="rounded=0;whiteSpace=wrap;html=1;fontStyle=1;fontSize=32;" vertex="1" parent="JrayNG33wRIPSkq_cNoT-71">
          <mxGeometry x="10" y="167" width="120" height="60" as="geometry" />
        </mxCell>
        <mxCell id="JrayNG33wRIPSkq_cNoT-75" value="&lt;font style=&quot;font-size: 21px;&quot;&gt;CIPj,k,i,y&lt;/font&gt;" style="rounded=0;whiteSpace=wrap;html=1;fontStyle=1;fontSize=32;" vertex="1" parent="JrayNG33wRIPSkq_cNoT-71">
          <mxGeometry x="10" y="237" width="120" height="60" as="geometry" />
        </mxCell>
        <mxCell id="JrayNG33wRIPSkq_cNoT-76" value="&lt;font style=&quot;font-size: 27px;&quot;&gt;&lt;strong style=&quot;&quot; data-end=&quot;627&quot; data-start=&quot;618&quot;&gt;(ucu)&lt;/strong&gt;:&lt;/font&gt;" style="rounded=0;whiteSpace=wrap;html=1;" vertex="1" parent="JrayNG33wRIPSkq_cNoT-71">
          <mxGeometry x="140" y="27" width="120" height="60" as="geometry" />
        </mxCell>
        <mxCell id="JrayNG33wRIPSkq_cNoT-77" value="&lt;font style=&quot;font-size: 27px;&quot;&gt;&lt;strong style=&quot;&quot; data-end=&quot;627&quot; data-start=&quot;618&quot;&gt;(ici)&lt;/strong&gt;:&lt;/font&gt;" style="rounded=0;whiteSpace=wrap;html=1;" vertex="1" parent="JrayNG33wRIPSkq_cNoT-71">
          <mxGeometry x="140" y="97" width="120" height="60" as="geometry" />
        </mxCell>
        <mxCell id="JrayNG33wRIPSkq_cNoT-78" value="(ijcj,i,y)" style="rounded=0;whiteSpace=wrap;html=1;fontSize=23;fontStyle=1" vertex="1" parent="JrayNG33wRIPSkq_cNoT-71">
          <mxGeometry x="140" y="167" width="120" height="60" as="geometry" />
        </mxCell>
        <mxCell id="JrayNG33wRIPSkq_cNoT-79" value="(uvcv,u,y)" style="rounded=0;whiteSpace=wrap;html=1;fontSize=23;fontStyle=1" vertex="1" parent="JrayNG33wRIPSkq_cNoT-71">
          <mxGeometry x="140" y="237" width="120" height="60" as="geometry" />
        </mxCell>
        <mxCell id="JrayNG33wRIPSkq_cNoT-80" value="&lt;font style=&quot;font-size: 23px;&quot;&gt;&lt;b&gt;#R&lt;/b&gt;&lt;/font&gt;" style="rounded=0;whiteSpace=wrap;html=1;" vertex="1" parent="JrayNG33wRIPSkq_cNoT-71">
          <mxGeometry x="10" y="310" width="120" height="60" as="geometry" />
        </mxCell>
        <mxCell id="JrayNG33wRIPSkq_cNoT-81" value="alpha" style="rounded=0;whiteSpace=wrap;html=1;fontStyle=1;fontSize=32;" vertex="1" parent="JrayNG33wRIPSkq_cNoT-71">
          <mxGeometry x="140" y="310" width="120" height="60" as="geometry" />
        </mxCell>
        <mxCell id="JrayNG33wRIPSkq_cNoT-83" value="Vertical Container" style="swimlane;whiteSpace=wrap;html=1;" vertex="1" parent="JrayNG33wRIPSkq_cNoT-69">
          <mxGeometry x="380" y="47" width="850" height="1183" as="geometry" />
        </mxCell>
        <mxCell id="JrayNG33wRIPSkq_cNoT-87" style="edgeStyle=orthogonalEdgeStyle;rounded=0;orthogonalLoop=1;jettySize=auto;html=1;exitX=1;exitY=0.5;exitDx=0;exitDy=0;" edge="1" parent="JrayNG33wRIPSkq_cNoT-83" source="JrayNG33wRIPSkq_cNoT-85" target="JrayNG33wRIPSkq_cNoT-86">
          <mxGeometry relative="1" as="geometry" />
        </mxCell>
        <mxCell id="JrayNG33wRIPSkq_cNoT-105" style="edgeStyle=orthogonalEdgeStyle;rounded=0;orthogonalLoop=1;jettySize=auto;html=1;entryX=0.5;entryY=0;entryDx=0;entryDy=0;" edge="1" parent="JrayNG33wRIPSkq_cNoT-83" source="JrayNG33wRIPSkq_cNoT-85" target="JrayNG33wRIPSkq_cNoT-106">
          <mxGeometry relative="1" as="geometry">
            <mxPoint x="140" y="1191.4285714285716" as="targetPoint" />
          </mxGeometry>
        </mxCell>
        <mxCell id="JrayNG33wRIPSkq_cNoT-85" value="For each user u" style="shape=hexagon;perimeter=hexagonPerimeter2;whiteSpace=wrap;html=1;fixedSize=1;" vertex="1" parent="JrayNG33wRIPSkq_cNoT-83">
          <mxGeometry x="80" y="170" width="120" height="50" as="geometry" />
        </mxCell>
        <mxCell id="JrayNG33wRIPSkq_cNoT-89" style="edgeStyle=orthogonalEdgeStyle;rounded=0;orthogonalLoop=1;jettySize=auto;html=1;exitX=1;exitY=0.5;exitDx=0;exitDy=0;" edge="1" parent="JrayNG33wRIPSkq_cNoT-83" source="JrayNG33wRIPSkq_cNoT-86" target="JrayNG33wRIPSkq_cNoT-88">
          <mxGeometry relative="1" as="geometry" />
        </mxCell>
        <mxCell id="JrayNG33wRIPSkq_cNoT-103" style="edgeStyle=orthogonalEdgeStyle;rounded=0;orthogonalLoop=1;jettySize=auto;html=1;" edge="1" parent="JrayNG33wRIPSkq_cNoT-83" source="JrayNG33wRIPSkq_cNoT-86">
          <mxGeometry relative="1" as="geometry">
            <mxPoint x="150" y="230" as="targetPoint" />
            <Array as="points">
              <mxPoint x="265" y="1020" />
              <mxPoint x="151" y="1020" />
              <mxPoint x="151" y="220" />
              <mxPoint x="150" y="220" />
            </Array>
          </mxGeometry>
        </mxCell>
        <mxCell id="JrayNG33wRIPSkq_cNoT-86" value="For each item i rated by user u" style="shape=hexagon;perimeter=hexagonPerimeter2;whiteSpace=wrap;html=1;fixedSize=1;" vertex="1" parent="JrayNG33wRIPSkq_cNoT-83">
          <mxGeometry x="190" y="270" width="150" height="50" as="geometry" />
        </mxCell>
        <mxCell id="JrayNG33wRIPSkq_cNoT-93" value="" style="edgeStyle=orthogonalEdgeStyle;rounded=0;orthogonalLoop=1;jettySize=auto;html=1;" edge="1" parent="JrayNG33wRIPSkq_cNoT-83" source="JrayNG33wRIPSkq_cNoT-88" target="JrayNG33wRIPSkq_cNoT-92">
          <mxGeometry relative="1" as="geometry" />
        </mxCell>
        <mxCell id="JrayNG33wRIPSkq_cNoT-88" value="Hitung Prior" style="swimlane;whiteSpace=wrap;html=1;" vertex="1" parent="JrayNG33wRIPSkq_cNoT-83">
          <mxGeometry x="350" y="327" width="210" height="153" as="geometry" />
        </mxCell>
        <mxCell id="JrayNG33wRIPSkq_cNoT-91" value="" style="shape=image;verticalLabelPosition=bottom;labelBackgroundColor=default;verticalAlign=top;aspect=fixed;imageAspect=0;image=data:image/png,iVBORw0KGgoAAAANSUhEUgAAARcAAACdCAYAAACejzzeAAAAAXNSR0IArs4c6QAAAARnQU1BAACxjwv8YQUAAAAJcEhZcwAADsMAAA7DAcdvqGQAAE7SSURBVHhe7Z15fEzn98c/s89kJpHIIiEImhBRSyKyCFJa1FK0tRXfqi602u8X3VuqrS6qtfenRTepKlL7vu8EqTWIhCAJiUQWmXtn7p07M+f3R/bJYrIg4b5fr/t6cZfnPjlz77nnOc9zzpEQEUFERKQGGJB2JRlcg6Zo3MCCG9t+xQauF8YPaw8nie25jw8SUbmIiNQM5sRXGDD4B1x2j8CgZ9qjWeAQvPpiMBopbc98vJDa7hAREakaClcftGraEEpI0TBkJMa/2PmxVywQLRcRkdrADCPLwQIpFCoHqOS2xx9P6pVysQgWyBQy290iIiJ1kOoNiywCBBMPjjPCwLJgTLYnWGFkGbAGHrWmuQxXceRQHDIE2wP3CwvMggkmnoPRYADLFv4lFpiMLBjGAM5qc4mIiEgR1VAuAtJPbcIfc2fg/defxzPhYRj+wzGwJc4wp+3Ap88GIXTYd9iTU/M30Gq6g2OLv8ayOCt0Ctuj9wMCdzMWm5f/hO/efQMjBj6FPp9sRJrVAiZhG74b0wOBXQZh2uY0mG0vFRERAaqnXGRo6NsDg156Ad29zbh+OR77V6/G4dwSp1iMyMvNwJW9K7Dx1N0SB6oKwWxIxoH57+DTfU0wbEQHONiecl+QQObUHJ27BcH5xn7sOnwVquZ+0CRtxqxPvsbKmAQkJ53EnpjEUkpVRESkmGooFymUDRrCw7sDnn/vQ7z8pAqmhJ3Yciyn6Ay59yDM/GMWBvs0gFM1TQ0ym8DePIllH7yMd9Y4YNSM99DboxrdrSYKRw80aeWLRg4Es6IJgtvlYv3vx9Dsg3+w7sf38NKwVzDhuQ5wtL2wBggGFozhgY37RETuK9V7WyUSQCKFzDUczw18Eg7Cdezb8y/yik6Qwa1tIAK69EJXP12pSyuHYDWbwLO3cXbtDIzqNxTfJwRh2pLvMKqdDlaLBZYabbb3qwwpJGwSzifmQuIaAIdTG3EtYCxGBTeB38AP8X+Lv8XYkAbVFGA5cAmIeiMSka/9gQTO9qCISP2jxrNFzKFP0K3f97jS5kPs3PcVwgp0iXDpF0zf4IOPPnoaTrYXVYCQm4Tj21ZhedQKbDx6DXzjPpgwZSiCPDSojTkipXswngpvDLXtgQowxc9F/64f4FTTnniuzwv43/Q30PF+jcvYWHw9cBB+tEzA+i3TEFIVnSwiUgepsXJBzha8FfwilmaH4ptD2/F+gAoAi5h53+Jo6CeYEmrn28glYf1XkzA9KgYpuQwYowCSquHU0BGqWlpC3bD3POz4bRia2GVuWJD86zB0eXMzmIaRePfPv/HFMw1tTyoBgSBB9bpKICIYMlKRCVf4NNLaniAiUu+ouXKx3MSyEZ3x+gYJhvwei79HNQbSNuOHX+/i+Y9G4YkqLCgycyxykmOxfeVSLPptK6469cb7sz/H6EBPaGrDdJE4wbmBXZoFoAz8My4Yo5bfguPTM7Fr3bvoVI7JQ2YBJt4EI5MLauAFF3VB+2QAw1oh0+mgsb2oFFZwd+8gPSUZqZkM3DpGoI1LFYQmIlJXoRrD0YXvI8lFrqWA9w5RHrF0/P+m0Q97cm1PtA+rhQTeQJkXN9HM0WHk164PfRR9gXIttifeZ3J20H/baEiuak6j/kgis+1xIiJzLl3auoDe7uFHnj6DaWkCX3DASrfXjKcOXkH0yb57yMF4gw6t+JqGtXMjp+Yj6c/rgu0ZIiL1Ejs/45WhQtPQLmiq4pERn4g7CRuwNd0XA7s1sD3RPiRSyJUauPk/i8lL1mHFlFY4OuO/+GpjEh6kn5ONP4SjNwXIvHrhuT4+5ft8ZA3Q+ulBCHTWg3Vrj/aNCwJKLKnYuX4bLssD0MH/Hh4ndTOE9gmDl8QIWctAdPIUrRaRR4NaUC6AzjcQAc4SGK7F4K+Vl+E+YAj8qjcDXQIZlJpGCBwzC1GzeyF18VeIiuNtT7pP8Lh++AiuGqVo1P0ZdPOo2JMiMSbhQiILz5BQ+Ba4SoTErVi/Kw2OHcMR7FrxtYVYbp/G+VQpWnbtCh+V7VERkfpJrSgXSYMAdPTRgr+yBSck3TAsuPamOiRyLZr3nISZb3khNno/Mmq+4PfemG/h8OE46KXu6Pp0N1S2vMZ49ShibukQGNoBDQCAsnDgr9+x844WbSPC4XVPQ8SCjJgjuMA3RliEP0RXrsijQiWvTRVQe8LPWwddwPN4ZWwPuN/7Y101pBo07/cRpr8ahNpTWxVjzTqPs5ctcGzeDc/08Cx/SAQAEHAr5iguS9siLNgNUgBs3E7sO3IbpPZBeHiLe097Uw5iD/+LPNcQdOtYzaGkiEgdpHaUC5lhduyEsZ++hwFN7/mprh4yRzTxdoVD7fS4UqSNBuL7kzeQfOoXvNysYtUCysa/R89BaBGGEG8lwMRh29EMWJytIM9QdG2rg1DK0ipnYo65iGMn70DXqSuCXQni+lyRR4VaeFUJd09txXnvcZg0sBlq7GqpDGltm0QVIYFWp4NOp61cQPpLOPbvXbgHhsJXlY3Tmw7A0MoH5sQcuAR3Q3tLAi4mZiF/YTCHu1lZyGVLqw8+5QROpCrQpmsInNMvID7ZUOq4iEh9pdJ3pyLIWvwFNmccwz97THhq/AA0v6+ape4hZCYhPlMCF0cjTi5fij2yCPRrmYWLaTJ4ewEx286Dd3OBDIA+ZiYGtvdH+CtLcKnEtBebcgXXTR5o5XkH+/anQuFh56JDEZE6TtWViyENVxOuI5PlYcpLwJa/jkDX9yX0eAynUGVO3mgX4AX21CacdO6PcYM7wFnlDO/mTsg6expCp14Ids0XsVSlg5OjAhmHDyAuu3ispPZsgYBmhIQjF+Ha/Sm0uaeTRkSkflDFFboMTnw1AIN/uAz3iEF4pn0zBA55FS8GN8LjmTKUYGRZWCUyyJWagvSGVhgYA6wSOVRadYlhIg/D3UT8OWMNWk+bjsgi360JLGMCZEpoNMpqaHsRkbpJFZ9lBVx9WqFpQyUgbYiQkePxYufHVbEAgAQarQ5ah0LFAgBSOOh00JVSLACgBHflLMwBA9Cl1KSQElqdDlpRsYg8YlTRcgFgNoLlLIBUAZWDCo/fYKiacNdwcF8amkWGw6fyYCMRkbIQUM2o2IdG1ZWLSLURTBYolJVMbYuI2EIWCCYeDCuHc0NlvdIvoiX+ABEVi4gg2LuSiWA288iO346Fkwdh4KQNSHsQq9NrEVG5iIg8KLgb2L1qCy4z9x4skCEFJzf9hd+X/IyFyw8hscQMY31BVC4iBVB564frMPWtvwAM8Yj+8U+czr13zyUOTRE8cAwm/vcFBGiqlJ+1ziAql8ccMgvgWRa5t28ht2QhJjKAYRgYS54MALBA4HmYBAGCIMBg4GulvIrFbAJnNMDAMuABWEwcjAYGDMvCwBe/XPb21972HjQm3t5aXhLI5Qqo1FpI6pOjpQSicnmcsdzF5V0/473+gfAPfRtrUgrVBCFj3RRE+EXiq/0lSsNYeOQkHsRf82dhzk9/4M+lX+HNN6ZjbUKZqnhVw5yJc5v+D5+O7Itu4SMwd88Z7F06Fa8+F4mQzpEYNWMDEk1V6K+97YncV0Tl8jhTpWRXRiRt/xpjJ0aB7TEBk94ci+GRjZG1Pwo/rz9XxfpNhFIeBLk72g8cji4OKUhkpTBcS4DsmY/xy7qVmNGLxZ6FX2LBgRz7+2tveyL3FVG5PObYl+yKkHv0R/xv0ga4jv4I47q4Q61QwKF5JF77bAbeHRxQpWJ1fFYaUtNySw2nZHwqLiVkQZC4oV2P/ujh6woHx5YI6dwKGkMKLt24A5Pd/bW/PZH7h6hcHnPsSnbFx2HZdwtx2HUwxg5uDU2BD0CibY0BY/+DPn6aUusvKvUpGM5g4ahQdOwxHlGJxZkFTTeP49g1K9oMGYVnfLWQSQBAQF7WXQhQwc1ZB4W9/a1Ce0VU2umqwoNl2XI3AmAoZz/LsuX4t+o3onJ5rLEv2ZXh4nqsOZCDZj17IdAmJbBcqShapW0xc9DnZCCbLxz0EAwMg1JJJGSOaNS4CZo0aQJ3beG6HyuyYo8hzuSL3n27wKXwXMttxJ68CtYjDJGBbpDY2V/72wNgMYPT5yAjmy8aqpGBAVNR5guywCxwYBmmRO4dIxjWWKSf2NOL8WqvCERE2GwDpmLTpX2YNbRb2WM9hmHWwZqUPq6D2GbsFnmMsKbTqtFNqUHQNDrGEJH+PEX/PI8+HNKMtE9MoM1ZRCaLldLWvkiecg/q93sqlS7CYC2qimA1ptKRxWMpyCeCZhzLK2h+DY0P6kzv7coqdZVgYEjPGku0lU3bJvqR05Pv0+67xedxFxbRC14uFDx5E9222NvfqrRnpNQji2lskA9FzDhGeZR/jzXjg6jze7uodK+JiKxkuBlLG+ZOoJ4dBtKsWAMREeXum059e06i7bfz/yKrkE03k5Mp2XY7u4xeeLI3zYu5VvZYciplmKw29yOy3lpNAxrJyaP/Srr5oCtg1BDRcnmcsTPZFUmVkMICnmELEl/lf8GNd1KQlpP//Zaom6BNMxWMKn+093UEYMGNHeuwPcMPnQKcS94Vco0WOgd1sdnMXsaR4xlwC41AxwLLiPgb2LokCqf9xuPzKX3z8xjb2V+Lve1J1GjSphlURhX82/vCEYDlxg6s254Bv04BKN1r5AeqenVEv9cn4gWfc1i7/hRYAA26jsCL/moI1vzBoUTuAi9vb3jbbk08oJYp4N64adlj3o3hpihvzrlWx2sPFFG5PMbYl+yqIVzbRSC0iQkXd2xCbIYBHGdETuIurFgdi2x54dDGgGsnz4Fr1xWBzgAMZ7Hu7+0wtI9AiFvljxl/4wiOXpWhVdvWcDALEPhsnPnrWyxN6o4flnyCvt75Ay/7+usCs53tAYDh2kmc49qha36ncXbd39huaI+IkPxhVxkkMsi1bfDswEBk7N+PeCMAyOAR0h2BJZJHSySScrfKjtmqFotZAHc3C5wFICsDziTA/PCW6FSZcuUn8nhgb7IrZav/YMac99A9dwX+N2w03v7gMyzYJ0HYiP540rHgERLScCImHT7hwXCX8bhxaAe2xEnRJiIcTSrNUGhBxrGjuMA7QZF5EBvWrsJvPy7GLnoBc/74As/5ORY9pPb1l+xuDxCQdiIG6T7hCHaXgb9xCDu2xEHaJgLhlXZajibh3dAyZT8OJvPIPXcFEr8weNVm6JiQgfO7o7H0p/VIsOpgTdiARUtWY9f5jPqTZ9l2nPTgsJKlno0h7ydmU7k1He8zVjIwemJYA3FFhR4txOr1pGeMZCp5qsCTkWVIzxjIaDQSxwtU0kNgSV9Jo1sF0adH84hN2kurl0yhZ5p3pI8OZBf4QSrAmklrxjWnBh0+pn1ZAgmCiUw8R1y58rCjv1Vpz5JOK0e3oqBPj1Iem0R7Vy+hKc80p44fHaDswk4LHBmLb1YME0PTOz9Bo/7cT7u2HqWb5TRfhqztNKpjf1qRUplAijELJjJxDOn1etLrWeJNJhLsuU8dofqWi0WAiefBGY0wGFgwRgCggmXWLBiGhcHIlc5+TybwnBEGlkVu+jUkpjPFY/gCBIYBwzAlqivmh5zznBFGgwFs/o1Alvzl3SzDgDUYwZVOs1+/MFzFkUNxyHjgn6QqJLuSK6F20EKn1UCtVkOllJcy45mrZxAna4N2DRKw/YgB3o1MSFa2ha8kDkcuZpf5nYvQn8ORmGy4BIXgyYZyyOUKKJQqqBTlmQF29Lcq7TFXcSZOhjbtGiBh+xEYvBvBlKxEW18J4o5cRLaFx7UNP+CzH9aVynsMANC2QmCAFMc3HAPvG4TG5TRfHlqdrszwpyJkcgUUKi10Oh10OgcoFQoUjULrAdVULgLSY9dg0cxPMfE/z6Nvt3AMmX0Imdnx2Pnzh3i5fzcEdQxCz6Hv4pcjNwsWK1mQc2YdfvjgNfQLbw//gEh8uCWt9EPHncKc5/3R9InemHVUn3+n9FisWTQTn078D57v2w3hQ2bjUGY24nf+jA9f7o9uQR0R1HMo3v3lCG7Ww1VRVtMdHFv8NZbFWaGrzBKv40jkWrgpLmPjygQ07/00/BwkaCC9iQvJTmjv37D82k9WM+7GHcaRVAV8WvuixvF5VW1PIofWTYHLG1cioXlvPO3nAEkDKW5eSIZTe380lHFIObcb/yxdiM0XbeemdfDxD0WP3v0Q+YSduRgb9sGcbb9guHc1X7v6hq0pYy9Wk55un4miMX6OpNS0oDHzo2nBe5Pomz82095d0TRrTCA1UKnJqfUo+q2wuLqVJ2Pqehr7hIbkjkE0LYYp1SZ79HPq6iQnlc+rtC6zwOi2mkh/+wxFjfEjR6WGWoyZT9EL3qNJ3/xBm/fuouhZYyiwgYrUTq1p1G/XqRwDto5iJYG9QXtnjaCnBk4tmsasvxiJ0TNkNJoKhkss6fUMceVMr+Zjpuy4jfTd6E7k4dyIOr06h9bFphFve5rdVK89I6Mnxmikwm6yej0xXOHfQESGDDqxbD6tu5b/ZFnN+b+TOTeB9m/eS9eMhSeK2FJt5UJERNnb6DVfNSmc/enZ9xfQjqQ84gUzWSxmMib8Qv0byUkub0zDVt4sWtNgTvmdBnrISd3qTdqcXbKxPNrzYRDp5AryfOF3Sik1tsymba/5klrhTP7Pvk8LdiRRHi+Q2WIhszGBfunfiORyOTUeVj/WAlgFnpjU4/TLxEgKCBlHv5zJLeW/eGywCGQy6PN9CsZa8CfUdntExF7ZRdFb/qW7ViKyMJR0Jo5SslMpZstOOpdZfz5lD4Ma2WfG5NO4lGEGWV0Q1m8kerVwhFIug1Qqg9qtCZw1MgAcbucyRXEkeXGxiM+TwCUwFCWrl9KdA9i4+RI46BAQHgL3kna0MRmnL2XATFa4hPXDyF4t4KiUQyaVQqZ2QxNnDWQAuNu5YGoj/v++QLCaTeDZ2zi7dgZG9RuK7xOCMG3JdxjVTgerxQJLjTbb+9UDpHIoNLp8n4K6FvwJtd0eAI1PV/R/uhOcJADyYvHLu2Px5td7Ie3UDe3cxAzSlVGDHLoWJP/2IrqM3wIasBAHV49H6xI+A+utKAzq9Cq2Z7tiyJ+nsHJEY0jBImZaJHrPvIrgmUew9V1/qAAAJlz+9WU889Y/SFN1xMc79+PL0OKS7Jbk3/Bil/HYQgOw8OBqjC99I0QN6oRXt2fDdcifOLVyBBrXSGXeH4TcJBzftgrLo1Zg49Fr4Bv3wYQpQxHkka8Ya4rSPRhPhTe+d21qkRphZBiQQgW1SlFdh+VjQw2USxY2vB6M4csY9J1/FNFvPlFqdiFvzxSEPrcQiQ7P4PvD6zGptRLgL2JOvwh8eKI53t9+CN90zS8rT5m78e1rYzFz+22YfSZg7fGF6FtieWTWhtcRPHwZmL7zcTT6TTxR+kaYEvocFiY64JnvD2P9pNalS50Q4aFn2+GSsP6rSZgeFYOUXAaMUQBJ1XBq6AhVLXWtYe952PHbMDSx84m/ceMGOnbsaLtbpJ4QFhaGrVu32u6uU1RfuegP4+NuffHDrZ6Yf3gN3vIr+cbrse/THnhu1gW4DJ6H3SvehJ8CsKQuw/Dg17FZMxarTy7Bc64AkIOji+cheu92RK09A82IZfh32Qg0KnpJ9Dj8cTf0/eEWes4/jDVv+ZVSYvp9n6LHc7NwwWUw5u1egTf9FAAIZsEE3mQEk0to4OUCdUF7ZGDAWmXQ6Sqr72GGWbBAEMywWBXQ6YrVFc8ysEg1cNBUzd4wcyxykmOxfeVSLPptK6469cb7sz/H6EBPVLGp8pE4wbmBnZoFAMuyWLJkie1ukXqCj48PhgwZYru7bmHrhLEXLu57inSRk2vfBRRv45K33FxLEwM0pHDrRlP3ZBc5K+9seoNaquTUaPBvdMNMRGShjAPz6ONvl9HcEU1IKXejAT9dJRMRCYWOWS6Ovo90IblrX1pQ9ka0dmIAaRRu1G3qHsouuJE59xJtXfA29fDzJJ/BSymh8DLrbVozvgN5BX1C+3JLNlQaQ/IR+mfhxzSmZwAF9P+WjrMFB5hTNO+FYOrxzj+UUmqFmZ1YLSTwBsq8uIlmjg4jv3Z96KPoC5RbD5zQIiV4LL3vVcf+T10pLMg8EYNLjAN8u3ZF05LjEMrB8aifEX3dFZHvTMfbkS4Fi4YYJMacRIZFh9ZhneEhA0xpe7BsK4/ugzxx7XQ2rDp/dA1rDFnuFcQnZcEMwJJ5AjGXGDj4dkXX0jdCzvEo/Bx9Ha6R72D625FwKRhiyBq0xtODAuGsZ+HWvj2KE5btxPptlyEP6ICiBGvloGnaBYPeeA8Tn22G2wei8c+xvIIDPgjp7oucUxdxqzgVif1IpJArNXDzfxaTl6zDiimtcHTGf/HVxqQSiwZF6ixkgcAbkJNjqsfhhA+OaiqXXJyJOY1cmQfaB7cszkJm5XBr34/4cskFtBo7E/Mm9ywe3liycelsKjilF9q29wJln0H0/C1A37HogfM4myFA1aQTgr0ysHf5WpziNJADyD0Tg9O5Mni0D0bL4huBu7UPP365BBdajcXMeZPRs3gcBUACY9IFJLKeCAn1Rb5rWEDi1vXYleaIjuHBKEhYVgFyyJUN0XnoSPRukICdO2KRBwBSF4QMfx4D+3RAi2J/czWQQalphMAxsxA1uxdSF3+FqLjqaCuRGiEIdsbp1P8aQg+D6ikXJh7HTmTAomoED2fAZOLBc3lI2rsAUz7bgQZv/IrlM4ejrWOJN5jLxO1ME2DOQOzfMzDprfm43GU8JvTwAJd6DalGQGK5hV1zZuOAc18MaecAgEH8sRPIsKjQKP9G4HkOeUl7sWDKZ9jR4A38unwmhrd1tFlSbcTVozG4pQtEaIf8+W7KOoC/ft+JO9q2iAj3sqsMrcw7Ek+H6ZC0dw/iGAAgZF24i6ZhEXCrVDnZh0SuRfOekzDzLS/ERu9HhvjAPkA43Ni9ClsuM/e0Qh6FGkIPg2opFz7lOGJucFB7OCBl1feY+f0sfDt9GhYc1uGlhdH4dcrTaKmzeX01LRD8TBf4uDnAmG6C/+vT8OEgf+gkgPaJYPR40hsNpQyE1iMxcVh7OObfCMdjboBTe8AhZRW+n/k9Zn07HdMWHIbupYWI/nUKnm6pK6sohFuIOXoZ0rZhCHaTAmARt3MfjtwmqH3CEd7CzglbWSOEhbeDIikGx1J5QEjEoetqBEc0tDs+5J5INWje7yNMfzUI+XNnjxHVnEuoHQyIj/4Rf57OvadyeRRqCD0UbJ0w98ZMqcuGkqfCkTpNPUSZRo54niOOM5KBM5FQibPLyrGk1+uJYY3El1o9KZCB0ZOeYclYYrm4OXUZDfVUkGOnqXQo00gczxPHcWQ0cGSq5EbW9FU0umkDCpp2jPITlkXTz/M+pCHNtPTEhM2URabSGdUqboqYmM+os1Njeik6jW7uXkpLtxavNq5VLJV04pHCSoKJI4bJofTUbDKWEKaV1ZNen5/drRRmE3EcTyaTiUwmltjyopSrTBZtH9WR+q9Isfv3rM9Z4R4G1bBc8nAm5hRyJS7oENQGrmoVlEoVVCo1NCoF5JV80iUqB+h0Omgd1ChdNlkOjVYHndYB6hLZuPLOxOBUrgQuHYLQxlUNlVIJlUoFtUYFRSU30l86hn/vuiMw1Beq7NPYdMCAVj5mJOa4ILhbe1gSLiIxq+ALxN1FVlYu2AoG31q/EHR255Bwcj02JTghrGfj6pl790Ja8d/zKGG5exm7fn4P/QP9Efr2GhSXHsrAuikR8Iv8CqVLJeUg8eBfmD9rDn76408s/epNvDF9LWpaKknk/lP194SJx7Hjt2HWtULHtk61NzwoA4P4Y8dx26xDq45t85df24WAzKR4ZEpc4Gg8ieVL90AW0Q8tsy4iTeYNL8Rg23kebi4yAHrEzByI9v7heGXJpfJnbBwDEOgnQ/zWfyHp8iwC8pcUi1STKs3kGZOw/euxmBjFoseESXhz7HBENs7C/qifsf5c1SoliTx4qqxcTMkxiLnOQe7iC38PO0PNq4MpGTEx18HJXeDr71F61W2lyODk3Q4BXixObToJ5/7jMLiDM1TO3mjulIWzpwV06hUMVykASKHSOcFRkYHDB+JQrp9O7gwfn7boOWYchgU62h4VqTJ2zuRRLo7++D9M2uCK0R+NQxd3NRQKBzSPfA2fzXgXgwOqUilJ5GFQJeUimFhcOXQQcXpA7ekFN6kJpvJeyJoimMBeOYSD+TeCl5sUJrtvJIX7M19iy8kT2PLTBxjQriGUkKPJ4Hk4cOEUNswYiiedC80gLTq9sxrHd36NlwLcoS1HGtbsBKQ1H42pE8JQdJlIDbBvJo+PW4bvFh6G6+CxGNy6sC6SBNrWAzD2P33gV1g8Kb+FEv8uC19OjSCWZcHmFxEqu59lwT5qRYQeAuW8ThVgvIJdiz7BR/93GLxWB0nSNsz+ZhE2nasky1i1MOLKrkX45KP/w2FeC50kCdtmf4NFm84h294bSTTQ6rRw0KiKZ5KkBf4etU1GJiWHK2fNCBjQJb/IFggmnodgIVi5mzi69QLch4xEcCWL7kSqgF0zeQZcXL8GB3KaoWevQJQWvRxKRVGlJJg5PXIyslFcKskApmTRIfY0Fr/aq2ydoIgBmLrpEvbNGopuZY71wLBZB/GIVRF68Nh6eCvDxHP5+UoLNiPPE38/vOYmnji2+D56I0/8fbkRkTHpAG09co0K5yiseWfojy+m0cJ1+2j78qX0z4nbpXPJitQIu2byrGm09kVPknv0o99TbX53a1GlJDKmHqHFY4PIJ2IG5ZdKslL6mvEU1Pk9KiqVZBUo+6ZtjaBkSk4+S8teeJJ6z4uha2WOJVNqRomEUYVNibNFVcJ+ywWAQqnKz1dasKmVSiir1IKdKJRQORTfR6dWQnlfbgSoW4ShV4gPCsMYrfpk/LvjHyz/ax+YDs9jQGeP0rlkRWqEfTN5BKlSClh4MGyxuUoWI+6kpCG/VJIE6iZt0ExlhMq/PfJLJd3AjnXbkeHXCUWlkiRyuHjZ1gjyhrd3E3ioZVC4N0bTMse80dhNUc5kReXDL5HS3J83tl6hKDUtLmvcHzN3nsCeqE8wKKBhraVEEIH9M3kNXdEuIhRNTBexY1MsMgwcOGMOEnetwOrY7OIkUIZrOHmOQ7uugcgvlbQOf283oH1ECEqVSrKtD1SyTpDtvqKtxPWPQA2hh4GoXMoghYNWB61GVemaHZHqYO9MnhKt/jMDc97rjtwV/8Ow0W/jg88WYJ8kDCP6P4niUkknEJPug/Bgd8j4Gzi0YwvipG0QEd6kdq3NR6GG0EOg+vlcRESqAxnBslZIZHIoCx3uVgMYgxUSuaqUw91s4mASzCCpHDKJBFK5EsoijW/F7VUvo+v3zfHnvk/gGbsFuzcvxdd7gxC190tEuNwrU1w2dozuhYX9N2HjSO97nJtvuVgtJvACAZBCqVJAKq2dVJqPKveSqYhI7VKFmTy5Ul1gRaqhVqtKKBYAYHD1TBxkbdqhQcJ2HDF4o5EpGcq2vpDEHcFFe6YWtTro7LRO63sNoYeBqFxE6ikSyLVuUFzeiJUJzdH7aT84SBpAevMCkp3aw7/hvd78hugzZxt+GX5vq0WkeojDIpE6j1XgYVaoyq7S5lgwFhnkSlV+TJqBAUMKqBxUKBGiJvKQEJW2SJ3FKvAwZCfi4PLFWHOxnFgitRY6rbo42NVBB51WVCx1BVG5iNQcjgNXbtRnNRFM4O9ew7Hl0/BSr6cwZNIi7EsTw6DrG6JyEakhDE4tmYz/LTiKnNoYYJMBSfujMG/BH9h04CRi4m+D4YWionoi9QdRuYjUEBMyYndgW0waaiULsMQBLXqMweQPPsEXX4xDlxJVOUXqF7WkXAhWe4OW6zQWCHbMYN4PqD4L0GKG2VwbZks+EqUKSpUKKm0DcSFjPab6yoVM4DkjDCyL3PRrSExnykRHCwwDhmHKT8IEABYBJs4IjufB8zw4gxGmh2j/Gq4ewaG4B7XqkmDiORgNLNjcdFxLTAdTVoBgGAZMhQIELIIJnJEDz/PgeQ4Go0kcQojUCaqpXCzIObMOP3zwGvqFt4d/QCQ+3JJWWrlwpzDneX80faI3Zh3VlzwCgCAY7yB+31+YPfV9fDDtK3wzYyreHvM6Zqw9h7za+wjaiRWmO8ew+OtliLPqanfpeAVYcs5g3Q8f4LV+4WjvH4DID7cgrbQAcWrO8/Bv+gR6zzoKWwmCBBjvxGPfX7Mx9f0PMO2rbzBj6tsY8/oMrD2XJ4bYiTx8bMOk7cbKkzF1PY19QkNyxyCaFsOUOswe/Zy6OslJ5fMqrcssGbxuJeOtw7TotR4U1u9DWn0+g1iOIy7vPM3q5UFa7wG08BJX4vz7jFUg9sZemjXiKRo4dTvdfmCh9Fbijam0fuwTpJE7UtC0GColQfYofd7VieQqH3p1XWbp8H+rkW4dXkSv9Qijfh+upvMZLHEcR3nnZ1EvDy15D1hID06EWbTtpabkNTCa0mxzFNSUzA00xFNOclVLemV3tu1RkTpONS0XABIlFJSDrDwBco8uCPErWSVMj5gNm3DWIIFLUAQ6F5ZCBGBK3Y3vxo3Bl+cCMGn+NDwf4A4HlQoq4SZSbvKQCLm4q38Qhj3BbGJx8+QyfPDyO1jjMAoz3usNj+pLpIpIoFQQcrLyIMg90CXEryDlYz76mA3YdNYAiUsQIjoXVq0EABNSd3+HcWO+xLmASZg/7XkEuDtApVJBuJmCm7wEQu5dPBARiohUQo1epby4WMTnSeASGIqOJbz6dOcANm6+BA46BISHwL1wJbbpMlZ+9h7mHdJg0LsfYMgTWsgK35qGT+Hd5WuwduMyvN25RuUMK4esMJt4sLfPYu2MUeg39HskBE3Dku9GoZ3OCovFUrPN9n6VkReH2Pg8SFwCEVpagDiwcTMucYAuIBwhRQIETJdX4rP35uGQZhDe/WAIntDKihRPw6fexfI1a7Fx2du4nyIUEbGHGiz/ZxEzLRK9Z15F8Mwj2PquP/IT45tw+deX8cxb/yBN1REf79yPL0O1AKxIW/MOnn1lCa53+gI7tn2CENscy1YLzJBBXiOVVxkCcpOOY9uq5YhasRFHr/Fo3GcCpgwNgofmXrEo9qCEe/BTCG9sX9E1NmYaInvPxNXgmTiy9V34F1QWMF3+FS8/8xb+SVOh48c7sf/L0HyrxpqGNe88i1eWXEenL3Zg2ychxaV0C7BazIBMXrOvRiksYDLugLFW9JjkYPc7vfE++ym2/zoYjSqY3ZFI1XDzcEaVpHxnI55/8gVsymmGMVti8VsvF9szROoytuMku+Eu0OyeLiTXdaSPD+uLdlszdtHXzzUhR6WcNH5v07acggOmq7RoiCcp5M7U/bvTZCy6wh6sZVIOVgfj1XX06cD21NTdhRw1CpLL5aTUNSRPLy/yqpUtgF5elWpnkS2OLszuSS5yHXX8+DAVSdCaQbu+fo6aOCpJrvGjt4sESGS6uoiGeCpI7tydvjtdRQlWV4DMvzSrb8ty/tYSm1JOcrln2f0ltubdp9Ghu7aN3wPR51KvqbblYkldhuHBr2OzZixWn1yC51wBIAdHF89D9N7tiFp7BpoRy/DvshFoJAWsN//CiM6vYF2eL97ecgxzI++d8ZrMAky8CUYmF9TACy7qgu8xGcCwVsh0uqL0lPZhBsfmIDl2O1YuXYTftl6FU+/3Mfvz0Qj01FTtq1oBEidnNLDHbLCkYtnwYLy+WYOxq09iSb4AkXN0MeZF78X2qLU4oxmBZf8uw4hGUgBW3PxrBDq/sg55vm9jy7G5uKcIyQzBxMNkZJBLDeDloi6waAgGhoVVpoPuXgK0Mkg6cRJJZebJC8nDie/ewhzj61g0vQcaVmC5SDXeCAptgwZVEbJoudRvbLWNvdzZ9Aa1VMmp0eDf6IaZiMhCGQfm0cffLqO5I5qQUu5GA366SiYiEixE7OmZFOwkJ3nD7vRDPG/bXFnMuXRp6wJ6u4cfefoMpqUJhddY6faa8dTBK4g+2Zdrc5F9WC0C8YZMurhpJo0O86N2fT6i6Au5dloctcSdTfRGSxXJGw2m3/IFSJaMAzTv429p2dwR1EQpJ7cBP9HVQgESS6dnBpOTXE4Nu/9A9xahmXIvbaUFb/cgP08fGrw0gYokeHsNje/gRUGf7CN7JGg1m8lc4ZZBm19qSl4DV1GqYHus5FYN6YqWS73Gnm9sOTBIjDmJDIsOrcM6w0MGmNL2YNlWHt0HeeLa6WxYdf7oGtYYstwriE/KgkUmz49WtXClki4XQgILvbGEESVrgNZPD0Kgsx6sW3u0Ly7Nh53rt+GyPAAdikrzVQ2JVA6lxg3+z07GknUrMKXVUcz471fYmFTJarVahkmMwckMC3Stw9A5X4DYs2wr+O6D4HntNLKtOvh3DUNjWS6uxCchyyyBTJ6fNNrCMSgrQoLA6lEsQhkatH4agwKdoWfd0L5944KUBRak7lyPbZflCOjgb1O2o3wkMhlklW0AAGnZ/aW2aj5qIvWW6v3ilmxcOpsKTumFtu29QNlnED1/C9B3LHrgPM5mCFA16YRgrwzsXb4WpzgNdF5+aNdIDhiTcTr2OgwFDkIiCwRjGo5HfYPZGxNLreaVGJNwIZGFZ0gofAtmP4TErVi/Kw2OHcMR7FqBDW4vMiU0jQIxZlYUZvdKxeKvohBXKwEy98KC7Etnkcop4dW2PbwoG2ei52ML+mJsD+D82QwIqiboFOyFjL3LsfYUB41cDS+/dsgX4WnEXjcgX4QEsggwph1H1DezsTGxhAQlRiRdSATrGYLQYgFi6/pdSHPsiPBg13Iy3NchSChaDFihP1mkzlI95cJl4namCTBnIPbvGZj01nxc7jIeE3p4gEu9hlQjILHcwq45s3HAuS+GtHOAxLUHRr4UDg/lXexb8AUW7YpHenYmUs7vxu9ffo6VXF+8NsgPJedZjFePIuaWDoGhHfILllEWDvz1O3be0aJtRDi8ivIk1gQJ5Nrm6DlpJt7yikX0/gzc/ygfDpm3M2GCGRmxf2PGpLcw/3IXjJ/QAx5cKq7lCxC3ds3B7APO6DukHRwggWuPkXgp3APKu/uw4ItF2BWfjuzMFJzf/Tu+/HwluL6vYZBfCQkar+JozC3oAkORX9yQkHXgL/y+8w60bSMQXjsCrH0sAgTBhLzka7jDA7ByyEu/C84kQBDu/68jUkvYjpPswpJFu6c+Q080bkoBvSfQ3N1XiSmoVcUn/UHjgn2oWdu+NOW3Y5RW0jegv0q7F02mIaFtybelL7UP70PDJn5DK0+kUJ7JdkxuoiuL+pNbw6dpXoGDgTm3gj55yod0uo708aHiGarawpyXSjcy2Qfge7FQ1u6p9MwTjalpQG+aMHc3XS0WIP0xLph8mrWlvlN+o2OlBEikv7qbFk0eQqFtfamlb3sK7zOMJn6zkk6k5JGtCE1XFlF/t4b09Lz4fH8Lc45WfPIU+eh01PHjQ8UzVDWitlfoCpRxZiut+PlbmtjXn1ydncnZ2Zk8Q0bQ+7MX0/LtFyi7sC6aSJ2mesqFiKwcS3q9nhjWSHypH1sgA6MnPcOS0VT2aTObODIwTP61DEsGI5fvr7TFmk6rRjelBkHT6Fh+aT6K/nkefTikGWmfmECbs6jMy1QbWMp2+f5gLaheybBkLC1AEgwM6fUMscayVf+IzGTiDMQwetLrGWJYAxk5oRyFaKX0VaOpaYMgmpYvQDof/TPN+3AINdM+QRNqTYC1rVyIyGwik23VTb2RON5Eplrps8iDoHrDIgASVUHGdgd1qaJigBwarQ46rUNx+sESyBQqaLT5WdS1Wgdo1KryF83pL+HYv3fhHhgKX1U2Tm86AEMrH5gTc+AS3A3tLQm4mJhVtRWxdiAt2+X7g6SgeqXWAerSAoRco4VOp4WDuryqfzIoVBpotTrodFpoHTRQq8pbNKfHpWP/4q57IEJ9Vcg+vQkHDK3gY05EjkswurW3IOFiIrJqQ4BaHXT2ptG3B5kCCtuqmzo1VEoFFIqyf6lI3aTO/lJCZhLiMyVwcTTi5PKl2COLQL+WWbiYJoO3FxCz7Tx4N5daWZvySCJkIik+ExIXRxhPLsfSPTJE9GuJrItpkOULEOd5N7jUWIAN0XfuCZxa8jw8a1G/iNR/6qxykTl5o12AF9hTm3DSuT/GDe4AZ5UzvJs7IevsaQideiHYtc52/+Ejc4J3uwB4saew6aQz+o8bjA7OKjh7N4dT1lmcFjqhV7Br7TwAtW251BvEKazKqPYK3fsPwciysEpkkCs1UOWX5oOBMcAqkUOlVT+QvCv1GTKyyGUMMMt1cHfJX4prNTAwWCWQq7SwqUH2QBAMLHgooXN4CDevNQgWwQSeYSF3bgjl46hX7aBWPlz3Bwk0Wh20DoWKBQCkBX4KUbHYg0RyE2sn98OzE5cjoWD5i9Qh31fzMBQLuAREvRGJyNf+KOpP3UCAYGf6QTKbwWfHY/vCyRg0cBI2pIlT4xVRh5WLSI2x5CH91i3cvJmOnLqQ36Wu9acA7sZurNpyGcy9bHgyIOXkJvz1+xL8vHA5DiVmP4A1UfWXOjwsEqkZBCKCISMVmXCFT6OHneClrvWnmOwd49BvSW/8Ez0C3vf43JLZDLM5BX+9GIrXTwZj+emNGN74Hhc9pohSeSSxgrubiRsXTuH0xSRwyoJEMUVYIPA8TIIAQRBgMPDVS+ptMcPEGWEwsGB4ABYTOKMBDMOCNfAllglU0B+7r7/fmMDz9n1jJXI5FCo1tBLR0XIvROXyKMKlInbrL/hw5LPo/8oSxOaVOGbhkZN4EH/Nn4U5P/2BP5d+hTffmI61CVWtaGhG5rlN+L9PR6Jvt3CMmLsHZ/YuxdRXn0NkSGdEjpqBDYkFbZbbnypcL1IvEZXLo4i6GUL7hMFLYoSsZSA6eRZ6xI1I2v41xk6MAttjAia9ORbDIxsja38Ufl5/DsXVmDmwjKGs5UAlPQxyuLcfiOFdHJCSyEJquIYE2TP4+Jd1WDmjF9g9C/HlggPIQUX9qcL1BXAsA0OZTonUVUTl8ohiuX0a51OlaNm1K3xUAEDIPfoj/jdpA1xHf4RxXdyhVijg0DwSr302A+8ODihKmak/MRcjB76P9cklp1B4ZKWlIi23xABKxiP1UgKyBAnc2vVA/x6+cHVwRMuQzmilMSDl0g3cKTA+yvanatdDfwJzRw7E++uTH1BdKZGaIiqXRxILMmKO4ALfGGER/vn5d/k4LPtuIQ67DsbYwa2hKXAZSLStMWDsf9DHT1MUaqBwb43QiE7wcSpevms4sxCjQjuix/goJBampTDdxPFj12BtMwSjnvGFtiDbupCXhbsCoHJzhk6B8vtTpesBKNzROjQCnXycqr8qm2fBsuVtBMBQzn4WLGu0bUXETkTl8ihCOYg9/C/yXEPQraCqgOHieqw5kINmPXsh0CZDlFypQOHAycRkI41vjqdHD0YH5+LHQ+bYCI2bNEGTJu7QFrzd1qxYHIszwbd3X3QpykBpwe3Yk7jKeiAsMhBukvL7U6XrTQyy03g0f3o0BndwLvehJYsZAseCYUrYNUYGbFH2LBanF7+KXhERiLDZBkzdhEv7ZmFot7LHegybhYN3i5sUqQK2kYwPDCtHBkZPjFGMcq118g7Q+09qyf25xZQkWMhEVkpb+yJ5yj2o3++2CcStVBSTbcqkuA2fUs+m3vTczwVpGorIj3ZnS/xe2dsmkp/Tk/T+7hKZt7kLtOgFL3IJnkybCivMlelPVa43UWbcBvq0Z1Pyfu7n8tN7Wg10M3YDzZ3QkzoMnEWxBiKiXNo3vS/1nFRY6M5KQvZNSk5OLrOdXfYCPdl7HsVcK3ssOTWDygT3W2/R6gGNSO7Rn1beFJ/fiijvI/AAsCL70A8Y1TUUAz/bhPRqzYOKVASfcgInUhVo0zUEzukXEJ9sgFSqhBQW8Axb7KglC4x3UpCWU/C1V7ihuacCjNkbQYFNC9JiFpIf7e5QmCQdLC4fOY4Mt1BEdCwwhYjHja1LEHXaD+M/n4K+BRXmyuuP/dcr4NbcEwrGDO+gQDQt3al8JBp4deyH1ye+AJ9za7H+FAugAbqOeBH+agFWCfKTgrl4wdvbu8zWxEMNmcIdjZuWPebd2C0/PasN9k1cP948JOViRNKx7TgUn4jjG/bgTMmpUpEaw6ZcwXWTB1p53sG+/alQeGjh3C4CoU1MuLhjE2IzDOA4I3ISd2HF6lhkywu9GGZknDqJm64R6NbatiKSDfwNHDl6FbJWbdHawQxB4JF95i98uzQJ3X9Ygk/6ehcNtcr2x6FK15szTuHkTVdEdGtdpk5TIRKZHNo2z2JgYAb274+HEQBkHgjpHgj3IuUggURS3lbZMRvNYjFD4O4ii7MAZAXDmSCYxSms8nhIysUBfj1H4oVe3TFo7HMILlFsUKTmqD1bIKAZIeHIRbh2fwpt1ICy1X8wY8576J67Av8bNhpvf/AZFuyTIGxEfzzpWPAYUBZij16AJrwb2jvatloaS8YxHL3Aw0mRiYMb1mLVbz9i8S7CC3P+wBfP+aGwSVTQH/uvJ2TFHsUFTTi63atT8iYI79YSKfsPIpnPxbkrEviFeVXfAVwGARnndyN66U9Yn2CFzpqADYuWYPWu88gQp7DKYjtOenDwZGRZMnC2A1qRmsMTo9cTY+BL+1cEnowsQ3rGQEajkTheKJ3pLncX/c+/OY34M4W4QsdIuVgpc804at6gA328L4sEQcjPHMeZiv03pbDtT1Wuz6Vd//On5iP+pJQSnRI4I3FCqROJiIiJmU6dnxhFf+7fRVuP3iynvbJkbR9FHfuvoBR73CdmgUwmjpiCDHksbyKTYM9dHj8ekuUCEMmhVCmhUZUzoH1ksEB4KBazElqdDlqNsrRpKldC7aCFTquBWq2GSikvlemOu3kRZ9iW6NA0BYdPXMsfWpSLHueOxCDbJQghTzaEXC7PzxynUlRgJdj2pwrXczdx8QyLlh2aIuXwCVwzAuCvYcMPn+GHdZdKVYsAAG2rQARIj2PDMR6+QY3LtlcuWvvz0cjkUChU0BZkyHNQKqAoGlaKlKT6ysUiwMTz4IwFsSFGACBYTByMBhYMw8Jg5FA6WbsZPGeEIe8ObiacxZGD55FeopSHRTCB5zkYjQYYWCb/4SZLfvwJy4BhDTByQr2JRDVcPYJDcRn1ZtGXRKaCqwuDy6cMaNGxRQXVLK0w343D4SOpUPi0hq+mqtqzitdLZFC5uoC5fAqGFh3RQgOAS8G53f9g6cLNuGiwOV/nA//QHujdLxJPlOf8LYeGfeZg2y/D7xm0KFJFbE0Z+zBRWszfNPfzd2nci32pW2B7enrGQcrIukhb5/+XhkZ2Ir9WrSmk/1u06GBq0ZSmMWkbzZ00nHr4uFGDBk7UqMe39C9T2GQaxfw9lz5/dxy92LcbBbZ/mmYczKCsi1tp/n+HUmQnP2rVOoT6v7WIDqaWNx9Zl7AQn3mU5rwyjuafYm0P1mEEYvQMGflyxhsFmLPjaON3o6mThzM16vQqzVkXW7rCwz2ozvUCoyfGyFPJXhkyTtCy+evomkD50+kWyq8ymbCfNu+9VsVa5CL3g2oqFyKrSU+3z0TRGD9HUmpa0Jj50bTgvUn0zR+bae+uaJo1JpAaqNTk1HoU/Xa98LEQiDMm0/Kh3qSQa6jN5J0lyolayaS/TWeixpCfo5I0LcbQ/OgF9N6kb+iPzXtpV/QsGhPYgFRqJ2o96jcqarKuYRWIvbGXZo14igZOLVxj8ShhIcFkKMrIX3V/Q02vJyJi6cquaNry712yEpGFSaIzcSmUnRpDW3aeo8y6+mw8ZlRbuRARUfY2es1XTQpnf3r2/QW0IymPeMFMFouZjAm/UP9GcpLLG9OwlTeLHYtsLH3ZxYnkymY0Nvp2mdIZ2dteI1+1gpz9n6X3F+ygpDyeBLOFLGYjJfzSnxrJ5SRvPKzM4iUTy5CerdQLeZ+xksAzlHr8F5oYGUAh436hM7m2f51I7WAls8FAfIF4c/Z/Qr06D6B3o07QLaMo87pCjUaZxuTTuJRhBlldENZvJHq1cIRSLoNUKoParQmcNTIAHG7nMkX5QszpJ3H8mgESl86ICLEtJ2pE8ulLyDATrC5h6DeyF1o4KiGXSSGVqeHWxBn5Td5GLlNi5d3DTJ9IVphNPNjbZ7F2xij0G/o9EoKmYcl3o9BOZ4XFYqnZZns/EQASyDSaoty1zj2mYv2+Vfh6RBC81HY6ZkXuOzXIRGdB8m8vosv4LaABC3Fw9Xi0LpGX1XorCoM6vYrt2a4Y8ucprBzRGFJYkb5iDDq/shqGiO9weOsUtC2Zx8iSjN9e7ILxWwgDFh7E6vGtS+TKteJW1CB0enU7sl2H4M9TKzGiMAMYG4uvBw7Cj5YJWL9lGkJ0xU3eXwTkJh3HtlXLEbViI45e49G4zwRMGRoED01tzCAo4R78FMIblyxyWzkXLlzA+fPnbXeLPCCeeuopNGrUyHb344mtKWM/d2j9ay1IpXCnQYsSi+JFCrm7ezL5O8hJ7vYszS0KCMmmLRN9SS13pODPYqjQl1vEnfX0WgsVKdwH0aLEMi3S7sn+5CCXk9uzc0vEmFjJarUQk36DrqWXafG+Yry6jj4d2J6auruQo0ZBcrmclLqG5OnlRV61sgXQy6tsY4Eq58033ySZTCZuD2lbvny57U/y2FJ95ZJ3iD7qoCW5+0D6v8u2iiCP9n7SiXRyJTV9cREVHdYfpU8DdSTXtKH/7Sh25RaSd+gj6qCVk/vA/yu+pujgXvqkk47kyqb04qLLBcrMQsbc23Tt/Ek6tHcfXcq+hydPEMjEGYhl9KQvNUPBEaNnyVBl36JARiaDLu+Poi9GhVJzF3d6cvgs2nnpFt3JyaGcWthyq6JZREohel8eLtVWLlzc9xTpIifXvgvKRKpabq6liQEaUrh1o6l7sot+ZO7iD9TTRU7KZmMp+raViEquEOUo7vtIcpG7Ut8FthG5Frq5diIFaBTk1m0q7ckuuMp4gw6t+JqGtXMjp+Yj6c9Kp5AMlHzkH1r48RjqGRBA/b89ToWTxMypefRCcA9655+UMhaYPVgtAvGGTLq4aSaNDvOjdn0+ougLuVWyOOovJmIZPT1UX7oNVrOJODabsgo9viIPhWo6dC3IPBGDS4wDfLt2LR2pSjk4HvUzoq+7IvKd6Xg70qXAaWvFndgYXGQA505d0bkhoL+WhNS8ApelJRMnYi6BcfBF166lI3Ip5ziifo7GdddIvDP9bUS6FDjtyk2fWBEaNO0yCG+8NxHPNruNA9H/4FhBwKTGJwTdfXNw6uItlFjTZzcSqRxKjRv8n52MJetWYEqro5jx36+wMelBe5cfPFxCFN6IjMRrfySUWS1bWwj2FxWCmc9G/PaFmDxoICZtSKs3Cy4fRaqpXHJxJuY0cmUeaB/csjhS1crh1r4f8eWSC2g1dibmTe6JRkV3YHHj3CXoSQffLp3RIH0vlv19EHekBSfknkHM6VzIPNojuGVx7KuVu4V9P36JJRdaYezMeZjcs1GpTpebPrEi5HIoG3bG0JG90SBhJ3YUZK6WuoRg+PMD0adDi+IsadVBpoSmUSDGzIrC7F6pWPxVFOKqo63qEZa8dNy6dRM303OqV0HgXnA3sHvVFly+d1EhGFJOYtNfv2PJzwux/FAiskXN8lCpnnJh4nHsRAYsqkbwcAZMJh48l4ekvQsw5bMdaPDGr1g+czjaOpacFjQiM/0uTJBCSN2KubMPwqX/UHQqiOlg4o/hRIYFqkYecIYpP7QgLwl7F0zBZzsa4I1fl2Pm8LYo1WRF6RMrRQbvyKcRpkvC3j1xYJAfDXzhblOERbjZTI1XBwnk2uboOWkm3vKKRfT+jEf360kEh8BJ+PvYMayeEoL7MklniEf0j3/idO69lIsEDk2DMXDMRPz3hQDcK6pA5P5TLeXCpxxHzA0Oag8HpKz6HjO/n4Vvp0/DgsM6vLQwGr9OeRotdbZDFGe0e+ppdGjmCku2gPavvINhHQpzLfBIOR6DG5waHg4pWPX9THw/61tMn7YAh3UvYWH0r5jydEuUabKC9In3QtYoDOHtFEiKOYZUHhASD+G6OhgRDWuuWgqRapqj30fT8WrQfXnlHj5WDnczb+DCqdO4mMShTGmk2qqNBMDE8/YlZ5LIIVeooNZKauEjIVJjbJ0w98ZMqcuGkqfCkTpNPUSZRo54niOOM5KBM5FQmQ9NMBCjZ4g1cKXPM6fSsqGepHDsRFMPZZKR44nnOOKMBuJMNmkBSlJB+sRCKryOGIr5rDM5NX6JotNu0u6lS2nrfUpXaKm4E/Ua441DtOLrYdTOzYmaj/yzdDiGmaPshL30+3df0rfzl9Cv//cZ/WfUh7Tq8j2CiMojazuN6tifVtiVD4GIyEq3Vg+gRnIP6l9yZbjIA6calksezsScQq7EBR2C2sBVrYJSqYJKpYZGpYC8sk+GXAOtTgsHjar0eXlnEHMqFxKXDghq4wq1SgmlSgWVWgOVonRagJKUnz4xH+5uFrJy2QoikrXwC+kMdy4BJ9dvQoJTGHrep5Kc0oo6X89RNwtFnzAvSIwytAzshGJfur21kUQedar+RjHxOHb8Nsy6VujY1qnCF78qMPHHcPy2GbpWHdHWyf4Wy02fCAD6GMwc2B7+4a9gyaXy5zAcAwLhJ4vH1n8l6PJsAMpY9SL3wILbp88jVdoSXbv6FMjP/tpIFRZeE3lkqLJyMSXHIOY6B7mLL/w97EyYUSkmJMfE4Donh4uvP6rSZHnpEwEAUhV0To5QZBzGgbjsch2qcmcf+LTtiTHjhiHwHtkTRcrBkoGYIxfANw5DhH+BK70KtZHKFl7jy6kZlL8RAEM5+1mWrSShlcjDpkrKRTCxuHLoIOL0gNrTC25SE0zlvbl2I8DEXsGhg3HQQw1PLzdITaZylUF5OHSYjNUnTmHnvPHo1qxE/I22E95ZfRw7v34JAe7acv5IK7IT0tB89FRMCHOuFevrcYNyYnH43zy4hnRDoS/d3tpIKKfwGnt6MV7tVbZuUMSAqdh0aR9mDe1W9liPYZglFhWqu9g6YSrEkEhb5v6XBj7pRs7OzuTi1YVe+nAu/XM6y648peVhSNxCc/87kJ50cyZnZxfy6vISfTj3HzqdVd0Wi7FmxdLyH3+j2MJluNaCHK1WCxlTD9Gfv2+lyw82FOmRIu/A+/Sk1p2eW5xEgsVEZG9tJCLi9VmUdCmWjsdnFiWAsgrZdNO2ZlByMiWfXUYvPNmb5sVcK3ssOZUyyhYVEh26dQT7lQsRmXiO2ILExHq9now8T3yNfj0T8Rxb1J5ebySet0kqXS2MlHRgKx25Zij4v5XyzvxBX0xbSOv2baflS/+hE7dt55ZE7IejC9/3IBfnbvTdmWxKOXeObrBWur3+JWosd6VeCwtjv4jIaiZD5g1KyS7YU0nhNavVWna7s41GdexPfyWbyx6zWsuZEbTSrVWicqkLlB0xVIJCqYJDQWJinU4HtVIJZZVasEUBpcqhqD2dTg2l0iapdLVQo0VYL4T4FGaBtUKf/C92/LMcf+1j0OH5AejsUSI/hEgVYZFy5TpMHq3geWcf9qcq4OEgsa82UiWF12zrBZWsG2S7r2grcT1ggVngcDeLgwUEK8PBJJhFp/FDoubvcV1FoSyR+V2Gxv1nYueJPYj6ZBACGqpEP0uNUMOzRQCaUQKOXHRF96faQA07ayNVpfBaFREyzmN39FL8tD4BVp0VCRsWYcnqXTgvFhV6KNQgWZTIY42JBWMCZEoNNCXNV7MJnEmAmaSQyyT5QZ0lS5jQbax+ORSfauYj5ufn4HovLZ+9A6N7LUT/TRsx8p7p+S0wC1ZYTDwEAiBVQqWQQqqQ21liRKQ2udevJSJSPkotdDptacWCe9dGQt55HI0ldO4WCJ2d8QBanc5OS1MGuUIBlbZgmO2ghEJULA8NUbmIPFDsL7xWQMM+mLPtFwy/p9UiUtcQfzGRB4p9hddKY7/lIlKXqB2fC/EwGgRYZQ7QqkV9VcTjKBerAN6sgKrCldZmsAwPmVIFtdI2zF3kUaIWnngrsg/9gFFdQzHws01It3Mc/ejzmMnFKoA3ZCPx4HIsXnOxkgBFObQ6rahYHgNqQbkYkXRsOw7FJ+L4hj04U5A6UqSuyoUDx5UfzFk9BJj4u7h2bDmmvdQLTw2ZhEX70mCyPU3ksaMWlIsD/HqOxAu9umPQ2OcQbH/OpkecuikX5tQSTP7fAhzNqfloGCAYkvYjat4C/LHpAE7GxOM2w0N41K00EbuoHZ8LTOAMZpBMA41KdL0VU/fkkr39P+j8BoPvT6zBC5610CcygRcIoHSsHhqCcdty0WzMFsT+1gsutueKPFbUguUCEMmhVCnrzAtUBovwUJaA1025WGA2m+1LG2kPEiVUShVUKi0aVJopTORxowbKxQyeM8KQdwc3E87iyMHzSK8w070FgomDkePB8zx4zgCj6UHZzgZcPXIIcQ9sCXh9kYuIyP2l2sqFu7YbP338Cvp18Ee7kEgM/WIHbpXzXpBgxJ34ffhr9lS8/8E0fPXNDEx9ewxen7EW5/Jq7ftZPlYT7hxbjK+XxcGqezCBivVCLiIiDwLbMGn7EYgzJtPyod6kkGuozeSdZFug1Wq8RYcXvUY9wvrRh6vPUwbLEcfl0flZvchD600DFl4izuaa2sIqsHRj7ywa8dRAmrr99gMMva/bcsna9hI19RpI0WllkxXUjEzaMMST5HIVtXxlN2XbHhZ57Ki25QLIobJmIOlGHkjqjtDwDiiVfMyUit3fjcOYL88hYNJ8THs+AO4OKqhUAm6m3AQvEZB7V1+63IRgAMsYKkiqbSdkhom9iZPLPsDL76yBw6gZeK+3R/VNtCpTR+UiIvKgsdU2VUG4+hP1d5eTotHz9EtyqVxjFL/sFWrvrKW241fRdZu8TPz1WNq98zhdzS359TTS5V9GUeegkbTksrHEfvuwWgTiOYbST6+iqYPaU7PWz9C7K89SptFMZnPNt6pQl+Rii2i5iDwoajAVbUX6ijHo/MpqGCK+w+GtU9C2IIW+NW0N3nn2FSy53glf7NiGT0Js83ZYYTEDMnlJe4JF7NcDMehHCyas34JpIVUoJibkIun4NqxaHoUVG4/iGt8YfSZMwdAgD2hqIyRW6Y7gp8LRuESa3op5uHKxMBm4w1grnA3K2f0Oer/P4tPtv2JwowpmdyRSqN084Fwl2d3BxuefxAubcsSpaBGgZutccrD17RC8sDgdT36yC/u+CCkopyog6afh6Pq/TeDCvsa+HR+gox0vJRGBDBlIzQRcfRrZWZoVADgkrf8Kk6ZHISYlFwxjhEBSqJ0awrG2poAb9sa8Hb9hWBN7BlcPUy4sTn3/IobOPVtJtHEWMjOtcHN3rzgYUOmL15ZvwpcRNlm2K0VULiKlqb5yYY5hao/e+O6SNyauj8G83gVLUK038deIznhlXR58396CY3MjS/scysHK3cWd9BQkp2aCceuIiDYupTLF3xMzBzYnGbHbV2Lpot+w9aoTer8/G5+PDoRnrZguEjg5N7DPb/NQ5WIFk3QCJ5OYCtf15J34Dm/NMeL1RdPRo6LytVINvINC0aZBVWQnKhcRG2zHSfbCXfyBerrISdlsLEXfthJRQdlV9jTNDHYiubwhdf+hdALm8jHSjUMr6Oth7cjNqTmN/PN6UUb4qmEli8CTIfMibZo5msL82lGfj6LpQu6DmyeiuiAXa1l/UcktY3O+z2VVqlDmWMmt6lITfS4ipbHrY1wWK+7ExuAiAzh36orODQH9tSSk5lkAiQxyhQSABRzDlv2CkgBWbyzhE1CjWWgfhHlJYJS1RGAnz3t8nStCAqlcCY2bP56dvATrVkxBq6Mz8N+vNiKpNuP0KqUOyEUig0xW2ZZ/mrTM/tJbNR8MEZEiqvkMsbhx7hL0pINvl85okL4Xy/4+iDtSKaD2gl+7RpDDiOTTsbhuKHAuEsEiGJF2PArfzN6IxJIvvOU2Tp9PhbRlV3T1qXlhVZlSg0aBYzArajZ6pS7GV1FxqHCRbK1St+Vyf6H8vLUAYK3eSFvk0aKaysWIzPS7MEEKIXUr5s4+CJf+Q9FJJwEkrugx8iWEeyhxd98CfLFoF+LTs5GZch67f/8Sn6/k0Pe1QfAr4cy0ZMTgyAUejcMiUFgZtMZI5NA274lJM9+CV2w09mfYW8exJtQDudQ6FgiCAFNeMq7d4QFYweWl4y5ngiAIdlfPFHkEsR0n2QdPV34dS51b+lLQ8M8p+mxmcREsIiLS09Xdi2jykFBq69uSfNuHU59hE+mblScoJc9Uphpf5tpx1FzTlP6zKr2cIlc1xUx5qTcok626F6Hq1H251PY6FyHjDG1d8TN9O7Ev+bs6k7OzMzl7htCI92fT4uXb6UJ21dYIiTw6VH+2yGwEy1khkcmhVKtQJiDWIoA3mWC2EEgigVQqg0yhhKrUGg4A0OPgB13R748WmHN8DV7zlkNa62FAVhCkFU+91iZ1XC7Z20eh4zg95pzagBdrI+UCLBAEK8gqwCQU2ylyhRIyqQQyhaK65rFIPaf6v7tcA61OCwdNOS8QAMgUUGm00Op00Gm1cNCoy3mBAPApOHEiFYo2XRHinI4L8ckw2J5TYx6QYkF9kIsWulpNeC2DQmFbOVMHtUoJhahYHmse/m/PpuDKdRM8Wnnizr79SFV4wHbd6mPJfZJLw75zceLUEjxfK1aLiEjFPHzlovZEi4BmoIQjuOjaHU+1sWPZ6uPAfZNLbVsuIiLlU32fSy1iYhmYIINSo6lhYftHC1EuIvWZOqFcREREHj3E76GIiMh94f8Bi3X5s3//enYAAAAASUVORK5CYII=;" vertex="1" parent="JrayNG33wRIPSkq_cNoT-88">
          <mxGeometry x="10" y="33" width="190.15" height="107" as="geometry" />
        </mxCell>
        <mxCell id="JrayNG33wRIPSkq_cNoT-95" style="edgeStyle=orthogonalEdgeStyle;rounded=0;orthogonalLoop=1;jettySize=auto;html=1;entryX=0.5;entryY=0;entryDx=0;entryDy=0;" edge="1" parent="JrayNG33wRIPSkq_cNoT-83" source="JrayNG33wRIPSkq_cNoT-92" target="JrayNG33wRIPSkq_cNoT-94">
          <mxGeometry relative="1" as="geometry" />
        </mxCell>
        <mxCell id="JrayNG33wRIPSkq_cNoT-101" style="edgeStyle=orthogonalEdgeStyle;rounded=0;orthogonalLoop=1;jettySize=auto;html=1;entryX=0.5;entryY=0;entryDx=0;entryDy=0;" edge="1" parent="JrayNG33wRIPSkq_cNoT-83" source="JrayNG33wRIPSkq_cNoT-92" target="JrayNG33wRIPSkq_cNoT-97">
          <mxGeometry relative="1" as="geometry" />
        </mxCell>
        <mxCell id="JrayNG33wRIPSkq_cNoT-92" value="For each item j rated by user u" style="shape=hexagon;perimeter=hexagonPerimeter2;whiteSpace=wrap;html=1;fixedSize=1;" vertex="1" parent="JrayNG33wRIPSkq_cNoT-83">
          <mxGeometry x="380" y="510" width="150" height="50" as="geometry" />
        </mxCell>
        <mxCell id="JrayNG33wRIPSkq_cNoT-96" style="edgeStyle=orthogonalEdgeStyle;rounded=0;orthogonalLoop=1;jettySize=auto;html=1;" edge="1" parent="JrayNG33wRIPSkq_cNoT-83" source="JrayNG33wRIPSkq_cNoT-94">
          <mxGeometry relative="1" as="geometry">
            <mxPoint x="480" y="560" as="targetPoint" />
            <Array as="points">
              <mxPoint x="650" y="730" />
              <mxPoint x="480" y="730" />
            </Array>
          </mxGeometry>
        </mxCell>
        <mxCell id="JrayNG33wRIPSkq_cNoT-94" value="LikeLihood User Based" style="swimlane;whiteSpace=wrap;html=1;" vertex="1" parent="JrayNG33wRIPSkq_cNoT-83">
          <mxGeometry x="550" y="580" width="260" height="130" as="geometry" />
        </mxCell>
        <mxCell id="JrayNG33wRIPSkq_cNoT-108" value="" style="shape=image;verticalLabelPosition=bottom;labelBackgroundColor=default;verticalAlign=top;aspect=fixed;imageAspect=0;image=data:image/png,iVBORw0KGgoAAAANSUhEUgAAAVkAAABsCAYAAADAMsFxAAAAAXNSR0IArs4c6QAAAARnQU1BAACxjwv8YQUAAAAJcEhZcwAADsMAAA7DAcdvqGQAAEQaSURBVHhe7Z13VFTX1sB/AzNDGxBFsPeAGqxYAEElajR2UzQaNU/z8vJSzIuJ6c+YXjSmab4kal4STTMxxZKYokZjRSA2LIiKShORJkxv+/sDEBhAsIGa+1vrrgVzy9xz9r179tlnn71VIiIoKJTitGC2CG6enmhVQvb3/yZy8gpaPLuWX+dE4u16vMKlI05E5YYKwJ7N9qWfsa/D3dwb0xS167EK1xxurh8o/J1xkLNxITPvf5ZPdxciznQ2/rKBnLZj+OfkPoqCvSIYOXUsmRNnDFishST//CXbdLdw10BFwV4vKEpWoRx6DmxYzrfff8PqHalkxX7J0j98uf3pp5jQQXnlrwT6uLeZNCCCfkPu5JFn3+A7QzR339oNP5XrkQrXKoqSVSiHH30nPsI9QzrhSPiEeV+fImreUt6cfCNerocqXBY0AW3p0KoRWtxoFD6Jf9/RmyZa16MUrmVUik9WoSJ2zCYrTpU77iKg8cBDrZhVVw47JoMZB25oPLzxUAYM1x31q2TFicPpxOlw4nRq8fB0PUBBQUHh2qb+lKzdQG76MfYn7ufAoYOcChjHrHt6468YTQoKCtcRbiNGjCAhIcH18yuMjaz4H/nfB28y+4EHePLFxWzJ0eChKFgFBYXrDLeEhASys7NdP7/CaGjadwIzZ89kSFt3LDShT992yuSKgoLCdUf9RRe4a1Ebkzl8XI97UDhRXX1dj1BQUFC45qk/JQsU7t3Brnxo2Cua3g0VX4GCgsL1Rz0qWQOHt8eSadMR2i+cQHfX/VcGh83h+pGCgoLCFaP+lKw1nR3bj2HyuoGoqNZ4ADarFYtBj16vR28wYbHYXc+6NIzH2LZlP9k21x1XCgd2mxWrxYzJaMRgKA3kcGA1GdDrjZidLqcoKChcV9SbknWe2cn2A0VomkfSr5MPmI+zeekbPDA0lLbtOxE29G6e+egPTlhcz7w4nNYcdix6laX7neg0rnuvBII5I4GfvviQubPuY+Lomxj27GpOOR3ok39h7tSBhPUdy3M/neIy/5QoKChcRdSbki3YvZ2/8lU0Do+ihx/g2Y5+Y2+ma5NAuk+Zx4ofPuP1+wfR1sP1zAtFsBtT+fO9h/nvxhZMmNi9jhKdqHD3a0Pv/r3wP7mJdVuP4dEmBK+Un5j37Kssj00mNSWeDbFHMLieqqCgcN1QT0pWz6HtO8m2N6BHvz4EqJzY8hNZOf8jkvu/xWev3Em3Jj54XOIaQ7FbMWTEs/TJf/Dw995MfvlxhgbVXZM1vkG06BBME2/BrmlBny4FrPx0B62f/I4f33+cuyZM5/4x3bmscRUWI3qDCcULoaBwdVB3Gqc8lhNs33ESs64zUZGBWNO38ckrH3Ik/Elem9GfVt7uxbk1LwrBabdiMZxm7w8vM3nEeN5M7sVzi+cyuYsOp8OB45I21+87H26oDCkkHilAFRCK967VHA+dxuQ+LQgZ/RT/t+h1poU3uIxCMLBrwQSib57FqnTFCaGgcDWgCgwMlM8++4wRI0a47rtiOFL/x/i+9/N70AyWvd+TP179Fr9ZHzJ7cCu8LzHKwFaQws5fvuGLZV+xevtxLM2Hcf9j4+kV5MUlXhoAbWAfburXnNqmWbAmvcPIqCfZ1WoQY4bdziPP30ePK+avyOOPR4dy58qWvLJ2Of/uXNu7VFBQuFLUg5IVcn68l96TllHQNpI+ngfZltyAiZ9t5eMJzS7NqjOnsPKVmTy/LJa0Aj16kw1x88Svke9lW7LbaOi7/PbJBFrU6kYdpP5vAn0f+Al9oxhmff41L97cyPWgcgiC6qKteBEnUnSa1AItzVsHoGTMU1Cof+pByRay6Yl+jHz3BO0mzeelvtuY9fi3WEcvZNNX9xF8iTP/drOB/NQEfl2+hA8+Wcsxv6E88dYLTAlritflMGVVfvg3qJWGBcnmu3v6MPmLTHyHvMG6H2fRswrjUuw2rBYrJn0B0qAZDT1Lri9G9AYn7jpdjUuO7YYCzmSdJC0zF32j7vQPDeASu1JBQeFyEBgYKD///LPUGcY98lp0A1H795fX4wvFkfOTPNLVW9QNb5LXdhrLHegs9/cF4nSIzWKUMwfXyBtTIiWkyzB5esUBKXC4HniFyf9N/tPJS9QebWTyZylid90vImIvkENrF8iMgSHStO04WZJsKdnhlNPf/1u6N+slz24scDnJBVuuHNr4jcyf1l0C/VrImEXJUnoVBQWF+qWWJtnlw34qlu2HDWhbhBMR4otbwE2Mv70n3kVxrPjmT3IFQDCezsd0sVPkKjfUWi8adx7Oo4t/5KvHOrD95f/wyuoUzK7HXkEMSVvYnmHDvdlgxgxrW7VP2L0BHYeMJcy/CEPjbnRrXjLId6Tz+8pfOKwOpXtnP9ezKqJuREj0SIYG+2GXZvTo0VxxFSgoXCXUsZIV8hJ2sPesG437RhLqC+BNn9snMDDIysEflrEyyYAtP46vv1jLsUteiOCO1qsJYVPnseytwaQveoVl+y/5orXEwomt2zhmcqPJgJvpH1S9p1VlSuHAEQNNwyMI9in+zHZkLSvXncK3Rz/6BFR/bilu7gaSDh7H0iSciNKLKCgo1Dt1rGQL2bd9JznOBnQPD6M0J4w2dDIP/aMvuszVzJ31NM+/+gOGHsO4sSZHZC1RqX1oM2gmbzzYjIQVm8i+WAv5QrBnsnXrforcAoka0p/zheeajm0nNlNHWER3GgBILn9++Sm/5/hwY3Q/mtUmXFifRPzeAhqEhdO9getOBQWF+uI8r/4VwJjCvv2FeDTpRnh4k7KSx6oAhsyYzYzBrbGmHsMaNompNwVe3ptz86LNiKd5/p+90LnuuwI4cxPZe9iBb5v+3DywadWuAgBsZMZu57DbjUT2aYwbYNj/Oxu3nUY829KvX7tahYuZU3cSl64lNLIvjS9rxykoKFwKdfs6evdkxsrDpCWt5MkeFc1U9+bDeOa7OPbv/I5XJvSg4ZW4M3dfWrQMwPtKXNsFtyajeTP+JKm7PuYfratXsUgef23fh61dJOEttaDfzy/bs3H4O5GmEUTdqMNWwfKuqlqQg9yEOJKc7YiIaKn4YxUUriLqQN1URKvTodPpqggvUuHhrUPn441nbYbHF4tbzf7Ny4MKH50Onc7n/J1cdIgdf50lMCyCYI88dq/5E2OHttiP5NOwT3+6OZI5eCSX4oVmZs7m5lJgcE0jVkhi3B4MgX2J6Kj4YxUUribO+/4rXHlsZ1JIOqOioa+J+C+WsME9mhHtczl4yp2WzSD2l0QsjRviDhTFvsHobp3pN30xh8qHSRiOEhufjW+vCHoo/lgFhasKRcnWM+5+LekS2gzDrjXE+4/knnHd8ffwp2UbP3L37sbWczB9AorF5Oahw89XQ/bWP9mfV+ZDsGXFE5eipWd05Hkn2BQUFOqeeljxpVARwWQw4FS5o9Z6UZx4zIlRb8SpUuPh41nOtWLBePYIn7/8PR2fm8PABipUCKe/uZs+/8ll1qaVPNJZ8cgqKFxNKHZPvaPCy0eHj3epggVww1unQ1dBwQJoMR/diz10FD1sWZzOd4DkELspDo+YsQy/QVGwCgpXG4qSvZYwn2B/djtG3t6Q1TMGEvPwcpIP/8ZPu9ox9aGJhFSeTVRQUKhnFCV7LeHZjsjB4bT1DSQ0IoK2pgQ+/yyR4NkLeGyAMuOl8HegqhDGqxvFJ3utYjVhtLujdneA2gvteUJxrxVsRgMWtOi8y5vkFox6OypvH7yuV5PAZsRgAa3Ou4rQRoViBIfNikVvQO3fCG1dRWJeBq7Xx/b6R+uFt7cWrcf1oWAxJ7Psvhhi7v2M5HLhaYZdC5gQfTOzVqVfpwUnzSQvu4+YmHv5rHzDr3ts2FzDvatB7HYseUn8uvBRxo6eyapTdbEu/vKhKFmFqwNHIVmZmWRkZJFfTptaCjLJyjhFZnbRdapkHRRmZZKZkUFW+YZf55hPruebnw+jr2n0L0bS4tfw5aeL+WjhF2w5knfN1a9T3AUKVwGCiGDMTucMAbRtUrJqTQSnFHE6tQBt89YEXIfBEyKCGLNJPwMBbZvwd1mvl/fbPYxYPJTvVkykZQ2mntjt2O1pfHlHBP+K78MXu1dzZ/MaTrqKuHbuVOE6xYn57BlOHtjF7oMpmLUlNeDtBgqyUkhM2MuhlCIq1eRx2LBYrNhsNmw2I0bL1WoFOrBZLFhtNmw2G0aj5ZxF7jSf5czJA+zafZAUs5biljuwW82YjEYMegvgwGo2YdTrMRiMWC6okKcLUpPZWJdYsVhqdz8qtRqNhyc+KteH4NpAUbIK9Ys5nYS1H/PUpOGMnL6YhEIAO3lH4/n9q1f4x6hR3P3eNvLKvY8OSz5HNn/Je/Pe5sPPPmfJKw9w3/M/kGwtd92rAYeF/COb+fK9ebz94Wd8vuQVHrjveX5ItgJm0hPW8vFTkxg+cjqLixuO/cw+1vzff5l0S3/6TXyHDXv+YMnsfzImJpzeMZN5edURLriZDjtWfT5Z6fmYr7Wx9nWAomQV6hfP1kQMi6SZyoR7+zB6NlUDahqFRDNyaDB+dqFZjx6UFozAlMKvr07joWUGBt4/kwem3UlM81w2LfuIlfsMZdd1GtEbap5IMhv0GC/FOixBKikvEym/vsq0h5ZhGHg/Mx+Yxp0xzcndtIyPVu7DgCetI4YR2UyFyb09YT2bogbUgd0YfWdfvNOOYHAzcjzZnZuf+Zgfl7/MYMMGFr60gD/zy31Nje20kb3vB166tReRj/xA2gUZ/GYMemNJciKFi0VRsgr1juP0bhLT3WgfFUXbEm8Bbu4Ykg5y3NKE8IjgYl+lFLD9/UeYuSqAKU/fQ99ATzQab9rE3Mucl2cxLrS01rqdjNVPMmbS2+w4W/Y9lSiK451Jo3liZSq1nOiuGksup9JPUXBOgQkF29/nkZmrCJjyNPf0DcRTo8G7TQz3znmZWeNC8QZwnGZ3Yjpu7aOIOtdwdyzph0jOtaFq3IWBIwcSHOCNb/twenfwwph2iJM5pbZsbdqpISi0L608oUn37rS4AL92Udw7TBr9BCtTL6l3/vYoSlahnnGQHbuNA5bmREZ3Ljfxoycpfi8FDcIILyn1YNm/lLkLtxIwbhrjOnqVuGlV+HQcxbS7hxHiVeqzc8OnVVei+nam6fkynmsC6RgRTc+2fudJql4TRvYsnExEj4H8e9kRLACW/Sydu5CtAeOYNq4jpbel8unIqGl3Myyk+N4d2bFsO2CheWQ0nc813ErGzh0cd3bi1sk3E+zjXtxOWyG5Z23g0Rh/XWk0bS3bqd/P7iPeRPQLKVbutUQT2JGI6J609bv43sFiwGCoahPAWMXnBgwGk+tVrmkUJatQv0g+CVv/ojAgnP7l8zSaU9kZl442NJK+jd0AIwdXfs+f+a0ZNDiMiqUl1Wg1pYkfHJgKc8jx7MnoSTG0LjUQXbHqyTtloc2QKYzr7l/liyAOOzazAb2+nCVn0mMwlZ+wcce3SXNatGhBi0Af3AHjwZV8/2c+rQcNJsylBqZaqympCCLkJ2zlr8IAwvv3KC47BODMJWHHfqzBQ7mlb8Nz5zlOJxB/zEBQZAxhjVW1byegPxzLX87e9Ovuh9NhRq83YbWf3wlg1edxytKGIVPG0d2/qt6pTf8Y2L3onwyOjibaZRs1ew2HNs5jfP/K+wZOmMfmai3za5A6Lwl+iTjNRtEX6cVU1+W9Fa4MhX/KE119JHDMIkmxOcRa8rE9/TO5o4mf9Jq9Q/QiIs5T8sMdTUUdNEI+TXcRvrOs2Lqj8ITErXhS+jdvLeM/PXbuehWxypn9q+S/g1pJyzEfSVJV9dOdRslIWCXv3D9Iuo+eJwlGEZEC2fj8LTJo5q9yuvwt2IyiLzKUPJNOOfXDHdJUHSQjPk2XinfqLFcWvlD+fKKr+ASOkUUpNnGU3mjeL/JQiJ90fWK9nD13rFkOfHC7NGvYRx5dc1octW6nFJ87f5C0H/2RpJhyZfenD8qQm6bIS1/HSWZV7RYRsZ6R/av+K4NatZQxHyVVXV6+Vv3jFFtehqSmplba9i69XboOfVdij1fel5qeLVan6/dlyrejmog6aKQsz7i2Xv6qf6KuVpx5bJk/maiI0cxZk3WdBqf/vbCkxRGXrqFTVDj+WQdISjUCUJgYxx5DIH0jOpa4ENxw07qBw4LeUGaFicNETtop8kuMKTff1twY4odT1Yoe3ZtVs0xVQ+M2TdHo7bTsFUarqvyUKi+a9RjBvx66nbb7fmDlLgPQgKiJd9DZ04azfDSR2gsfnTeeJW+Tm5sWNxxY9IaySSNxYMpJ41TpjVrSiItLR9MpinD/LA4kpWIEDIe3sTO7MRHRPUqsdcFyci2Ll+0m5N8v8NgtQbjVup2A4ww7d5ykZWQfGuSf4Ii+B7MWvc9Td4TRrKp2A2ga06apBr29Jb3CWlVdzqhW/aNC3bAZLVu2rLS1CPLEXRNI81aV97Vs3hhNFdFatQv4uvq4tpSsKYUdv24h6chOVm3YQ3HQi8K1jCHtKCesQXRomsPGTelogrwBA0dj48n27UVEqQtB5U+X6AhaWA/y25oEso1mzKZ8jqz7im8T8lCfcxsKZ/fuJd0/gsgO1Zc7tmfvIj4jgOj+Hav1U6rc1fh0Gs7osGw2bUrCBOAeRPiAMAKrUALFqPDvEk1ECysHf1tDQrYRs9lE/pF1fPVtAnmlN2pI4+gJK0EdmpKzcRPpmiC8sXBy23aOuXfgxo7e2G02LHl7+PL1JaQMmM/iZ2+h5bl0mLVrpxT8xY79PoT4xfPRJ0fpNOlubg5ugLasw6rATvaueDICounfsbreqW3/qFCpqtrOt8+lcx12bOaz5JodIE70Ziu2GtwdVxPXlpL1DmHQpNsZPGAs08b0KfNjKVyzeDZtR2hrIXnbQQIG3EQnT8CWRXxcCtqe0USeK/WgpcPdL/P24wMo+OoRJkyZwZNzFrBRFcnEkV3xPfckn2Xfzr249+1HF9+y76mIkJuwnQNe/ejfrdqDilG3oF//9qRt2kyqpYB9R1WERDY770SZtsPdvPz24wwo+IpHJkxhxpNzWLBRReTEkXQtvVHPprQLbY0kb+NgwABu6uQJjmx2bD+AxU/Dmc2r+OGbT3h/0Trk9rf57MUxhJQ1spbtBP2B7ezMc+P0ps/5ZOMJHDqP8947AJJLwvYDePXrT03dczH9c2HYyE5cz4olH7Iy2YnOmcyqDxbz7bpEsq+VoIdrzScrFpMYDEYxu/psFK5RLKIvKhK90SL2Epk6s5bLlFZBMvzdg5X8gTaLSQz6ItEbTWIymcVic3kQ9HHyfJ/WMnbxCbGdO8ksJvO5/0SkQNY90lnaTPxc0szlvJmVjitGH/u89L5hsny+aZ2s3Z5Rzq96HmwWMRn0UqQ3islkErPFJq6PrEVfJEV6o1hKXIzOM9/LPW0aSPdnNkquzSY2q1UsZrNYq/rCqtopNjGbzOX+N8neN/pLh3FL5OCh/8nE4Eh5ZkOBiDjEUv5mXNtdsE4e6dxGJn6eJhW7xyRVdM9F9U/ur5Olx8ivJK027lW7TaxWs+iLiqSoqEgMFqtYbbX5lquDa8uSRRC1Fg+tFx7VDtcULg4HtnoZgWnx0enwcS8k+3Q+DoSc2E3EecQwdvgNlfyBaq0n3j46fLw88fT0QKuu+CDYTu1kZ3Y7+kU0KZnFt3B81XzmzP+xrPikOYODewy0796KtK1xHDdVc1wJPh3CCHXbyaodFoJ7Na+dlabW4untg87HC09PTzy06korg7U+OnQ+XmhL3sKifduIzWtIr/CuNFKrUWs0aD080FTxhZXbCZbjq5g/Zz4/ljbAnkXstnRa9ougXcfRTBpm46fPV3Hw2B52HT5bkmilcrvNGQfZY2hP91ZpbI07XuwGsBxn1fw5zP/xEK5LHy6qf/BBp3PtkWpwV6PReJRUf9bhrdWgOa+74+riqlCyDpsVs8mMxWLBYjFjNFkrTmrZLZhNRgpzMkjeu43NiVnF8YjFJ2O1WDCbTBiNBvQmAMFhNWMyGtDrDRhNZmyVVuQolMd4bBtb9mdfWlD+RWMjZfkMBsY8zPLkw/z20y7aTX2IiRdc6sFJXkIsR5pGE92uNHDUTNq+9Xy3ZCE/HSyeVEPljkdAQ/SHd2Fs14N2XtUcV4quLZ0jBjJ0RAxXqsKP036W/Vu3ka5pS8dgrxpWWVXVTjCn7WP9d0tY+NNBjIDkHSAxvTmREW3wVAVyy4yZ9EtZzOzPTxHYrkHJy1+53Sp3DwIa6jm8y0i7Hu0o7p409q3/jiULf8K1ey6mfxoNe5tfPr6zxuQw1wX16i5wWsV45pCs+/Q1mfXQw/LE7Dny38f/KbdNni3f7D1bMrwyScov78jMOwdK28YNpIFfExn4+l/FYT1ilVOxX8s7L8ySe+64RfqHdZMhL2+W7NyDsva9/8j4mJ4S0qGjhI98UD7YnF5p6HlROB1it1cxZrpmcYjlzHZ5e/o98t4ug+vOOsIphQnvyNRht8nM2U/Jk3NXy+Ei12POh03MZpuI5MvPD/eQ6P9ulgqnG7Mlbul78uPxcgNrfZHoTZZyQ2vX45xid4iI2KUgeZP89MdxMZU/9nJiz5P9q+fKlJ5B4t+kp/zz7R8l4VRVT2sN7RSjZMctlfd+PH6uXfqionL3bRejvkgMJpehdqX+sRWHSVoqPufG7DhZ+t6PUnxYHfbPNU79KVmnSTK3fiD3DoyUEU99K4nZBjGbzVKYOE8GB/lIy1EL5ZC55FibWUypX8j4lhpRe3WSR38vKLuMtUhO71kmU0N8RevVTqa+t0IWPD5TXvvsJ/lj3QqZNzVMGnh4il/HyfLJiUtRjg6xms9KxqE42fDrDkm7Hp4op00MJ/+QeRNvktGzXWI/6xyLGA0GsVjMYrRcmL/NkvqrvL9gtRxJ/VmeHDFZPjxQUUEZjq6TFT//JWddnaIulD/OoU+RPfvTJC89Vn7+fZ+cuZRHpxY4bFYxlvgcTVZblX7NmtophqOybsXP8ldNDXWhdv1jkKPrVsjPfxUbP3XdP9cy9aRkLZL2+wtyS7um0vfBb+SI3n5uUiD314elUwOdNIl+ReKKzVURETEkvCR9/dSibT1NVpx2eRryfpF7gz1F499Zhj+xQH5LKRSLzS4Oh11MyR/LyCZqUauby4TlGS7B4SJmQ5Hoja6fVsaWs0d+mPcv6dfSX4KiKt7bhWI16KXIUH34+JXHKTaLXtJ3fiwPxYRK+D0fy56C875hVzWmpE/lvnH/lBfnvibzVx4SV3vcaTeKscJMT9WUPy5/07MyuPcombUsTjJNNZ9bF9TUTnHaxWi0VJpgq4na9Y9T7EbjuQmzq7F/rlbqRclakpbK9G7+4nPjv+WbEy7KxnJCEtb/LjuPFZR7WGxy7MOREqjWSJPbPpZU19HOntckqoFa1H795KWNZypaAXm/yOS2HqJWN5KBHx2u6DLQ/yXzRnaXyAd+kLQaf4kdYs1eI/8M9pXgB3+WPNfdtcV0WD6e3Ft6TVosh+vaGnY6xGYxiz5rt3wze6x0a91Rbp61XPaeMYndbr/0zfX76gyrGPRGsVmNYr5sN2GUoiKDmK01/wDXHVeinRfL1dg/Vyd1XxnBeYrvHx7O9MUn6Pnib/zybHilYHCnww7u6rJZOWcWX03tzfRvjUTP3crax24sSXAM4CD1kzvo+++fkVEL2fztv+lYbr7EmbmMsT3/ya95Adz6+S6WT2xedt28P3h06J2sbPkKa5f/m87nS7IBmPa+xs0x/0fr9xP4YnKzi5s1NCTw6uixvO+4n5U/P0e4zvWAK4WNgpSd/PLNFyz7ajXbj1toPux+HhvfiyCvyzFTqyWwz030a15DJ5ZjwYIFrFq1yvVjBYUL4ssvv6Rp06auH1811LmStaV8yJ1Rj7DGHMmrG3/jyR61eCnz1zIj/HYWZXXl2XUbeTG8fJGOXFb9qw93LtVzy3vbWfHADRWWGBZueIyIMQs54n0zb25dycyOpdOfgjiFotOpFGib07rG2iZ2UhbdSsSzNp6LXc3DwTUdXxXVlFmpA8wpK3ll5vMsi02jQK/HZBPcPP1o5OtRKbTo4mjE0Hd/45MJLWr94/Phhx/y888/u36soHBB/O9//6NJkyauH1891K27wCHpX4yXphq1eN84UzaWZcA4L0Xb/ythOrV4dXpEfiub8yqmcIs83d1H1IGj5f8Ou/o5C+WPZ3uKTq2VVnd8IGW7baLPz5Sje3bK5g0bZH+O63lV4Dwt3/6jlfj3fUHiDCJis4mlqCSY3Fqjr0FEHGIqOC3HE+Nlyx8b5VBeDefYbGI1G8WgL5KiCj4Os+iLDGK84OGiTUz6bDm8aZm8ODlC2jQMlK53zpPfD2VKTn6+5F+GrUAZOV6HKP7WS6W2RsdlwsyZ9BMYBTwbt6RZLYxYsJC2fQfHzW4ERkTTww+wl6WKsKTGEptqoUGvmxnctmJcpTNzPd+vSsLiH84/HphIcMlue95R4n//ilf+MYpRd7/HtvK1TaqjKJEdcYU0jehHiJeRk9s/4ZGRPek94n5e/2on6ecCd6uhyjIr1WEiLW4Vi178N6PDI5j4dhyloYmG3R/xj0EjeGpl+gXGtKrx9AkkuP8knl6yhl+WzaJ76sc8NnMBGzNV+Pn743+JW4M6fpquLDaMBj3GSp1swag3YLru464Fh82CMT8fay1eD4XqqePXQoW7WlOcsNisp1wypRIEm6GICuk6nTkkxB5Ejz89o3rTiCKOp6RT6ABwcCYulkN6b4KjoipmU5J8di77iBUnAoh5+HlmxDQ8NyxWNwoheuRQgv3sSLMe9DhX26R6TEd3EJvlS+9+3fBzuqF1mtB2/Q8ff/V/PHNXOC3Pk88TqiuzUh1etOo7lvsef4jhrU/z54rv2FGilL3ahjMgOJ9dBzPLFmRcACo3NVqvxnQe/iiLf/yKxzps5+X/vMLqFNd1PH9vzMnLuC8mhns/S66wwsmwawETom9m1qr0aywLnA1bpR+MqhG7HUteEr8ufJSxo2ey6tR1/4tyRaljJetJs5AuNFGDKXU3CSeMOIViX6XDhunUTpa99harj5R7rA0n2XeoCNEF07d3A7L+WMrXm3NwcwMoYE/sbgrcg+jWp33ZBJrTTObG93lp8QE6THuDdx8dRJMKLXXD3ZDEweMWmoRHEFyja9RG5s4dHHHvRkR3dw7//imfJN7Ag6/cT1QLXbmE0eenyjIr1aFWo23Um/GThtIg+Xd+KzF93RqGc+dtoxnWvd2llY921+LVJIyp85bx1uB0Fr2yjP0Xo7WvUxyFWWRmZpCRlV9BmVoKMsnKOEVmdtE1pWTNJ9fzzc+H0ddklYqRtPg1fPnpYj5a+AVbjuSVLL9VuFjqWMmqCBg4ibv6BaE9u5EFL37AuqQs8s6kkbj+U156YTnmW+5lbEg5P4LpDFlnreBmI33tO7y1uSEjx/dEpwL0SeyIy8bh0YQgf7BaLVjMhaT8sYDH5vxGg/v+xxdv3MmNvpWndvRJ8ewtaEBYePeas3lJHn9tT8TRpjXO72by1C+NmXLvLXT0L7bKa0d1ZVbOhzstY4YQqUvhjw370VOcIenA2VZERje+gO+uDhVqnzYMmvkGDzZLYMWmbOWFAhDBO2wmX+/YwbePhXMuAEQE/5gXWRP/J/+b3plaebuuEoxJK3j/890U1KRkVd606jOaqQ/9h9tDa1req1Ab6ljJgsovhllLljHv/sH4Ji7mwbHDGD31CRbvasBtz73MfVEtKz68/l24aUh3Wgc4yLN1Y/rDEygp+YQlbSexJ814BnmT9s2bvPHmPF5//jkWbNVx18IV/O+xIbTXVWVlmkndGUe6NpTIvo1r7oTCRLYn5GAzpbJ5w0Y2bd9Diu0Cw56qK7NSA+5NIunXRUNK7A7SLWA7soUTnn2IbnTpKrYUN682jHj6ef7Zq87iya5enGbOnjnJgV27OZhiRls64rAbKMhKITFhL4dSiqj0C+ewYbFYsdls2GxGjJarzc61YrHUpGGLUanVaDw88XHN66pwcdRtdEEpdrGajaLXF0lRkV70BqOYzLZKq7FKsRn1UqQ3iNFcPl2cXdKXjpemGl/pOXuLnDGZxWIxi9lsEqPZKq4Z8CpgT5fP7mgifr1my45KK7cqn2iIf1HC/VvIXZ8fk/RVM6SLb0f594rMkvt1VBGEX/ka1ZVZKaWKM0rQS+yc3uLX/C5ZcSpD1i9ZImuvUPkNR/U38bfBdHKLfPXqBOnS2E/aTPpcildi2yT30Eb5Zv406R7oJy3GLJLkchEfdnOeJP/xqcx96XV5b/H/5P/m3C2Tn/pGDleVfqCeuKDUgiLXdLmXq40ajbgrgzsaDy98fHTodD74eHvh6VFu8YELai8fdD7eeHmUTxdXyJ7YXRSoGtK9VycCPD3Qaj3w8PDEy0ODSwa8ihQmErfHQGDfCDpWGLebOZubS4Gh/AyBjczYHRx170q/iFa0GDSB27plsXr5KpIsgjX7JBm5pSWaq7tG9WVWAMxnc8ktMFQTLeBDSHhvAs3JxK9cQ7JfJIOaV9dTl4bb+frsb4Jn6wiGRTZDZXKnfVhPiucn1TQKiWbk0GD87EKzHj04N1dqSuHXV6fx0DIDA++fyQPT7iSmeS6bln3Eyn2Gsgs7jegNNU8umg16jMoY/briyrytdYE+iR07T2PXdaDHjX6VRm/nw3A0lvhsX3pFlKsSChTFvsHobp3pN31xWU5RZw7xOxKx3xBJeHMN6MKZNHUYnhs/5v1vNvDb+j3kaspCx6q8RrVlVoCiWN4Y3Y3O/aaz2DWRaQm+oWGEuCex9i8VfYeHllvtpnD5cXB6dyLpbu2Jimpb1tdu7hiSDnLc0oTwiOBin7oUsP39R5i5KoApT99D30BPNBpv2sTcy5yXZzEutHQq1k7G6icZM+ltdpyvCmtRHO9MGs0TK1Or+cFVuBa5ZpWsNTWW2BNm1A2D6RxUcwhWGTay4uNI0fYkOrK4KF0pbh46/Hw1ZG/9k/15JVNAhUnsSxI6REQQ7A2gpdPkp3hqjJoti74gtW003f3KVHyV16iuzErxCej8fNFkb+XP/VXP5Kr929L2xkFMvWcCYTWVA1G4NBzZxG47gKV5JNGdyw9z9CTF76WgQRjhJZMClv1LmbtwKwHjpjGuo1fJD70Kn46jmHb3MEK8Sp8LN3xadSWqb2eanm+2TBNIx4hoerb1q2Xi6yqwGDAYqtoEMFbxuQGDweR6FYXLSf34ZC8Nq0UvBz4aJ000avGPel7+Oms5V8KjWpwlDkdnliyf0kqChr8rByv5zMxiKEiUj2a9IBvLrSwzFhVJkbH8cSJWY3FpkcrJi6q+RvkyK663ajYUSOJHs+SFiieU4JDcuKXyxpK4ciWiFa4UzjM/yD1tvKTV3d9IVnnZmvbLvIH+0mjIOyUlxA2y66X+0kDXTZ7583zJb+1iPHtajuzfKTuP5lXhvy/BUiS5KYckYWdStWkDnXabWE16KSoq59E3FoneWHqjetn13p0S3qOH9HDZunX2FQ/vEOnavfK+XiNekD9dHz3FJ3vZuPYsWdNR1n3wLE//31YsPjpUKb/w1msfsGZf3nnCTazkZJ0m3wGSE8umOA9ixg6vIou7FvPRvdhDR9G3nB/BS6dD51IQVONVXFpEW8lPUfU1zpVZ8dJWGj5ozUfZaw9lVOkJYsViseEQJ+aM7aw9EMitk/qUlIhWuJLoD+4gPkdHz6g+BEjZoN2Rm0BckpN2ERG01AJSyIl9RzB4tySkg0uKIyl7Ep1F6ez//S3uGTqe+VvyqxypgI2cI3/w9r1DGffqJnKrOkhMnNqzlv97dAzRd73LXyaAs2yaO54xz/5OthPAm65T32bF6tWsdtk+f3ooIdEPsmRl5X0/Ln6QSOXhumK4vu9XP143cPOD81i+/ThpaWmkJm/gfy89yOhujaodYtlSljNjYAwPL0/m8G8/savdVB6aGFK5Vr35BPuz2zFyYq9KmcFqzQVfw8yJ/dm0GzmRXt4AQtG+r5n76iLW/LmO7385TccRQwipXWCtwiVhIS0ujnRNJ6LC/ck6kETp/GRhYhx7DIH0jehYEuPshpvWDRwW9OWWLorDRE7aKfJL9LObb2tuDPHDqWpFj+7NKj9zAGho3KYpGr2dlr3CKq5cLEXlRbMeI/jXQ7fTdt8PrNxlABoQNfEOOnvacKoojntu2IyWLVtW2loEeeKuCaR5q8r7WjZvjKaSsQC1C/hSqIlrT8kCGq0H3iVF1XQ6HZ5a7blidFWhDgwlIqItpoTP+SwxmNkLHmNAVaGqnu2IHBxO2+rL2NfMBV/Dk3aRgwk/d4KTotS/+O27L/hyo57ut42id1DVr6bC5cZA2tETWIM60DRnI5vSNRTPTxo4GhtPtm8vIkpjnFX+dImOoIX1IL+tSSDbaMZsyufIuq/4NiGPsjp/wtm9e0n3jyCyQ/UPhT17F/EZAUT371jtj7PKXY1Pp+GMDstm06ak4gKH7kGEDwgj8JySVKFSVbWdb5+LhnXYsZnPkmt2gDjRm63Y7NWPExXOz3lU0/WDyrcXDy76gc/nPseLL8xkREj1QfcabXX2cO254GtotOWscHeaj3yD3+M2sOzZsYQ2ulypCBVqxpOm7UJpLclsOxjAgJs6FS+MsWURH5eCtmc0kUGlr4yWDne/zNuPD6Dgq0eYMGUGT85ZwEZVJBNHdsX33Jt1ln079+Letx9dqp20FHITtnPAqx/9u1V7UDHqFvTr3560TZtJtRSw76iKkMhm1Y7iLhwb2YnrWbHkQ1YmO9E5k1n1wWK+XZdIthLycHFcixNfCgpXDIteior0YrQ4ys2VLpcprYJk+LsHKxXjtFlMYtAXid5oEpPJLBbXVTD6OHm+T2sZu/hEWdFGm1lM5vKzWwWy7pHO0mbi55JmLpvUsplNUuGwEvSxz0vvGybL55vWydrtGdVPppXjghYj2G1itZpFX1JzzGCxitVWm29RqIq/hSWroFBrtD7odD54kUfW6XwcCDmxm4jziGHs8BtwdZeqtZ54++jw8fLE09MDrcsqGNupnezMbke/iCYUL/C2cHzVfObM/7EsjtqcwcE9Btp3b0Xa1jiOmwDLcVbNn8P8Hw9VyAIG4NMhjFC3nazaYSG4V/NaWrE+6HS1HBO5q9FoPPApccd5azVoyvwfCheIomQVFCphI2X5DAbGPMzy5MP89tMu2k19iIkhF+obd5KXEMuRptFEtysNkDWTtm893y1ZyE8HS2bVVO54BDREf3gXxnY9aOcFmNPYt/47liz8idLDzqFrS+eIgQwdEVNFhEzVNBr2Nr98fCctlTe+znH38fF5Ydy4cQQHB7vuU1D4m+KG2p7Bvl3HKMhJI7fZFP77n6G0qKVCAzsWixO1uojNi99kT+eHmXVLmxIr2JM2ESPp18SJplMEnfzdQN2YHqOmMGV0JB0CvYotH882RIzsRxOnhk4RnfB3ExxOFW4qB2ePJ2NuP4ZxEUEl1nFt0KKtHG+oUAfUeY0vBYVrAysmox13tTsO1HhdwGSmNe03lqy0MmycO0vu/4p2b37C/TeWaWjjsfWsPdyIocPDKLdY0AUjx9av5XCjoQwP80MMx0k8oaG1fwY7DnrT96auNK69hlWoR+p98CAWEwa9AXNVAdgIFpMBvcFcTRC3Qt1QgxzEgsmgx1C1EK9RtHh5e6PVelyQggVwGk+x749VfPX1XoLum83d5RQsgFfbKEYO6XkeBQvgRduokQzp6YcKJ7nbFzFr2gO8+ocbPft3URTsNUT9KllnHlvmTyYqYjRz1mRVyjTvzN3I3IlRRIx9gbXZSpxefeHM28L8yVFEjJ7DmqxKUiJ341wmRkUw9oW1KGICz46TeeeLhTz76ExmjOpUKe5V5e6FV41DdxXuXh6orEbyjmzmp0OdeeOnb3h1Yi+aedZ0rsLVRP0qWVMKO37dQtKRnazasAfX2oLGo9v5dVsSR2LXsGGv616FusKUsoNftyRxZOcqNuxxlYORo9t/ZVvSEWLXbOBvKyazGfO5MAAN3j5eqDVeeFyYEXwOm9XC2eM7+OK5uxh8063M/GAbZ7XeeGjq95VVuHDqV2LeIQyadDuDB4xl2pg+lcrA+HS6mbtuG8SAsXczupfrXoW6wjtkEJNuH8yAsdMY08dVDj50uvkubhs0gLF3j+bvKSY9uxY/yiMLtpN/GdaiijGFTcveZcFna/gzPpak03osNtcRhMK1Qv1PfFnNGO2Cu5cXHpVGQYLVbMIuary8tMrKp3rEajZiF3e8vKpYgSZWzCY7oq7NMPh6JI9f7+7Nffo3ifv+dppechcIVosNQcj6djzh9/xCQeup/JzwCYMbuh6rcLVTv5Ysgqi1eGirUrAAKrSe3ngrCrYEB7b68HmKoNZ6oK1KwQKotHh6e/9NFWwJDjt2+2UwY6H4uffQ4uHhgU+D8tVAFK5F6kfJ2i2YTUYKczJI3ruNzYlZVFmNWpw47DZs55m0dtismE1mLBYLFosZo8laaQLtesF4bBtb9mfXWdZ8u8WMyVhITkYye7dtJjGrSikhTgd2m63qyAOKiwxazSbMFgsWiwWz0YT1ehWSgoIL9aBkzRxf/yHPTB9B985dCI8Zz4u/ZZZTjILVasFsLCT7xD42r17Oyj3ZlRWn2DDlJLHxy7eY/cSTPPfKa7w8ewZT//UyP+wrvM7StDmx5uxg0atL2e/UVZMu7zJjPs76D59h+ojudO4STsz4F/kts5wUxIrVYsZYmM2JfZtZvXwle7JdpSTYTDkkbfySt2Y/wZPPvcJrL89mxtR/8fIP+yi8voSkoFA19ZIgxmYWU+oXMr6lRtReneTR38vSsjsL98uqd5+SaUM7S2ADP/Ft0ElmrM2pcLo4TZK59QO5d2CkjHjqW0nMNojZbJbCxHkyOMhHWo5aKIfMFU+5ZnHaxHDyD5k38SYZPftXOV2bBB+XCZvZJKlfjJeWGrV4dXpUysTklML9q+Tdp6bJ0M6B0sDPVxp0miEVxeQUU+ZW+eDegRI54in5NjFbDGazmAsTZd7gIPFpOUoWXjdCypVf7molzUavkFOVKmVcGmdW3SpN1WrxaD9d1ue57lW4FqgHSxZQe+DMTuFkoeAWGEG/7mVp2VW+N3LLAy/yzisTCVYZMXuGEtbVv9zJVtLXz+WeqS+xL3Qm7z13G6GB3nh4eGDLSCPDosJWcJYiF6PKYtRjMFU7oK2EzWhAb6yrgXlVCHargYz4pTz5j4f53nsyLz8+lHOZ9uoAtYeT7JSTFIobgRH9KBOTCt8bb+GBF9/hlYnBqIxmPEPDKC8ma/p65t4zlZf2hTLzvee4LTQQbw8PPGwZpGVYUNkKOFtZSOgNpurdDq7YjBj0xjpznygoXAx1+MqWx05W/E6OG1U07B1NeEB5174KrdYDN30u+VbQdQqnT2BZsKH18HLmPP4uW7zGMuvJW7nBx/3cxECjm2bxxfc/sHrpDHqXryRg2MWCCdHcPGsV6a4j2qowJ7Psvhhi7v2MZNcUSFcacWK3WjCc3ssPL09mxPg3Se71HIvnTqaLzonD4bi0zfX7zoc9i/idxzGqGtI7OpyKYtKi9XBDn5uPFR2dwvtwTkzWwyyf8zjvbvFi7KwnufUGH9zLhMSsL77nh9VLmVFRSOxaMIHom2exqnZCInnZfcTE3MtndS4kBYXaUz9K1plD7JY9nEVHaFQkQZUCts2cjN/DKasHrSMjaVNal9l5ijUL3ua7g0KvydMZ1cbFO6ltQ8+Ym+jdvkHFGVlLAZlZGZzKzK5k4VaJo5CszEwyMrLIr83xlw0bBce3s+KtR7hjyAj+9c4WrL1vZ3xvDce3/cZPP/10idvv7MysvUJy5sSyZc9Z0IUSFRlUOaWe+STxe05h9WhNZGSbkvLZTk6tWcDb3x1Eek1m+qg2Lj5kLW16xnBT7/Y0qCgkCjKzyDiVSXbthERhViaZGRlkXXEhOdBnnyYrK6ua7TQ5VkHsOZyutK9sO51dcGE/cgrXB/Xik837WR4K9hS1bx+ZE6t33StiPymfjGsiao92cu/KMkef9dgHcmtTjaj9B8jc3aYKp1SPU5wOh5zNPC4nc1xTLleFU5xOh+izTsrxrCru7QpiOvaj/Hd0N2kV2FB8vTSiVqtFq2skTZs1k2aXZQuVf3yTXqlabnXk/fyQBHuqxbfPHKlaTJ/IuCZq8Wh3r5wTk/WYfHBrU9Go/WXA3N1Sayk5HeI4mynHT+ZUSoxdFU6nUxz6LDl5PEuquLXLi/4vmXdL+yr6s9ymVYta3bTy5+W2NgOeky0XWHJY8cle+9TLYgT9jtkMHDqXQy0fYmXsuwx1XSWUu5r7+kzgU+NwFsV9xz2t3QEnGV9OpPf0HykMnsHPO94hpsYKm3YMBWfIOplGZq6eRt37Expwvrl5J+azOWSlpZJ+Rk/jHtF0anieTBx2OzaHDZvdgVOjQ3cuD4gFg96Bm5c3XpXMv/Nhx2zIJzXhV5Yv+YBP1h7Db+gTvPXCFMKaelW2JC8ClZ8/DWo1ftGzY/ZAhs49RMuHVhL77tBKK/JyV99HnwmfYhy+iLjv7qG1OzgzvmRi7+n8WBjMjJ938E7NQsJuKOBM1knSMnPRN+pO/9CA80ZQOM1nyclKIzX9DPrGPYju1PA8Kf/s2G0ObDY7DqcGXZmQsBj0ONy88K5JSE49KXHxpOirs0MLiZv7IG+b/sUHzw+kUTWBrW5eLekV0YkGNXxdeXJW30bX29eQryxGuHape0vWLAfnD5KGaq20nrZCTjtFxKVkR9HWZ6WHTi3+A+dK4jlTyCC73+gjfmq1NBowX5JqYe7Ycg/Jxm/my7TugeLXYowsSq7hJNNJ2fLVqzKhS2PxazNJPj9RRe2Pcxglddt3svCZqTIoNFRGvr5TDCV79Lveldv7DJSHv0uTsmIitcfpsInFeEYOrnlDpkSGSJdhT8uKAwW1tkAvC+aDMn9QQ1FrW8u0FaelspiKZOuzPUSn9peBcxPPWayG3W9IHz+1qBsNkPm1E5Ic2viNzJ/WXQL9WsiYRck1WLImObnlK3l1Qhdp7NdGJn1erqxLFRhTt8l3C5+RqYNCJXTk67KzTEjy7u19ZODD30laLYTktNvFXu2WLT/d1Uqajf5G0m2u+8pvFy5BxZK99qmVTXNZceaQEHsQPf70jOpNI4o4npJO4TkjwULazlhOmj1oFR5Bm9KE8qhwV2tQAQ6znnJVmEsQbIYiTOViL9WNQogeOZRgPzvSrAc9mteQddmzNRHDImmmMuHePoyeTau3j8CLVn3Hct/jDzG89Wn+XPEdO0qSo3i1DWdAcD67DmZWvciiBlRuarRejek8/FEW//gVj3XYzsv/eYXVKbX3p14qzpwEYg/qwb8nUb0bQdFxUtILy3yKljR2xp7E7NGK8Ig2xQUHKa6oqikWUoVS2aWIzUBRRSEREj2SocF+2KUZPXo0r1TipSKetI4YRmQzFSb39oT1bHoeKxa8WvVl7H2P89Dw1pz+cwXflQmJ8AHB5O86SGYthKRyd8f9fBsAbpU/r7DV/eumUP/UvdQNJ9l3qAjRBdO3dwOy/ljK15tzcCu9E2cO8bGH0Ls3pk/EjZTVlfWkWUgXmqjBlLqbhBNGnELx0lyHDdOpnSx77S1WHymviNxwNyRx8LiFJuERBJefzK4Gx+ndJKa70T4qiralE27VoVajbdSb8ZOG0iD5d35LKH6B3RqGc+dtoxnWvR21+Mrqcdfi1SSMqfOW8dbgdBa9soz9tVAIlwPDyX0cKhJ0wX3p3SCLP5Z+zeYct3MPjDMnnthDetwb9yHixnJSahZCl2IhsTvhBMZiISHiwGY6xc5lr/HW6iMV6la5uRtIOngcS5NwImonJHYnpuPWPoqomoWEWtuI3uMnMbRBMr//llCc7c2tIeF33sboYd1pV4uvrC/EVvqD5LzOFtj8fah7JWs6Q9ZZK7jZSF/7Dm9tbsjI8T05V+Pt7D527s5H/HoQEeZfLkpARcDASdzVLwjt2Y0sePED1iVlkXcmjcT1n/LSC8sx33IvY0POmb4A6JPi2VvQgLDw7pV8ipVxkB27jQOW5kRGd66lgnSnZcwQInUp/LFhP3oAyeXA2VZERje+DOvOVah92jBo5hs82CyBFZuyax9HegmYzmRRLKZ01r7zFpsbjmR8T9259pzdt5Pd+YJfjwjC/MtJKWAgk+7qR5D2LBsXvMgH65LIyjtDWuJ6Pn3pBZabb+HesSHnLF8A9EnE7y2gQVg43WsWEo7sWLYdsNA8MprOtRMS7i1jGBKpI+WPDewvFhK5B87SKjKaxpcupMuOw2bDZi0k9XgOFsBpLiTrrBmr7fzLzBWuPupeyfp34aYh3Wkd4CDP1o3pD0+o8GIZjsQSd9qO7sZIIppUHAiq/GKYtWQZ8+4fjG/iYh4cO4zRU59g8a4G3Pbcy9wX1bLiy4uZ1J1xpGtDiezbuObGSj4JW/+iMCCc/j1q8baX4N4kkn5dNKTE7iDdArYjWzjh2Yfo6mZALgI3rzaMePp5/tmrzGq8kvh3uYkh3VsT4MjD1m06D08o/yNl4EhsHKftOm6MjKCCmFR+xMxawrJ59zPYN5HFD45l2OipPLF4Fw1ue46X74uiZUUhYU7dSVy6ltDIvjSuWUjkJ2zlr8IAwvv3qMUPZwnuTYjs1wVNSiw7ioXElhOe9IludBl+CC8z9jPsX/8dn7z9LLM/OYTodPgYd/D+M3N4/9Nv+SMpXwkFu5ao+4kvEZtRL0V6gxjNNqk45WWRwwtulkZqnfSevU2KKuwrxS5Ws1H0+iIpKtKL3mAUk9lW9aSQPV0+u6OJ+PWaLTsqxflUsf6x8E95oquPBI5ZJCk2R6VJqyrOKEEvsXN6i1/zu2TFqQxZv2SJrM2o8o4uGUf1N3GZsYlRXyR6g1HMLhOTYjksC25uJGpdb5m9rRopWc1i1OulqKhI9HqDGE1msVXZJXZJ/+wOaeLXS2ZXFlIVfV4ofz7RVXwCx8iiFJs4ai8k0cfOkd5+zeWuFackY/0SWbI2o+rn5oK5/Mtq7VarWC1mMRQVSVHpZjKLxWoV6+W5aYU6oka74Uqg9vJB5+ONl4dLGjfnGeK2H6DIoyNDBnct548tjzsaDy98fHTodD74eHvh6aGu2kotTCRuj4HAvhF0rDCsNHM2N5cCQ8UFmZa0OOLSNXSKCsc/6wBJqWW1mM1nc8ktMFSzhNOHkPDeBJqTiV+5hmS/SAY1r/KOLhm3OjO71Hj56PDx9sJDXfFLnWfi2H6gCI+OQxjctRopaTzw8vFBp9Ph4+ONl6cH6iq7pJDEuD0YAvsSUVFIVfe5JY24uHQ0naII98/iQFIq56RkPktubgEuYj2HT0g4vQPNJMevZE2yH5GDmlf93FwMPjp053xel467RoNG64G3ToeudPP0QKvRoBRHuLaoZ3E5sZhNmK0lkyM5sWyOy8UnbAxj+vq6HnzBGI7GEp/tS6+IisPKotg3GN2tM/2mL+ZQuRkYQ9pRTliD6NA0h42b0tEElVRnKorljdHd6NxvOovLn1AO39AwQtyTWPuXir7DQ0tWP10nOC2YTWaKxSTkxG4mLteHsDFjuGQxGY4SG5+Nb68IKnhoqutzQxpHT1gJ6tCUnI2bSNcEldTQKiL2jdF069yP6YsPVZhYO4dvKGEh7iSt/QtV3+GEXjYhNeKWd+LYtfi2y5CwW+F6o16VrCNnIwtn3s+zn+6mUJykb/yFDTltGfPPyfRxrT53wdjIio8jRduT6MigCg1189Dh56she+uf7M8rm0XwbNqO0NZC8raDBAy4iU6lvkM3D3R+vmiyt/Ln/rwqJ57U/m1pe+Mgpt4zgbBLVTxXFQ5yNi5k5v3P8unuQsSZzsZfNpDTdgz/nNynUpHAC8WWFU9cipae0ZEVk99U1+eeTWkX2hpJ3sbBgAHcVCYkPHR++Gqy2frnfsqJtQy1P23b3sigqfcw4XIL6TJbsgrXEfXhky2lYNMz0quhjzQf8b4kZm6T14e3k+7TP5UDRtcjLwBniVPMmSXLp7SSoOHvysFK0e1mMRQkykezXpCNZVkWRcQi+qIi0RstlXx1ZkOBJH40S16oeEIJDsmNWypvLImTC1w1eQ1QIJue6SUNfZrLiPcTJXPb6zK8XXeZ/ukBuXgxOUtcp07JWj5FWgUNl3crC6naPrfoi6RIbxRLZSFJQeJHMuuFjVKllHLjZOkbSyTu+hOSwlVMvVqyfn0n8sg9Q+jkSOCTeV9zKmoeS9+czI1erkfWFis5WafJdxS7HjbFeRAzdjg3VIpu12I+uhd76Cj6Vpie1uKj0+Hjpa1k4mvNR9lrD2VU6QlixWKx4RAn5oztrD0QyK2T+lDzItJrDT/6TnyEe4Z0wpHwCfO+PkXUvKW8OflGLlZM1pwsThcLidhNcXjEjGV4ZSFV7vPSz3106Hy80FYWEkf32gkd1bfEPSRYLRZsDsFpzmD72gME3jqJPtefkBSuYuold0F57GYTVqcKd3dB0ODhOhl2AdhSljH1ltdQP7+a2fIm//iiFW9+M4cBrnE+5uNs3niK1jH9aFsrTWHm+OaNnGodQ7+2XoBQtHcZ73xfRLdBwRiO6gkZM4Y+QedbcX8tY8dssuJUueMuAhqPSpNhtcaWwrKpt/Ca+nlWzxbe/McXtHrzG+ZUFpJLn9eM+fhmNp5qTUy/tngBUrSXZe98T1G3QQQbjqIPGcOYPkHnzYugoHC5cffx8Xlh3LhxBAcHu+6rE9zUGjQaNWq1BrXa7aIVLICb2k7Gvl0cK8ghLbcZU/77H4a2qGwhoW5I8zbNCfB0NYWqQ03D5m1oHuBZYuE6yY3/lNcX/MIJ7z7cOX0UPRpfz8Ue3VBrNGjUatQaNepLCXFwU2PP2MeuYwXkpOXSbMp/+c/QFlUspXXt85pRN2xOm+YBlIrVmRvPp68v4JcT3vS5czqjejTm71zrUaF+UE2ePFmefPJJunXr5rrvmsRqMmJ3V+PuALWX9rJkrqoSpxGDUXDTeOB5Cdb33xKrCaPdHXWxkNBeOSFhNBgRNw0enh5crPGtoHApqEREWRKtoKCgcIWo7UhMQUFBQeEiuOyWrNNkxOx0lmTIKkWFTlfLTB4KCgoK1xGX15J1ZLHhrXsYHhVGh1ataFWytY18nHX5rgcrKCgoXP/8P+CKqnqJSmy4AAAAAElFTkSuQmCC;" vertex="1" parent="JrayNG33wRIPSkq_cNoT-94">
          <mxGeometry x="0.15" y="30" width="255.56" height="80" as="geometry" />
        </mxCell>
        <mxCell id="JrayNG33wRIPSkq_cNoT-99" style="edgeStyle=orthogonalEdgeStyle;rounded=0;orthogonalLoop=1;jettySize=auto;html=1;exitX=1;exitY=0.5;exitDx=0;exitDy=0;entryX=0.5;entryY=0;entryDx=0;entryDy=0;" edge="1" parent="JrayNG33wRIPSkq_cNoT-83" source="JrayNG33wRIPSkq_cNoT-97" target="JrayNG33wRIPSkq_cNoT-98">
          <mxGeometry relative="1" as="geometry" />
        </mxCell>
        <mxCell id="JrayNG33wRIPSkq_cNoT-102" style="edgeStyle=orthogonalEdgeStyle;rounded=0;orthogonalLoop=1;jettySize=auto;html=1;entryX=0.625;entryY=1;entryDx=0;entryDy=0;" edge="1" parent="JrayNG33wRIPSkq_cNoT-83" source="JrayNG33wRIPSkq_cNoT-97" target="JrayNG33wRIPSkq_cNoT-86">
          <mxGeometry relative="1" as="geometry">
            <Array as="points">
              <mxPoint x="455" y="990" />
              <mxPoint x="284" y="990" />
            </Array>
          </mxGeometry>
        </mxCell>
        <mxCell id="JrayNG33wRIPSkq_cNoT-97" value="For each user v that rated item i" style="shape=hexagon;perimeter=hexagonPerimeter2;whiteSpace=wrap;html=1;fixedSize=1;" vertex="1" parent="JrayNG33wRIPSkq_cNoT-83">
          <mxGeometry x="380" y="750" width="150" height="50" as="geometry" />
        </mxCell>
        <mxCell id="JrayNG33wRIPSkq_cNoT-100" style="edgeStyle=orthogonalEdgeStyle;rounded=0;orthogonalLoop=1;jettySize=auto;html=1;entryX=0.625;entryY=1;entryDx=0;entryDy=0;" edge="1" parent="JrayNG33wRIPSkq_cNoT-83" source="JrayNG33wRIPSkq_cNoT-98" target="JrayNG33wRIPSkq_cNoT-97">
          <mxGeometry relative="1" as="geometry">
            <Array as="points">
              <mxPoint x="650" y="950" />
              <mxPoint x="474" y="950" />
            </Array>
          </mxGeometry>
        </mxCell>
        <mxCell id="JrayNG33wRIPSkq_cNoT-98" value="Likelihood Item Based" style="swimlane;whiteSpace=wrap;html=1;" vertex="1" parent="JrayNG33wRIPSkq_cNoT-83">
          <mxGeometry x="550" y="810" width="260" height="120" as="geometry" />
        </mxCell>
        <mxCell id="JrayNG33wRIPSkq_cNoT-109" value="" style="shape=image;verticalLabelPosition=bottom;labelBackgroundColor=default;verticalAlign=top;aspect=fixed;imageAspect=0;image=data:image/png,iVBORw0KGgoAAAANSUhEUgAAAVUAAABjCAYAAAArWJMqAAAAAXNSR0IArs4c6QAAAARnQU1BAACxjwv8YQUAAAAJcEhZcwAADsMAAA7DAcdvqGQAAEVYSURBVHhe7Z15XFXV9sC/lzsB9zKJ4jylgoihIoiAKUGaOZc2mPp+ZfNs2fwye9lgvgbLXoP2Ks16lTmkZk6lliLmrDiBQyqKgkxy52n9/gAZLoOoVFbn+/mcz0fvOWefzVlnr7322nuvpRIRQUFBQUGhQfDx/kFBQUFB4eL5bZSqeHC7XTgdDuw275MKCgoKf11UDT78d5nJzz5Exu4M9uzbS07oCCaOjyVY5X2hgoKCwl+PBlaqTk5t/Io5C1ew5IvFbC/UE/v8Kr5/qht+3pcqKCgo/AVp4OG/lma9bmLCcxO4pp0aO02J69VeUagKCgp/GxpYqQJqHRpLJgeOmFCHxZN0ZYD3FQoKCgp/WRpeqQJnd25kWyGE9OxDbIjiTFVQUPj78BsoVTMH0tI56TQSlRhPE7X3+d8Gt9Pt/ZOCgoLC707DK1VHNhvTDmH160hSUhv0ULq0ymzCZDJhMlux213ed10alkNs+DmDXKf3id8KNy6nA4fdhtViwWw+N9fnxmE1YzJZsHm8blFQUPhb0OBK1ZO3ibQ9JWhbJJDY2QC2I/w0eyr3DYii3RWdiRnwD5754Ed+tXvfeXF4HGfY+OHLzM7wYNR6n/0tEGwntrB07vu8NvFubhl6Ndc+u5gcjxtT5ve8Nq4fMb2GM2lpDg3cdSgoKPwJaHClWrQ9ja2FKhrHJ9E9EPBtT+Lw/lzZtAndxk5j3oJPefXeFNrpve+8UASX5Rjr3n6If65pyU23dMPf+5LfBBXqwLbEXtWT4KNrWbX+EPq24fgdXsq0Z1/my/RMjh3ezA/pWZi9b1VQUPjL08BK1cS+tE3kuoLonhhHqMqDs3A3i17/gMyr3uDTl24muqkBvV7jfeMFIS4H5hObmf3k//HQfH/GTHmcAWEN/KfUgTYgjJYdOtHUX3BpWxLXtYhFn2ykzZPfsPDdx7n1ptu5d1g3Gmrdg9NixmT53XwbCgoKl0DDaiL7r6RtPIrNGElSQhMc2Rv4+KX3yYp/klcevIrW/moufi2A4HE5sJtPs3PBFMYMupF/Z/Zk0szXGNPViMftxn1Jh/fz6sIHlfkwu7OKUIVG4b9tMUeibmNMXEvChz7Ffz58ldvigxrm5doymXN3Msl3fkqmsuVXQeGyp0F3VLmP/Zcbe93LyrAHmfNuD358+WsCJ77Pc6mt8b/EVQDOosNs+v4r5s75gsVpR7C3uJZ7H7uRnmF+XGLRAOiaxHF1Ygt8vU/UgmP/WwxOepJtrVMYdu1IHpl8N91/C/+DeQsvDx3Ou+57WfTdJOKN3hcoKChcTjSgUhXOLLyT2NFzKGqXQJzvXjZkBnHLp+v56Kbml2a12Q6z6KUJTJ6TzvEiEyarE/HxJbBRAPqLN32r0GjAdFZ8fBMt61VRN8f+exO97luKqVEyEz/7H//q38j7ogZAEBEsudnkEUq7pgbvCxQUFC4zGlCpnmXtE4kMnv4r7Ue/zou9NjDx8a9xDJ3B2i/uptMlzsy7bGYKj21h+ZezeO/jZRwKHMATb7zA2Jhm+DWEqaoKJDioXhoVJJdvxscxZu5JAq6ZyqqFE+nhbeJ6XDidTpwuN+JvxFCu/B2YTS7Ufv741llvD7biM5w6fozsPBONu/ehc8il+aIVFBR+B6ShsOyQV/oEiSb4Knl181lxn1kqj1zpL5qQq+WVTZZKF3oq/fsC8bjFabdI3t4lMnVsgoR3vVaenrdHitzeF/7GFK6Qhzv7iUbfVsZ8elhc3ufFKQX7VslHk8ZKfESs3DXvdPlfbd7xttzQI0UmLMgWp9ddVbAelZ+/eFlu6tpYAtuOls9+rfNqBQWFy4R6mmbnx5WTTtoBM7qW8fQOD8An9GpuHNkD/5JfmPfVOvIFQLCcLsR6sQvjVT5odH40jryOR2cu5IvHOpA25WFeWnyY33MOx7z/Z9JOOFE3T2XYte1q8OlqCAlPZuz4QURYM9m05WD58irftjHEhBxk4+7jWL3uqoJvG3pfm0BzlRX1FTH0aKZYqQoKfwYaSKkKBVs2srPYh8a9EogKAPAnbuRN9AtzsHfBHBbtN+Ms/IX/zV3GoUte+K9G59eUmHHTmPNGKtkfvsScjEsutJ7Y+XX9Bg5ZfWjatz9XhdXi1PXRoG8ZS2xHLTkZ+ykoW13gE9ydpKQUUntFcL45J/fp7ezO9uGKpKQGWNeroKDwe9BASvUsu9I2ccYTRLf4GM7FUNFFjeGB/+uF8eRiXpv4NJNfXoC5+7V0aaBYgCqNgbYpE5h6f3O2zFtL7sVawBeC6yTr12dQ4tOEpGuuos7lsdpQOrYyYj+Wyckys9R9agM79cmMSQk5z/IyN7npG9hjb0FCn0iUKSoFhT8HdamE+mM5zK6Ms+ibRhMf35TygaoqlGsefI4HU9vgOHYIR8xoxl3dpIEeWoaPH20HPc3kO3qe1/JrCDz5u9l5wE1A26vo369ZDUP/yugJaxOKqiibQgfgPEXakr00GjSKLjrva72QQras38rZ0Hiu6h7kfVZBQeEypcFm/x0mEw5AbzRSdaJfsFvMOMUHjd4f39/KNegR8Knb9msYBLPJjKDC32g4Twfh5PDM6+g1yZe3t35J/M45LPekMH5oZ68ttQLedmvJTzyZNIhP27/Jpvl30krj4/VeFRQULkfq1gkXgM5oxFhNoQKo0PsbMRp+Q4UKv5NCBVBhMBoxnlehAmjwDzGgcRZzcN18ludFM2qgt0K1UZyfT5G56jZU+/Ff+CVbS+ekeIJP7WH/MUuV8woKCpcn59cLCpeACl2AEV/XETbsCSB1ZBLNvHqdkvSpDI2OJPH2meyrtITBfPwgvzrC6NDsDGvWZqMN+y22aykoKDQ0ilL9jdEEdSblrqm88eQwIgOqW9M+eiOBAVpy168jo6Bips23WXui2giZG/YS2vdqOntvLlBQULgsaTCfqkJtWLHYtPjX6vuwYynO4rMp84mYNJnk8jkpB2aTA9Q6/Px0Su+noPAnQWmrvzl+dShUAB22gztxRQ2hV5VJfh0GoxGDolAVFP5QLtTqVNrrH43tVzJy2zP4lp6/U5BtBQWF+iBuJ3ZLIYWOC1OryvD/MsDpcKPV1b3iVUFB4dJwOp1otdXXJ1VDXLgcZ8la/Skzpi/AdPfXfHpji3pboPW9TuE3RFGoCgq/MbajrP7qOw6YzmdDCpbjm1ny+SfM/GAGc3/OotL8cb1QlKrCZYsyhrpQ5IL9f38bLPuZ9+5nbC863xtS4d86jqHjHuDhkVH4XVBGkFIUpapweSEunHYz5qLTnCyyUWEkCBaTCZMVwIPLacdqMWMqTw9eisNswmKr3hLcTjt2h7M0xq3FQkNnSf/tceO023E4S/8Gi8Venq1XXE7sZjNFp09SVDk3ulgwmUzl0dDcLgc2qwWL2YQdcDtsWC0mTGYzFnv1d/ZXw2G316/TUWnQaPX4GlTe+xzrhaJUFS4j3BQfWMUHjw8mJrI3D84/XqE4chfyWJ9wkl9aS35hJmvnvMzdKT25+tH55J5rKZadfPCPvgx9ZjEnypWmG3thFj99/jbT3nyfTz+bxUv33c3kBZk4zl1yueO2U5j1E5+/PY033/+Uz2a9xH13T2ZBpgPcxRxY9QGPD44hsveDzD9e/sbIXfgYfcKTeWltMbjy2LXkP/xz9ECuSryFt37YwY+znuOOYcnExyYzZsq3ZDXAC1FGF4pSVbisUBMUcQ3DY4IpMTcmOroFpXFn3GSvXMT3BzREdYukUUg4yWPHMyjCSuamLRysCFZLTEwIBzfu5niZeWY9vJyXb3uAOeZ+3DvhPm67OZkW+WuZ88Eidl12OcSlkmV+DiuHl7/MbQ/MwdzvXibcdxs3J7cgf+0cPli0C7M6iIhrhhMTXIK5cTTRLcoi9bizWbnoew5oougWGQiaJkQPvZle/sfJMvtgOZKJuv8zfLTwS6akmvlhxou8s67Q++H1xu1yYCo8RXZh5dHF3xNFqSpcXqisHN6ThblZPL07lQU8dGaxbNEqcgK6kxgXigofNPqWxMZ2RJuTwf6KYLV0T0oiJbUXEUaQojTefWQC34aO5enxvWjiq0Xr35bkO59nysQRRF1ma9js+Tlk5xSVW+cgFKW9yyMTviV07NOM79UEX60W/7bJ3Pn8FCaOiMIfUFkPsyfLTLP43lS8smUsWpVDQPdE4kJLB7Fqezb7MvNxqhrTtd9g+nUKxT/gCuJjO+BnOc6+o2cuznp35rJrwYtc3zOBRxZUjC7+rihKVeHywnqItPSTGGN60y0IQMhf9zmfrDyDoUsfEpuf20ihJbRjK4z2Y2RWBKtlw049yWNSCFHZyZj9GjPWhzLithFE+JV5x1QGIobcxj+uDefcTxdHA49zLTuYMaY33fvdw5yssoDr9gxmvzaD9aEjuG1ERHl9VYYIhtz2D64N90MFWA+lkX7SSEzvbpS+snzWff4JK88Y6NInkXOvzHFiExuPeOh8/Rj6dzKgVgE4OZtfjBM9jYNrCohUD7RhRPVqjS9N6datZdno4o/CjtlsrvEQwFLD72azue4sHBeIolQVLiucJ9NJO+BDl4Q4GvsA5gxWrtnAafGlXWIi7SvFQNCHtSFUVUR2abBaTqUtYW+jQYzqogPLXhbNX0dhmxRSYwIrPwI0OrQaAA9upxWzqXIEMCsms7UOlenGZSuhMLcA+7lxrlgwVSmjKuJ24bSZMZkqRSKzmjBbKz1FHUDTFi1p2bIlTQylS+wsexcxf10hbVJSqf4naMviFjs5mZ7GAZ8uJMQ1pvSVrWTNhtOIbzsSE9uXpV33kL9lIxmOTgwY2IuQcwW5T7Nl8yHMYQkkxzS+qIkZAFPGdrL8e5MYfuHmf+3v+sIxb/+QO1L70KeP1zHkOZbsW8O0G6+qfq7fTUz7qdi7qItGUaoKlxFCwdY0djnbkxDfCh0mMr5PI9cdjEea0TupC0ZnhcdOF9KaEI2dogILpoMrWbCzGdeN7IEBkLO/sivLjH+rcDp4tXMp8xa48g+w8t2HSL3uSb7LL/2teN1r3Dh0EqvzavIMCrYTm/j4vquJGfk+282lv51e+BjJV09mdYH39YBYydmxjP88Oow+t05nqxWgmLWv3ciwZ1dWZKvQd2D0f1az8btXGNxCAwhnf91FltmfVuEdqsXfLZ+rlwK2pu3C2T6B+FY6MGXwfVou7mAP0qw3SV2MlL6yYnambcXUvj8DYgPKS7If+I5vf7LS7ebbuaGdFjxunFYzVfsZrw6gGiYOpG/FE5tIt0APbpsJk9WB6zwLCtwuGyWFuRRU9E5YTCZq7Z7Ejctpw2wyUdE9Ve0E/a8cx5vzFrN4sdfx2dMMCO/D/bMWVT+3cCb3J3j1WpeAolQVLiNK2LdxK8VNYujdSU/B9iWss3SgnSuLwpA4rop2k7k3i/yyxqrxD8GgcVJ8cB3zl+cRPWognc9pHx8fdD7gtpswV2gg3NYzHM8pxAloQiPof9MAOuVtY1tZvNqg2P7ENrZVuqcyKnxbdqaN3oo+MppOAYD7KCsWLic3vAdRwd7XAyo/mncfxF0PjKTdrgUs2mYGgki6ZRSRvk48lUxDjZ8Bo79veaP08dHhgxu7yVxJibqxnjlOTmGZWinZx8atxTSJ6U0nfQHbl6zD0qEdrqxCQuKuItqdyd6sfNzmA2zYlEvj3n3oXqY/xH6UZTPnsD38Hl54bCBhPi7yD6zk3YdSue7J7yjtZ4pZ99qNDJ20mhr7GQD7MdI2FtA5IY7Awl18NvF6ht39Gt9sy6nVRyu2E2z6+D6ujhnJ+6W9E3J6IY8lX83kmnsnrDk7WPafRxnW51aml/ZOFK99jRuHPcvKst5JpQmheatWtPI+Wobhq9bSpEXr6udataCxtgYbva5+pA4Upapw+eDM4/D+PFQhAVg3z2XWD2r6DLqC/L05qFs1h/Tv2W1vTEjZBjSVLgCjr4sjG/YQkDqSpErBalXBXenTuyWOvStYsiUXi82GtTCLVV98zZYCTVkaHB80jSKIDDnDnoMlCOAuOEvz5Bvo27SWpmE5wuZdNromxRAMWHYu5H/LLUT3iS91V9SASq3B0Pk6hsbksnbt/lL/nTqM+L4xNKmhLZeiIrhrH3q3dLB3xRK25Fqw2awUZq3ii6+3UKAp/QuceYfZn6ciJMDK5rmz+EHdh0FX5LM3R03pK9uNvXEIrqMbSDukpkOXCPxdTpz2AnZ8/iqzDvfl9ZnPMrCVBtAQGtGfmwZ0Im/bNkr7mSBi+8fS2FZJsXvhztvExqOtSIgLovDXLEzdJ/Lhu08xKqZ5rf5VlW9LOrfRY9VHEl3aO3F0xUKW54bTo+beCb/m3Rl01wOMbLeLBYu2YQaCkm5hVKQvzkq9k0qlqvGo61xVMZRaxMX5NtwIHpMNh9NV69/vTS2fgYLCH4A6kFZdo2hu3saSzcEMHj+CbsF6glu1JTB/J9udPUiNC634aDVBdE65i6lvPMmwyICqDUPXgX9MeZPH+xbxxSM3MfbBJ3n+nTWoEm5h8JUBFWXoG9O2sZvjx85gd54kPa2IiGF9aVSLsnPm/EL6qXYkxjVBbT/Kzyu+I8OnM30SW9Y9yaNpSeJVV3B87U8csxex66CK8ITmdeY403X4B1PefJy+RV/wyE1jefDJ53lnjYqEWwZzZUDpX6AObEXXqOaYty1hc/Bgxo/oRrA+mFZtA8nfuR1nj1TiQoXcjWnssQeizfuJbxd8xcfvfsgqGcmbn/6LYeGV3oePhkYRkYSc2cPBEgHcFJxtTvINfam5nxGKtm4kwxBO4OYP+PhgZ0b/oz+dgnSU6f1asHBk8y5sXZOIKe2dWPi/5Vii+xBfe++ExtCZ64bGkLt2LftLeyfC4vsSU3vvdME4c3ezet4s3l+UicfoIfPb95j59Sp251bNzlEroqBwGeGxmKTEZBaLzVn+m9tcIiUlJrE6qlwqIiIWs1UqrvTGKXarWUwlJrFYrWK12cXp8b6mQFbe3lm6P75Ktq76QhZuOS2u8nNOsVltlcp3y6kvx0qHnv+UtLNmOfzj1zLzsf7StvvTsq7AIe5zd9msUqn65ZjSJ0tsxzHy2dpVsiztRKXn1IHTLlazSUpMFrFarWKzO6Xqn+ARi6lETGZLpWe6xVxSIiUmqzhERDx5Mn98Wwnq9oysyXeK0+kQh90mNkfNNXBnz5UhVyTK6xlWcZxYL19+sVqO1/D3lHJW1j0ZLU26D5VRSR0k9bXtYvO+pCYcB+W9Qe0l5Y09YhOb/Lr8FUltFSZXvbpDrN7XemHf+6Zc0/YaeXO/TQq3LJMl6YVe76QG8pfLmO6D5Yvj56RUFy5xOhxiM5VISUmJlJjt4nA46ycvEamlS/gDEM/fftHwZYXbWe/hTkOi8jNgNPjjp6+IQevjX5oTzLcGU9DP37cie281NOh8/TEYDfj5+uKr16GpZtBoMATrKNq0hE0+8fSPCSu3Hu1HvuX1519nYXmeGxOHdmSg7tyVoMzlbLC0oqnjGLounVBlbGBvgRvsR/j29ed5feE+KmXHAcDQIYYon018u9FOp54t6rRSy9Ho8PU3YDT44evri16n8RqqqvAzGDH4+1HxynzwNxoxGnxLreeSXWxILyCkZzxXNtKg0WjR6vTotTXXwMc/jCY6C6dy9rJuXR4dU5Npda5slx1b5T2+tiNs3Ggm6YHXmDI+jmOLvmZDMeBxVHFJuuy2KluDPQVbSDvQiISE1riPpPHLsTP4qFuQlNgG9TlF4P2sMnRtEklq8itbN6ezJTeYmNjgeq1aMBiN9boO1Gi0WvSG0rx7Rn8dWu05l9H5+U2VqtvpwGa1YbfbsdttWKyOKguDxWHHZrVgNhdx6kgWp0zezdiJyWTCZKr0ebqdOOx2bFYrFou5bC+4lO1jNmMymbFYbWUzngoXh4VDG34mo77DnT81aoztkxhx592M7nsFhkqtznZ8F6u/mcWMpXvLZqRVaAyN0R5YzJeZbRlwTTj+qiB8TuzhWGA0kY3UYDvOrtXfMGvGUvZ6T2Mb2xHZux8DBiXTsTZnY0PjcVGcsZ4N2VraRXSqX4AQjYFgXRGblmzCJ74/MWHl3QxHvn2d519fWJ5PzXUqnQ3ZrUjs3Z6IoaO51rmUz77dy6Ed2zhQXNYIa+hoTId2kKHuTNegTJZvsNCqqYNjui50UmWwYW8B7hqeVY6hAzFRPmz6diP2Tj1pUR9t1+ha3vz+I25u9ZuqvFK8TdcGweMQS94+WfXJKzLxgYfkieeel38+fofcMOY5+Wpncamp7iqQbV++JA/d2k+ir2gmjVoPl5mZ9irFWLdOlf6tgqVpwr9kw1kREYfkpP9P3nphoowfNVCuiomWa6b8JLn5e2XZ2w/Ljck9JLxDhMQPvl/e+ylbqpbWAHjc4nLVOg76a+C2S17am3L7+Ldlm9n75F8Uu0msNYrVIrm/zJa3Fx6pcAFYTVJisorVUTbgNJdIickm5/4rImLJ/UVmv71QjjhFRDzicouIuKQoc60s/fHIeYe3DYdLCjIWy2tje0hYcFPpccebsnBLzvnbhXmnvHPfBJmdUejlWimSdc8nS/u2V8m0rWYR8cjppQ9Kj6Sn5aezIiJ22T/3HumbdL1MXnqwwg1QtE6eT24vba+aJlvLvqmzm6bINVGxMnrSF7LltE3OrHpIekX0k8fm7pB8V03PqoxVdk79h9wxc6eYvM5cDjS8UvVY5eT69+TOfgky6KmvZXeuWWw2m5zdPU1SwwzSasgM2Vf2tj12q2Qvuk06+mkkoOckSa/yhsyS9kKSBGr00u6OhZJX9tF6HCVyesccGRceIDq/9jLu7XnyzuMT5JVPl8qPq+bJtHExEqT3lcCIMfLxrzW2lIvALQ5bsZzY94v8sHyjHP/9WsXvisdplqM/TpNbrh4qzy0/Xe4j/NtiPiir5n0nW4vP67GrhFkOrpon320tNR7cpsOyI+O4FGSny3crd0leQ32S9cXtFIelzDdodYizno5Bu6kWX7UlV36Z/bYsLO0xRMQkJSWVGoTLIqYSs1i9nlO1oxERsYqpxCRWq6PMH2qWkhKT2Kr2TlWe5SntncRVlClrl/4oRy7TdtjAStUux1e+IAPbN5Ne938lWSZXuQM5f/lD0jnIKE37vCS/lCtPlxz/ZKiEaXylw31LpaCiIJGzP8hTPY2i0TaTkZ8cr+okLvhe7uzkK9rgSLnuiXdkxeGzYne6xO12iTXzIxncVCMaTQu56csTDaIYnGd2yIJpd0liq2AJS6pc/78IHqfYTdmy6aMHJDkqXsZ/tEOKLkSP/FXxuMRisZ9/EqQKHnFZLGIvu6lw7bOSGjtEJs75RU5aL6ykyxHzwVUy77utckH9jFdHU1+qPMttksM7MuR4Qbakf7dSdv3uvVP9aVClat8/W26PDhZDl3vkq1+9pmrtv8qW1Stl06GiSi+2QL5/oJP4apvLjbOzKylAj+QteUSi/DWiCUmVN/ZWnU+07HhFkoI0oglMlBfX5FVTuGPa6UWjaST9Pjhw/qFOvXCLI3eJ3NEpQDrd/11V5f8nxuN2it1mklPbv5LnhkdLm4j+MvHLnZJndYnLdemHgoiIRUpKzGJzNET3/sfjcVnEcq7HqDdVO5r6UuVZhWvl2dRYGTJxjvxy0npByvn3puFyVHlymP/Qddw+81d6/GsF3z8bXy2RncftArWmYnbMnM6k5AFMPRTH1A3LmBipL/3dcYD//l9/7v8mB333Z1i59kV6l0XfATfHPh5Fr3u+Q4bM4Kev7yGi0qyw5+Qchve4g+UFoVz/2Ta+vKX+uWXqwrrzFfon/4c2725h7pjmDVLmH4qziMObvueruXP4YnEaR+wtuPbex7ixZxh+9XH8nw9dE+KuTqRFpb36CgqXgtVkQrR6fPXay7r9NZhSdR5+n5uTHmGJLYGX16zgye7nb032vW8yqM9T/NL2CZb//ApJRgAhb/Wr3HnbVJafdtHu3gVsmjGQij0W+Xx7Vxw3zzYx8O005t3Xscqi67M/PEbvYTPI8u/Pv9cvYkJEQ0yzujj84fX0ftbJpPTFPNTpUsoUBO8dHL83Ng4veokJk+eQfrwIk8mKU3zwDWxEgL6BatZoANNXfMxNLev/+ffq1YsDBw54/6ygcFlx66238v7773v/XE4DKVUPJz6/hdjbF3K204N8t/Etks8bn8BN9uybibtrKX63fc3mmcMIBShM48Pp8/hx+RwW7PDjltlbmX1L04qeqWQ9z1w1kNdPpvD2+vncH15ZpZaw5p/9GDZtDyEjprP6i/sIV7tKU2i43Ii/sdKSGQdmkwu1nz++57PMJJd5t8dy9747WLlmMnE6Fw6bDYdKjU6nRVca8qhOxOXEYXdgNRUhQc0J8S37i8SCyexBbTTi531TJVwuJ26nE5fbg9ZorNj+Zzdjcvvg5+9X73V0ALhsmAuPsWX5l8x672OWHQpkwBNv8MLYGJo1iKmqIjA46IIsiq+//prc3FzvnxUULiu6d+9Onz59vH+uwNsfcHGYZfvUOAnUaKRR39dlf70cmWdkyd1XiF7TVEZ8fLTUL+rOlXXTn5FXZ78lt7TUiabxEHn/kENEnOX+VlvGvyU5RCOhA9+p9hz3iQXyQJSfaBtfJc/9UCAecUrBvlXy0aSxEh8RK3fNO13uizHveFtu6JEiExZk1zzLWZni1fJoZJB0fnilFHnM8uu6D+Xevh0lou8/5IVP18vx820hcRXJvmXvyIP9wqVZuxEyq3zpmEdOz79HujXvKc+uKfK6qRKWY7LhmxnyzLgUiYoaLK9uOrfExCTbpo+UuH4PyTfHa9hudF484nbaxZK3V5ZMHSsJ4V3l2qfnyZ6iv4b/T+Hy53L2jV4sF2JI1IEKtUaLCnDbKkcFOofgNJdQJXqYKYv0zbm4jREkxIahxkHOD7NZZu/L8GZH2F7gwRiZREILNUUH93M43wW4yfslnX0mfzolJdG68ihcCtk05wPm/RpK8kOTeTA5BBUaQsKTGTt+EBHWTDZtOUhF5o0YYkIOsnH38fMGqLUe3Ej6qQBiE6MJ9Pig81jRXfkwH33xH565NZ5WZa7gWqlvyova8GtNr+F38/gD19Hm9DrmfbORs6UnaBffl06F29h7siyw8QWhwkejw69xJNc9OpOFXzxGh7QpPPzSYg57L7hWUGhAxO3Ebimk0NEAA+XLjAZSqr40D+9KUw1Yj21ny68WPEKp/9DtxJqziTmvvMHirIqW6i7Yx85sG7rmXYhuLhTsmMfb38HA2/rB7p3kOvW07BFH89wfmbtgGzY/DVDEjvTtFKnDiI67omIizGPj5Jp3eXHmHjrcNpXpj6ZUBH/w0aBvGUtsRy05GfupyLzRnaSkFFJ7RWA8V06NODm5aSNZ6mh6d1NzYOUnfLy7I/e/dC9JLY31GvpD/VNe1IZGo6NR7I2MHhBE5soVbDkL4ENI/M3cMPRaurUvn8m7KNQ6P5rGjGPanDdIzf6Ql+ZkcDFqWuHviBNnfTffiQuXvYD9y2fw6PChTPg25y+3Pb2BlKqK0H6juTUxDF3xGt7513us2n+Kgrzj7F79CS++8CW2gXcyPLxi8sqWd5o8B7hyt/C/KRO4/+0D9LrnXvqF2cg+ko0VFe6Tq3jzjXUED7yerv6AaT8bf8nFrW9KWDA4HHbstrMc/vEdHnt+BUF3/5e5U2+mS4CXgtKG0rGVEfuxTCoyb2xgpz6ZMSkhdU8aSQFb03bjbtsGzzcTeOr7xoy9cyARwaWWeX2pb8qLOlG3IvmaBIyHf+SHDBMAkr+H4tYJ9Gl8IbWpBZUGQ9sUJky9n+Zb5rG2PIKygkLt2I6u5qvvDmA6r9EpWI5vZsnnnzDzgxnM/TmLgr/gJ9ZAShVUgclMnDWHafemErB7JvcPv5ah455g5rYgbpg0hbuTWpWldSjFr30c/Xu1o7G/lVOOSO6a9BTDI42oMNAxrh9XtmqEj8lJxOgHuCm6NFK5/fgm0o/a8A3z5/hX/2bqv6fx6uRJvLPeyK0z5vHfx67hCmNN2klPWJtQVEXZlGbeOEXakr00GjSKLuebyD+7m7QtZ3Baj/HTD2tYm7aDw84Lncipb8qL86GmaUIiXbWHSd+YjR0nWT//im9cn1pD1V04Pvi1HcTTk++gZ90mvAJKSmYAy/55vPvZdorO+y5U+LeOY+i4B3h4ZFT94hD8GfF2sl4aLnHYLGIylYZqM5ktYrVVTDJVxSO2spBuZqu96gJ+p0VMJSViMlsr7al2SfbsG6WZNkB6PPez5FltYrfbxGazisXmqCGkW2UccujDVAkNGyxzj5dI1tL/yIzF+8R7R3FNbnPz5n9JfHBLufWzQ5L97YPSNSBC7pl3suxvctcYDqxaKZ5T8tXY1hLUc5JsNIlIyW6Z98F0eer6NmLoeK8szRepuja8WgkVmNLl+dhAaXHrPMk5sVpmzVomJ2p+wZeIu65a/L3xOMVhM4mp8JRkF1irbFoxl5RIiaX0f26nQ2yW0tCDVd6l3SQlZmu1b8flsInN7hCHwyEOs7nG8IGXI/nLx0j3wV9IvaLqiYiIR05+PUSaasJkcAPterycaDBLtRQ1Wr0fBkNpqDaDvx+++kqL/augQl8W0s3fV1d1OZDGD4PRiMHfl4osB2fZkb6NIlUI3Xp2JtRXj06nR6/3xU+vrSGkW2U0+IcY0DiLObhuPsvzohk1sLPX5gQbxfn5FJkrO4ecnEzfyEH1lST2bk3LlJu4IfoUi7/8lv12wZF7lBP5VRNG2IrzyS8yV8qhcwEpL0pLqKEelTCEEx/bBFvmZhYtySQwIYUWNb/gS8Tngtwbfx/cFB9YxQePDyYmsjcPzq9IySy5C3msTzjJL62l2FVI5to5vHx3Cj2vfpT5uefMOAs7P/gHfYc+w+IT5+50Yy/M4qfP32bam+/z6WezeOm+u5m8ILPWdCQKly+/SXP8TTDtZ+Om07iMHejeJfACG7wKXYARX9cRNuwJIHVkEpUybwBQkj6VodGRJN4+syLUmOcMmzfuxtUxgfgWWjDGM3rctfiu+Yh3v/qBFat3kK+tVFBJOlOHRhOZeDszK8Urq2/KC3Vt9ahCAFEx4aj3L2OrqhfXRZ1v6YFCw6ImKOIahscEU2JuTHR0i7I1w26yVy7i+wMaorpFEqgJITx5LOMHRWDN3MSWg+XrTmgbE0PIwY3sPl7q4LceXs7Ltz3AHHM/7p1wH7fdnEyL/LXM+WARu87dpvCn4U+jVB3H0kn/1YYmpBORYedzhFZHE9SZlLum8saTw4j0nsgCfPRGAgO05K5fR8Y57/nZ/ezaL3To3ZtO/gA6Oo95iqeGafj5w7kca9eHboGVyvLRYwwMQJu7nnUZBeWzmvVLeVEqihrrUQUNwe3a0SVlHONviqEiL6bC74bKyuE9WZibxdO7YikHyxatIiegO4lxoagAH42elrGxdNTmkLG/oGwk4kNw9ySSUlLpFWFEitJ495EJfBs6lqfH96KJrxatf1uS73yeKRNHEOW911vh8sfbH3A54rCbZM8HI6SpViPBSZNla7Fd7BfsiLGIueagmWXYxFy0Wz6Y+IJUXodvqeQjO4fDUpreoqYAETZzkez+YKK8UGUxfz1SXpRTcz3KcefLL7Onyqxfir3PKPxeWLbJy0nB0uLmz8r82R45s+o5iQ/QSHC/12RX5ZB0+cvkH20D5cqnNkqJiIi4JGf5dHnp0z1iF5vsmj5MWgfHy/PrvOTptIujrs+1XtTwgV4KNpOYTNWPY/Nvle6DP5L9Z6ufM5m8Go+I4lP9w7EeZNV7z/L0f9ZjNxhRHf6eN155jyW7zvX89cUPf9+aVgacQ4ft4E5cUUPoFVTxq5/RiNFr/6jWrzS9ha66wYvOdpCdriiGVC6kPikvyqleD3HYsTvdiMfGibRl7GlyPaPj6tgsoPCb4jyZTtoBH7okxJVmUDVnsHLNBk6LL+0SE2lfeSmHPow2oSqKsgspXXiSxpK9jRg0qgs6y14WzV9HYZsUUmO85KnRUboE2oPbacVsqpxGoGqu++q4cdlKKMwtwH5usCMWTFXKqIq4XThtZkymSr58qwlz+Y4dM9s/vIPUPn3o43UMeW4J+9ZM48arqp/rd9M0fiquKPJvgbeWvRxx2G2lVl3ZYbVfjKV6HqyHZd2yDXKkpo613ljl8LplsuFSCvGuh+es7Pj0XzJpxkJZs3yuzPrmFzl9MTtSFRoIj5z6aqy0Duopk0qXcsjueR/I9KeulzaGjnKv91IOxyH5MDVUwgbPleMlWbL0PzNk8b7SdSeenAUyqplGwgZ9Itle37OnbGmA88xeWfbmHRLf5wFZeqb0t6K1k2Xg1RNlZW5NjcAj1uwN8uFtPaVdnymy8Wzpb6fm3yM9Yx+XVfne14uIxyIntnwrb92bIt2GTpMtFhGRIlkzeaCkTFgup8uscWfBCTl27Fi1Y+fskXLlgOmSfqT6uWPZuVWyIpQ9ULFU/2i0On2pVVd2+Op06Bq65r7tSUiNp11dUU3Oiy/tE1KJv5RCvOvhKeHY1hV8M/dz1pi6ccOQWMJqSICn8HtRwr6NWyluEkPvTnoKti9hnaUD7VxZFIbEcVW0m8y9WeSfG0Zp/AkxaHAWH2Td/OXkRY9iYOcyR6mPDzofcNsrb+0W3NYzHM8pxAloQiPof9MAOuVtY9uxUkszKLY/sY1tNWwHB1Dh27IzbfRW9JHRdAoA3EdZsXA5ueE9iKoI91bpFj+adx/EXQ+MpN2uBSzaZgaCSLplFJG+TjwqABWakOa0atWq2tEyzBe1tgktWlc/16pF40oreCpRu5n9p6ehVdOfGq3uQhf114DWa3nYRVClHuoWDJ66kl9+mMOzw6No1FCh+RQuDmceh/fnoQoJwLp5LrN+UNNn0BXk781BXbqUg932xoScE6FKR4DRF9eRDewJSGVkUrNyd48quCt9erfEsXcFS7bkYrHZsBZmseqLr9lScC57pw+aRhFEhpxhz8ESBHAXnKV58g30Ld+L7YXlCJt32eiaFEMwYNm5kP8ttxDdJ77UXVEDKrUGQ+frGBqTy9q1+0vjYajDiO8bQ5PyT06FSlXTUdc57+/VjctpozjfhhvBY7LhcLou0JV3eVPLK1a4nPApS1Gsr3sxrsLvgTqQVl2jaG7expLNwQweP4JuwXqCW7UlMH8n2509SI0LrdSwNAR1TuGuqW/w5LBIqiw80XXgH1Pe5PG+RXzxyE2MffBJnn9nDaqEWxh8ZUBFGfrGtG3s5vixM9idJ0lPKyJiWN9ad9E5c34h/VQ7EuOaoLYf5ecV35Hh05k+iS29/PdeaFqSeNUVHF/7E8fsRew6qCI8ofklGwmVcebuZvW8Wby/KBOP0UPmt+8x8+tV7P4LZe5toHiqCgp/H8RqxuxRodbo8CubefRYTFg8KjR6A77emstqwab1p+Z5UhcOmwOnS/DRqFGpfNDodF6bWQpZNT6RJ0Nn8N9r8zgWksrQnmHlys5lt+FW+5ZNgno4/dX/kfTvtny25lmabfmO1Utn8fKPPZnz44v0CSmNml/1ngrMm14geexBHvnoNkJ1XRiQ0OK8SrVgxVhSZwxmyeLRnD8DtBuX04PbYccpgI8OvdYHH+05y/zPz3lfgYKCQlVUfgaMBv9yhQrgU7Y7sJpCBfCrTaECaND5+mMwGvDz9cVX761QS68xBOso2rSETT7x9I+pUKjYj/Dt68/z+sJ9lO4VMXFoRwbqzl0JylzOBksrmjqOoevSCVXGBvYWuGu4pwJDhxiifDbx7UY7nXqeX6GWYsBorFbpWlCj0WrRG8rmSPx1aP9CChVFqSoo/BlQY2yfxIg772Z03ysqZa8AbMfZtfobZs1Yyl4LpRNKhsZoDyzmy8y2DLgmHH9VED4n9nAsMJrIRuoa7qmEsR2RvfsxYFAyHeu5x6bRtW/y/Uc318NK/XugDP8VFP4MOMzYfAw1WrzWvM3M+98J+t4/gnYawGbG5Faj0enx1arAYsIkWvT++vKZ+Kr3CG6PCrWPm+Ks9azPbkvq1e3qGTlNwRulb1FQ+DOgq1mhgoWTO4/SuE8Kbc+d9zVgNPiWKlQAfyNGQ4VC9b7HY/6VjH3ZFJ7YwoZfGxF/laJQLwXFUlVQ+FMjuK023L417/Crmar3FK37J6Me30X3h5/n0RFX0iTAtyKxpMIFoyhVBYW/PVbOFtpwO3LZuWwFOfF3MLrLpaXn+TujDP8VFP5M2GzYvKfsLwWnA3vxKXYvepXbB6Zy/YT3WJOjRHG9FBSlqqDwp8HEtpmP8sg7aRQ2xPhSLBxeO4fp73zKknWbSd9/GpPdWR50W+HiUJSqgsKfBge5W1bwfXpOw2S6VfnTvt84Hn3yWf71r/FVorMpXDyKUv1L4cb5V9pErVAdtwuXqyHM1FJUOj06vR69IaiGTQcKF4OiVP9CWA5t4OeM3Kr5sRQUFH5XGk6pugvZ/tXLPDwmmW4dmhPaZgSzsryS4m17jQGtQ2iW+CJpJR7OHljFx//+J/ePSqFneE/u/PpUeQoSANeJxTwU34krh73Ej4XeqUUEp/UM+1d/yquPP8jDT05i8nNPcOfIsUz6ehdnG64z/xPgwXFmIx++PJsMj7HuoBkNhLtwO1+9/DBjkrvRoXkobUbMoqq4bWx7bQCtQ5qR+GIaJZ6zHFj1Mf/+5/2MSulJeM87+fpUFWlzYvFDxHe6kmEv/Yi3uMVp5cz+1Xz66uM8+PCTTJr8HE/cOZKxk75m199L2AqXO17xVS8Jj90q2Ytuk45+GgnoOUnSTZXPmiXthSQJ1Oil3R0LJc8jIh6n2IszZd6D0RKgNUjXx3+Ss5XucOetkEdjQ0TrHyETVhdWOuMR68n18t6d/SRh0FPy9e5cMdtsYju7W6alhomh1RCZsc9W6fq/MB6nmI/+KNNuuVqGPncuoPDvgUfs1mxZdFtH8dMESM9J6VJV3GnyQlKgaPTt5I6FeVIqbrsUZ86TB6MDRGvoKo//VEXakrfiUYkN0Yp/xASpLG6P9aSsf+9O6ZcwSJ76erfkmm1is52V3dNSJczQSobM2Cd/D2nny/e3tpbmQ+dJTrXAz5dI3rdyfTONaPRXyO2rC7zPKlwADWepAiqdFinM56xTQ1iveMIrL3UrSefbJTuxqELo2SeWEBWg0qAL7ET/66+ljc5Ozs6dnK40dvVpfA1PT7uHbkFNCWtSkTXUkb2a18aP48VdUUx4exI3RDXBX69H7zzB8RN2VM4iikv+6nOYgsth5sTm2Tz5fw8x338MUx4fQFiDSrQuVOi0QmH+WZyaMHrFh1NV3N+yZKcFVUhP+sSGUCpuHYGd+nP9tW3Q2XPYufN0JVeFD42veZpp93QjqGkY5eJ2ZLP6tfGMe3EXURPeZtINUTTx16PXOzlx/AR2lZOi4hJlxlrhsqGBm+BZMrbs56wqhJje3amYTBTOrFvM0n02MEaRGN+kSlSagMhuRBjBfGQvR6uk5PXB4KshtPcQrgsvC4XvOMCXzz/O9J/9GD7xSa7vaEB9zsHe6Gomzp3PgsWzeTD2L7p4WTy4HHbMp3eyYMoYBt34bzJ7TmLma2PoavTgdrsv7fB+Xl2czWDL/rOoQmLo3b3S1LGcYd3ipZSKO5H4JlWkTWS3CIyYObL3KFXFbcBXE0rvIddRKm4HB758nsen/4zf8Ik8eX1HDBXC5uqJc5m/YDGzH4ytotAVFP5IGlapmg+wYdMpXMZI4uMaVxTuyOTbzxeQ5QC/Dokktqmaq97H0IbWjXS4ig5xpLCSzSGnWbcshx7jxxHtC+AhZ8k7vPnNXqTnGG4f0rZa0ry2PZK5OvYKgv6SM5lOio6kMe+NRxh1zSDueutnHLEjuTFWy5ENK1i6dOklHivZdLL+K8vNBzaw6ZQLY2Q8cZVCyjsyv+XzBVk48KNDYiJVxe2DoU1rGulcFB06QlVxr2NZTg/Gj4vGF/DkLOGdN79hr/RkzO1DaOvlLNa17UHy1bFc8ZcRthtT7mlOnTpVy3GaMw5BXGc4Xe1cxXE6t+jCOkeFhsXbH3Ap2Pa8ISkhGjF2f0bWl+bjFRGP5K56WYa1DBCdxk/CH/xeKntHRUTEtlfe6hMiGmN3efaX8hulOP1tmfDUl3LoXKI7xyF57/pmotUES9/XtkvlTMC/NZ6G9mFdBNZDC+WfQ6OldZMQCfDTikajEZ2xkTRr3lyaN8gRJf/3VXY9E7HZZM8bKRKiMUr3Z9aXpV8WEU+urHp5mLQM0InGL1we/L6atMW29y3pE6IRY/dnpULcxZL+9gR56stDZSm7HXLoveulmVYjwX1fk+2/p7DF09DJneuHaatMG3hFDXKpdOg0otE0q/57paNt30ny84VmMFd8qg1GA+79d5M9+2bi7lqK321fs3nmMEIBCtP4cPo8flw+hwU7/Lhl9lZm39K0qoksp/lmVHdGf+fL2MXb+GRACFKUzoevLiPgjn8yJrzU1PGc+JxbYm9n4dlOPPjdRt5KrjtNs8flxOl04nIL/kYD5faMw4zJpcbP37fu4Ljiwumw47CaKJIgmof4ltVbsJjMeNTV01dXweXC6XbidLnxaI0Yy6NU2DGb3Pj4+eNXZwW8cWEzF3Jsy3K+nPUeHy87ROCAJ3jjhbHENPOr+2+pJ6rAYILqM35xZzP75jjuWurHbV9vZuawUAAK0z5k+rwfWT5nATv8bmH21tnc4pVLSU5/w6juo/nOdyyLt33CgBChKP1DXl0WwB3/HEO4HvCc4PNbYrl94Vk6PfgdG99K5jzSxuV04nS6cIs/xkpBRx1mEy61H/6+db8hcTlx2B1YTUVIUHNCfMvqLRZMZg9qo5G6xe3E7XTicnvQGo0VQUnsZkxuH/z8zyMjj4nDv2zmsKk2O/Msv7x2P29a7+K9yf1qTafi49eKnr07E1Tnw7w4s5gbrhzJksI2jPtuCx+nhnhfoVBfvLXsxXNGltx9heg1TWXEx0fFJSLizpV105+RV2e/Jbe01Imm8RB5/5BDRJxe1lCRrL03XPw0YTLkyxPitp+QH6Y/I68tPSr2SleZt0+VuECNaBr1ldf3Vz5TA84C2bfqI5k0Nl4iYu+SeafP2R5m2fH2DdIjZYIsyHZ63VQZlxTtWybvPNhPwpu1kxGzMsvr4jk9X+7p1lx6PrtGirzuqsAixzZ8IzOeGScpUVEy+NVNUpqYWMS0bbqMjOsnD31zvMwquzA8bqfYLXmyd8lUGZsQLl2vfVrm7Smqp4XZQJxZIndfoRdN0xHy8dHSfMru3HUy/ZlXZfZbt0hLnUYaD3m/dJTh9KpZ0Vq5N9xPNGFD5MsTbrGf+EGmP/OaLD1aSabm7TI1LlA0mkbS9/X9Vb6DmnAW7JNVH02SsfEREnvXPKkQ9w55+4YekjJhgdQt7iLZt+wdebBfuDRrN0JmZZZLW07Pv0e6Ne8pz66pXdpiOSYbvpkhz4xLkaiowfLqpnJpy7bpIyWu30PyzfHzS9vjcomr1iNXlt7aWpoP/Uqynd7nKh8X8SUolmqDUR+bpH6YskjfnIvbGEFCbBhqHOT8MJtl9r4Mb3aE7QUejJFJJLRQU3RwP4fzK8/XqvEP8UeNG/OZE2z76gOW6wYzfmCbKiHIVGpNaUxItw1TDfl5xWmmxFpmeGtCCE8ey/hBEVgzN7Hl4LkpEV/axsQQcnAju49bK9/uhZqgiGsYHhNMibkx0dEtyuriJnvlIr4/oCGqW2Qd1pMfrXsN5+7HH+C6NqdZN+8bNp4tO9Munr6dCtm29+RFbTdU+WjQ+TUm8rpHmbnwCx7rkMaUh19i8eH6+0MvFVNWOptz3RgjEogNU4Mjhx9mL8PedzjNjmynwGMkMimBFuoiDu4/TFVx+xPirwa3mTMntvHVB8vRDR7PwDaVpK1SoykVNjaTubqPUJyYS6zlmY41IeEkjx3PoAgrmZu2UCHutsTEhHBw427qFncQEdcMJya4BHPjaKJblNXFnc3KRd9zQBNFt8japY1fa3oNv5vHH7iONqfXMe+bjZSK24928X3pVLiNvSfPL22VWo26rgMAn+q/VzkarlkrXDgN9vbdBfvYmW1D17wL0c2Fgh3zePs7GHhbP9i9k1ynnpY94mie+yNzF2zD5lc54q4Gv2A/NNg4vOAN/ns0jntuS6Sx1/DFt3k4XZtqwHqM7Vt+xeIpbVIibpzWHDbNeYU3FmeV593x0ehpGRtLR20OGfsLyhqmD8Hdk0hKSaVXhLFS6TWgsnJ4TxbmZvH07lQ2v+zMYtmiVeQEdCcxLrTCpVATGg26RrHcOHoAQZkrWbGltJn5hMRz8w1DubZb+0ubtVbr8Gsaw7hpc3gjNZsPX5pDxvnbbQPgpmDfTrJtOpp3iaa5FLBj3tt8x0BKxZ2LU9+SHnHNyf1xLgu22agqbj+C/TRgO8yCN/7L0bh7uC2xcdWhsW9zwrs2RYOVY9u38KvFU6pARXA7reRsmsMrbywmq7wf8UGjb0lsbEe0ORnsLyhTwz7BdE9KIiW1F+cX92H2ZJlpFt+bCnEvY9GqHAK6JxIXWqe00Wh0NIq9kdEDgshcuYJScfsQEn8zNwy9lm7tL0navy3iLO+gypqVwkXSYErVlneaPAe4crfwvykTuP/tA/S65176hdnIPpKNFRXuk6t48411BA+8nq7+le9W4xfkj1ZnICzqeh56eDAd/Kp/wKrQfoy+NZEwXTFr3vkX763az6mCPI7vXs0nL77Al7aB3Dk8vErUcm1oR1oZ7RzLPFmayxw3pzbsRJ88hpSQ6s+ogvUQaeknMcb0plsQgJC/7nM+WXkGQ5c+JDavMRS7F2paJV9DgvEwP/6QgQlA8tlT3JqEPo3rVsr1QoXG0JaUCVO5v/kW5q3NrbIr7bfBRt7pPBy4yN3yP6ZMuJ+3D/Tinnv7EWbL5ki2FVRuTq56kzfWBTPw+q5UFbcfQf5adIYwoq5/iIcHd6CauFWh9Bt9K4lhOorXvMO/3lvF/lMF5B3fzepPXuSFL20MvHM44VVC1GsJ7dgKo/0YmSfLzFL3KTbs1JM8JqV0bXQdWA+lkX7SSEzvbqXLASWfdZ9/wsozBrr0SaR+4m5F8jUJGA//yA8ZJgAkfw/FrRPo0/g8FfgjcDtxOh2cPXaEM3bAY+PsqWJsDidO52//Jf0VaTCl6tc+jv692tHY38opRyR3TXqK4ZFGVBjoGNePK1s1wsfkJGL0A9wUHeB1txpDsytJvW86/31xFF0Ca6mWKpDkibOYM+1eUgN2M/P+4Vw7dBxPzNxG0A2TmHJ3Eq2880Dow2gTqqIouxAH4DyVxpK9jRg0qst5o5s7T6aTdsCHLglxNPYBzBmsXLOB0+JLu8RE2ns/qxbUTRNI7KrlcPpGsu3gzPqZX33j6FPbTMNF4OPXlkFPT+aOnucxxxoEP9rH9adXu8b4W0/hiLyLSU8NJ9KoAkNH4vpdSatGPpicEYx+4Caqi9tAsytTuW/6f3lxVBdqFreKwOSJzJozjXtTA9g9836GXzuUcU/MZFvQDUyacjdJ1YQN+rA2hKqKyC50AE5OpS1hb6NBjOpyXmlzMj2NAz5dSChbDmjOWMmaDacR33YkJravZ4oRNU0TEumqPUz6xmzsOMn6+Vd84/rUOrH0x+EiL2M133z8Js8+9zH7xIjRYGHju8/w/Luf8PWP+yms5ndROC/eTtaLxyM2c4mUlJjEbLWXTlSdw2kRU0mJmMxWcdS2VsVjErOtrpmEClwOm1hMJikpKRGTySwWq63aXEg5jkPyYWqohA2eK8dLsmTpf2bI4n3nJhEqUa1eHjn11VhpHdRTJm00iUiJ7J73gUx/6nppY+go9y7NF3FUfWi1IsoxSfrzsRLY4laZl3NCVs+aJctO1FbhS8NdeyUaFo9NzCUlUmIyi9VeRdritJjKvgNHre/EYzJLvcTtcojNYhJTSYmUmExitljFVquwRRyHPpTU0DAZPPe4lGQtlf/MWCzVxV1DrTyn5KuxrSWo5yQpFfdumffBdHnq+jZi6HivVBd3DWWcw5Quz8cGSotb50nOidUya9YyaRhx/wbbVF0OcTjsZW333GEVm90hDq/vW6F+1GgjXBwq9GW5z/19dVX9Yxo/DEYjBn/fSsnHvFAZ8K+UR70u1Fo9fgYDRqMRg8EfP189mtr+Eo0/IQYNzuKDrJu/nLzoUQzsXGUwCrZi8vOLMFcJ71TCvo1bKW4SQ+9Oegq2L2GdpQPtXFkUhsRxVbSbzL1Z5Jf15LbifPKLzLVEiDIQHh9LE1smmxctITMwgZQWtVX40vCp7f02NCo9/kYjRoM/vrqqzm+Nn6HsO9DW6t5QGfypl7jVWvR+BgxGI0aDAX8/X/S1Chs0/iEYNE6KD65j/vI8okcNpKq4bRTn51NUVdhQso+NW4tpEtObTvoCti9Zh6VDO1xZhYTEXUW0O5O9WfllfvlayjiHIZz42CbYMjezaEkmgQkpNJi4DUaMxtre6kWg1qLV6sra7rnDF71Oi1bbUJX+e/HXf2sqHQFGX1xHNrAnIJWRSc28dmGVkD51KNGRidw+c1/5JBfOPA7vz0MVEoB181xm/aCmz6AryN+bg7pVc0j/nt32xoSoS+MaTB0aTWTi7czcV/MMfEBUDOHq/SzbqqLXdVFU3VOm0FCodAEYfV0c2bCHgNSRJDXzknb6VIZGR5J4+0wqi8qZd5j9eSpCAqxsnjuLH9R9GHRFPntz1JSKezf2xiGUirvmMioIIComHPX+ZWxV9eK6qIaSdiMGvvUL22beQLMG1KsKDctfX6miIahzCndNfYMnh0USUO1j9EFvDCRAm8v6dRkUnPPNqwNp1TWK5uZtLNkczODxI+gWrCe4VVsC83ey3dmD1LjQ0hfoo8cYGIA2dz3rMgpqnCjSBLejXZcUxo2/iRhvH6NCw6EJonPKXUx940mGRQZUs5R99EYCA7Tkrl9HRrmwQR3Yiq5RzTFvW8Lm4MGMH9GNYH0wrdoGkr9zO84eqcSFljaX2sqoQENwu3Z0SRnH+JtiaFBxN7SlqtDgNOCOqssYqwWb1r+WvOmA3UJx1mdMmR/BpMnJ5YFgxGrG7FGh1ujwKxureiwmLB4VGr0B30pGkN1STNZnU5gfMYnJyd55KTwUbJ7LrJ2R3HdnXB1rWxUaAqvFhtbfl5rFbcdSnMVnU+YTMWkyFaISrGYzHpUajc6vzDXhwWKy4FFp0Bt8K41waiujDE8Bm+fOYmfkfdwZp0j778bfwFIF/OpQqAA6Gwd3uoga0qtSZC1Q+RkwGvzLFSqAT5nfuLJCBdDZDrLTFcWQc4l+xIHd7sQtHmwn0li2pwnXj1YU6u+BX60KFUCH7eBOXFFDvHIyqfAzGDH4n1OoAD5lfuPKCpUayxCHHbvTjXhsnEhbxp4m1zNaUah/S/4elup5sB35iTU5bUhObFfn3u7asXHkpzXktEkmsZ0fIJTsnMNb80uITumE+aCJ8GHDiAv7PWLyK9SJ7Qg/rcmhTXIi7S5O2NXLkBJ2znmL+SXRpHQyc9AUzrBhcSji/nuiKFUAnDjcWrwmsS8MpwO39tyqBzcnlzzKjU/9Qosbn2DyI0OIaqSv5t9T+GNwOtxoL0nYXmW4T7Lk0Rt56pcW3PjEZB4ZEkUjvSLtvyv/D2WOKQ15GM1zAAAAAElFTkSuQmCC;" vertex="1" parent="JrayNG33wRIPSkq_cNoT-98">
          <mxGeometry x="4.15" y="30" width="241.11" height="70" as="geometry" />
        </mxCell>
        <mxCell id="JrayNG33wRIPSkq_cNoT-106" value="END" style="ellipse;whiteSpace=wrap;html=1;" vertex="1" parent="JrayNG33wRIPSkq_cNoT-83">
          <mxGeometry x="80" y="1040" width="120" height="80" as="geometry" />
        </mxCell>
        <mxCell id="JrayNG33wRIPSkq_cNoT-112" value="" style="edgeStyle=orthogonalEdgeStyle;rounded=0;orthogonalLoop=1;jettySize=auto;html=1;" edge="1" parent="JrayNG33wRIPSkq_cNoT-83" source="JrayNG33wRIPSkq_cNoT-111" target="JrayNG33wRIPSkq_cNoT-85">
          <mxGeometry relative="1" as="geometry" />
        </mxCell>
        <mxCell id="JrayNG33wRIPSkq_cNoT-111" value="START" style="ellipse;whiteSpace=wrap;html=1;" vertex="1" parent="JrayNG33wRIPSkq_cNoT-83">
          <mxGeometry x="80" y="50" width="120" height="80" as="geometry" />
        </mxCell>
        <mxCell id="JrayNG33wRIPSkq_cNoT-113" value="OUTPUT" style="swimlane;whiteSpace=wrap;html=1;" vertex="1" parent="1">
          <mxGeometry x="1870" y="1378" width="190" height="360" as="geometry" />
        </mxCell>
        <mxCell id="JrayNG33wRIPSkq_cNoT-114" value="PUPu,y" style="rounded=0;whiteSpace=wrap;html=1;fontStyle=1;fontSize=32;" vertex="1" parent="JrayNG33wRIPSkq_cNoT-113">
          <mxGeometry x="30" y="50" width="120" height="60" as="geometry" />
        </mxCell>
        <mxCell id="JrayNG33wRIPSkq_cNoT-115" value="PIPi,y" style="rounded=0;whiteSpace=wrap;html=1;fontStyle=1;fontSize=32;" vertex="1" parent="JrayNG33wRIPSkq_cNoT-113">
          <mxGeometry x="30" y="120" width="120" height="60" as="geometry" />
        </mxCell>
        <mxCell id="JrayNG33wRIPSkq_cNoT-116" value="&lt;font style=&quot;font-size: 21px;&quot;&gt;CUPv,k,u,y&lt;/font&gt;" style="rounded=0;whiteSpace=wrap;html=1;fontStyle=1;fontSize=32;" vertex="1" parent="JrayNG33wRIPSkq_cNoT-113">
          <mxGeometry x="30" y="190" width="120" height="60" as="geometry" />
        </mxCell>
        <mxCell id="JrayNG33wRIPSkq_cNoT-117" value="&lt;font style=&quot;font-size: 21px;&quot;&gt;CIPj,k,i,y&lt;/font&gt;" style="rounded=0;whiteSpace=wrap;html=1;fontStyle=1;fontSize=32;" vertex="1" parent="JrayNG33wRIPSkq_cNoT-113">
          <mxGeometry x="30" y="260" width="120" height="60" as="geometry" />
        </mxCell>
      </root>
    </mxGraphModel>
  </diagram>
</mxfile>
